<?xml version="1.0" encoding="UTF-8" standalone="no"?>
<!-- Created with Inkscape (http://www.inkscape.org/) -->

<svg
   xmlns:dc="http://purl.org/dc/elements/1.1/"
   xmlns:cc="http://creativecommons.org/ns#"
   xmlns:rdf="http://www.w3.org/1999/02/22-rdf-syntax-ns#"
   xmlns:svg="http://www.w3.org/2000/svg"
   xmlns="http://www.w3.org/2000/svg"
   xmlns:sodipodi="http://sodipodi.sourceforge.net/DTD/sodipodi-0.dtd"
   xmlns:inkscape="http://www.inkscape.org/namespaces/inkscape"
   width="344.0625"
   height="195.87318"
   id="svg2"
   version="1.1"
   inkscape:version="0.48.4 r9939"
   sodipodi:docname="concat_path.svg">
  <defs
     id="defs4">
    <marker
       inkscape:stockid="Arrow1Lstart"
       orient="auto"
       refY="0"
       refX="0"
       id="Arrow1Lstart"
       style="overflow:visible">
      <path
         id="path3893"
         d="M 0,0 5,-5 -12.5,0 5,5 0,0 z"
         style="fill-rule:evenodd;stroke:#000000;stroke-width:1pt"
         transform="matrix(0.8,0,0,0.8,10,0)"
         inkscape:connector-curvature="0" />
    </marker>
    <marker
       inkscape:stockid="Arrow1Lend"
       orient="auto"
       refY="0"
       refX="0"
       id="Arrow1Lend"
       style="overflow:visible">
      <path
         id="path3896"
         d="M 0,0 5,-5 -12.5,0 5,5 0,0 z"
         style="fill-rule:evenodd;stroke:#000000;stroke-width:1pt"
         transform="matrix(-0.8,0,0,-0.8,-10,0)"
         inkscape:connector-curvature="0" />
    </marker>
    <marker
       inkscape:stockid="Arrow1Lend"
       orient="auto"
       refY="0"
       refX="0"
       id="Arrow1Lend-1"
       style="overflow:visible">
      <path
         inkscape:connector-curvature="0"
         id="path3896-3"
         d="M 0,0 5,-5 -12.5,0 5,5 0,0 z"
         style="fill-rule:evenodd;stroke:#000000;stroke-width:1pt"
         transform="matrix(-0.8,0,0,-0.8,-10,0)" />
    </marker>
    <marker
       inkscape:stockid="Arrow1Lend"
       orient="auto"
       refY="0"
       refX="0"
       id="marker4345"
       style="overflow:visible">
      <path
         inkscape:connector-curvature="0"
         id="path4347"
         d="M 0,0 5,-5 -12.5,0 5,5 0,0 z"
         style="fill-rule:evenodd;stroke:#000000;stroke-width:1pt"
         transform="matrix(-0.8,0,0,-0.8,-10,0)" />
    </marker>
    <marker
       inkscape:stockid="Arrow1Lend"
       orient="auto"
       refY="0"
       refX="0"
       id="marker4349"
       style="overflow:visible">
      <path
         inkscape:connector-curvature="0"
         id="path4351"
         d="M 0,0 5,-5 -12.5,0 5,5 0,0 z"
         style="fill-rule:evenodd;stroke:#000000;stroke-width:1pt"
         transform="matrix(-0.8,0,0,-0.8,-10,0)" />
    </marker>
    <marker
       inkscape:stockid="Arrow1Lend"
       orient="auto"
       refY="0"
       refX="0"
       id="marker4353"
       style="overflow:visible">
      <path
         inkscape:connector-curvature="0"
         id="path4355"
         d="M 0,0 5,-5 -12.5,0 5,5 0,0 z"
         style="fill-rule:evenodd;stroke:#000000;stroke-width:1pt"
         transform="matrix(-0.8,0,0,-0.8,-10,0)" />
    </marker>
    <marker
       inkscape:stockid="Arrow1Lend"
       orient="auto"
       refY="0"
       refX="0"
       id="marker4357"
       style="overflow:visible">
      <path
         inkscape:connector-curvature="0"
         id="path4359"
         d="M 0,0 5,-5 -12.5,0 5,5 0,0 z"
         style="fill-rule:evenodd;stroke:#000000;stroke-width:1pt"
         transform="matrix(-0.8,0,0,-0.8,-10,0)" />
    </marker>
    <marker
       inkscape:stockid="Arrow1Lend"
       orient="auto"
       refY="0"
       refX="0"
       id="marker4361"
       style="overflow:visible">
      <path
         inkscape:connector-curvature="0"
         id="path4363"
         d="M 0,0 5,-5 -12.5,0 5,5 0,0 z"
         style="fill-rule:evenodd;stroke:#000000;stroke-width:1pt"
         transform="matrix(-0.8,0,0,-0.8,-10,0)" />
    </marker>
    <marker
       inkscape:stockid="Arrow1Lend"
       orient="auto"
       refY="0"
       refX="0"
       id="marker4365"
       style="overflow:visible">
      <path
         inkscape:connector-curvature="0"
         id="path4367"
         d="M 0,0 5,-5 -12.5,0 5,5 0,0 z"
         style="fill-rule:evenodd;stroke:#000000;stroke-width:1pt"
         transform="matrix(-0.8,0,0,-0.8,-10,0)" />
    </marker>
    <marker
       inkscape:stockid="Arrow1Lend"
       orient="auto"
       refY="0"
       refX="0"
       id="marker4369"
       style="overflow:visible">
      <path
         inkscape:connector-curvature="0"
         id="path4371"
         d="M 0,0 5,-5 -12.5,0 5,5 0,0 z"
         style="fill-rule:evenodd;stroke:#000000;stroke-width:1pt"
         transform="matrix(-0.8,0,0,-0.8,-10,0)" />
    </marker>
  </defs>
  <sodipodi:namedview
     id="base"
     pagecolor="#ffffff"
     bordercolor="#666666"
     borderopacity="1.0"
     inkscape:pageopacity="0.0"
     inkscape:pageshadow="2"
     inkscape:zoom="1"
     inkscape:cx="92.993811"
     inkscape:cy="43.604331"
     inkscape:document-units="px"
     inkscape:current-layer="layer1"
     showgrid="false"
     inkscape:object-nodes="false"
     inkscape:snap-grids="true"
     inkscape:snap-page="true"
     inkscape:connector-spacing="57"
     fit-margin-top="8"
     fit-margin-left="8"
     fit-margin-bottom="8"
     fit-margin-right="8"
     inkscape:window-width="1008"
     inkscape:window-height="628"
     inkscape:window-x="817"
     inkscape:window-y="212"
     inkscape:window-maximized="0" />
  <metadata
     id="metadata7">
    <rdf:RDF>
      <cc:Work
         rdf:about="">
        <dc:format>image/svg+xml</dc:format>
        <dc:type
           rdf:resource="http://purl.org/dc/dcmitype/StillImage" />
        <dc:title></dc:title>
      </cc:Work>
    </rdf:RDF>
  </metadata>
  <g
     inkscape:label="Layer 1"
     inkscape:groupmode="layer"
     id="layer1"
     transform="translate(-278.5993,102.05034)">
    <path
       sodipodi:type="arc"
       style="fill:#2600c8;fill-opacity:1;stroke:none"
       id="path3755-7-5"
       sodipodi:cx="102.5"
       sodipodi:cy="199.86218"
       sodipodi:rx="10.5"
       sodipodi:ry="10.5"
       d="m 113,199.86218 c 0,5.79899 -4.70101,10.5 -10.5,10.5 -5.79899,0 -10.5,-4.70101 -10.5,-10.5 0,-5.79899 4.70101,-10.5 10.5,-10.5 5.79899,0 10.5,4.70101 10.5,10.5 z"
       transform="matrix(0.762737,0,0,0.762737,334.09898,-111.99223)" />
    <path
       sodipodi:type="arc"
       style="fill:#2600c8;fill-opacity:1;stroke:none"
       id="path3755-7-6-4-0"
       sodipodi:cx="102.5"
       sodipodi:cy="199.86218"
       sodipodi:rx="10.5"
       sodipodi:ry="10.5"
       d="m 113,199.86218 c 0,5.79899 -4.70101,10.5 -10.5,10.5 -5.79899,0 -10.5,-4.70101 -10.5,-10.5 0,-5.79899 4.70101,-10.5 10.5,-10.5 5.79899,0 10.5,4.70101 10.5,10.5 z"
       transform="matrix(0.762737,0,0,0.762737,513.12503,-74.62818)" />
    <text
       xml:space="preserve"
       style="font-size:20px;font-style:normal;font-weight:normal;line-height:125%;letter-spacing:0px;word-spacing:0px;fill:#000000;fill-opacity:1;stroke:none;font-family:Sans"
       x="398.02313"
       y="60.887161"
       id="text4091"
       sodipodi:linespacing="125%"><tspan
         sodipodi:role="line"
         id="tspan4093"
         x="398.02313"
         y="60.887161">y</tspan></text>
    <text
       xml:space="preserve"
       style="font-size:20px;font-style:normal;font-weight:normal;line-height:125%;letter-spacing:0px;word-spacing:0px;fill:#000000;fill-opacity:1;stroke:none;font-family:Sans"
       x="286.02313"
       y="-83.112839"
       id="text4095"
       sodipodi:linespacing="125%"><tspan
         sodipodi:role="line"
         id="tspan4097"
         x="286.02313"
         y="-83.112839">x</tspan></text>
    <text
       xml:space="preserve"
       style="font-size:20px;font-style:normal;font-weight:normal;line-height:125%;letter-spacing:0px;word-spacing:0px;fill:#000000;fill-opacity:1;stroke:none;font-family:Sans"
       x="605.02313"
       y="84.887161"
       id="text4099"
       sodipodi:linespacing="125%"><tspan
         sodipodi:role="line"
         id="tspan4101"
         x="605.02313"
         y="84.887161">z</tspan></text>
    <path
       sodipodi:type="arc"
       style="fill:#2600c8;fill-opacity:1;stroke:none"
       id="path3755-7-5-3"
       sodipodi:cx="102.5"
       sodipodi:cy="199.86218"
       sodipodi:rx="10.5"
       sodipodi:ry="10.5"
       d="m 113,199.86218 c 0,5.79899 -4.70101,10.5 -10.5,10.5 -5.79899,0 -10.5,-4.70101 -10.5,-10.5 0,-5.79899 4.70101,-10.5 10.5,-10.5 5.79899,0 10.5,4.70101 10.5,10.5 z"
       transform="matrix(0.762737,0,0,0.762737,224.8426,-217.55512)" />
    <path
       style="fill:none;stroke:#000000;stroke-width:1px;stroke-linecap:butt;stroke-linejoin:miter;stroke-opacity:1"
       d="m 55,123.93753 c 0,1.33333 1.333333,4 0,4 -1.333333,0 1.1094,-4.7396 0,-4 -1.860521,1.24035 -2.292893,3.87868 -3,6 -0.506655,1.51997 0.538314,7.74393 0,9 -0.557086,1.29987 -2.272393,1.78732 -3,3 -0.342997,0.57166 0.298142,1.40372 0,2 -0.421637,0.84327 -1.578363,1.15673 -2,2 -0.298142,0.59629 0,1.33333 0,2 -0.333333,1.33333 -0.237638,2.85646 -1,4 -1.307441,1.96116 -3.630008,3.08201 -5,5 -0.774984,1.08498 0.942809,3.05719 0,4 -0.471405,0.47141 -1.528595,-0.4714 -2,0 -0.471405,0.47141 -0.471405,1.5286 0,2 0.471405,0.47141 1.528595,-0.4714 2,0 0.471405,0.47141 0,1.33333 0,2 0.666667,0 1.403715,-0.29814 2,0 0.298142,0.14907 -0.105409,0.68377 0,1 0.235702,0.70711 0.586551,1.37983 1,2 0.261488,0.39223 0.850929,0.55279 1,1 0.210819,0.63246 -0.471405,1.5286 0,2 0.471405,0.47141 1.528595,-0.4714 2,0 0.471405,0.47141 -0.471405,1.5286 0,2 0.471405,0.47141 1.528595,-0.4714 2,0 0.471405,0.47141 -0.5547,1.6302 0,2 0.83205,0.5547 2.16795,-0.5547 3,0 0.5547,0.3698 -0.298142,1.40372 0,2 0.149071,0.29814 0.666667,0 1,0 0.333333,0.66667 0.764298,1.29289 1,2 0.199107,0.59732 -0.263932,1.86803 0,2 0.596285,0.29814 1.528595,-0.4714 2,0 0.471405,0.47141 0,1.33333 0,2 0,1.33333 -0.596285,2.80743 0,4 0.298142,0.59629 1.528595,-0.4714 2,0 0.471405,0.47141 0,1.33333 0,2 0.666667,0 1.403715,-0.29814 2,0 0.596285,0.29814 -0.596285,1.70186 0,2 0.596285,0.29814 1.403715,-0.29814 2,0 0.596285,0.29814 -0.596285,1.70186 0,2 0.596285,0.29814 1.528595,-0.4714 2,0 0.471405,0.47141 -0.471405,1.5286 0,2 0.471405,0.47141 1.528595,-0.4714 2,0 0.471405,0.47141 -0.471405,1.5286 0,2 0.942809,0.94281 2.8906,-0.7396 4,0 0.620174,0.41345 0.379826,1.58655 1,2 0.810238,0.54016 4.189762,-0.54016 5,0 0.795564,0.53038 -0.521035,2.73948 0,3 0.834305,0.41715 3.534387,-0.46561 4,0 0.471405,0.47141 -0.471405,1.5286 0,2 0.471405,0.47141 1.528595,-0.4714 2,0 0.471405,0.47141 -0.247594,1.38102 0,2 -3.473634,7.83805 2.367544,1.73509 3,3 0.298142,0.59629 -0.298142,1.40372 0,2 0.421637,0.84327 1.578363,1.15673 2,2 0.497418,0.99484 -0.395641,2.80218 0,3 0.894427,0.44721 2,0 3,0 0.333333,0 0.850929,-0.29814 1,0 0.298142,0.59629 -0.298142,1.40372 0,2 0.149071,0.29814 0.666667,0 1,0 0.941838,0 4.431138,0.18962 5,0 0.447214,-0.14907 0.666667,-0.66667 1,-1 0.666667,-0.66667 1.333333,-1.33333 2,-2 0.66667,-0.66667 1.57836,-1.15673 2,-2 0.29814,-0.59628 -0.3698,-1.4453 0,-2 0.41345,-0.62017 1.47295,-0.47295 2,-1 0.2357,-0.2357 -0.1849,-0.72265 0,-1 0.52298,-0.78446 1.33333,-1.33333 2,-2 1,-1 2.07964,-1.92625 3,-3 1.08465,-1.26543 1.82149,-2.82149 3,-4 0.2357,-0.2357 0.66667,0 1,0 0.33333,0 0.66667,0 1,0 1.20109,0 6.52884,0.18846 7,0 0.87538,-0.35015 1.21554,-1.47702 2,-2 0.27735,-0.1849 0.66667,0 1,0 1.66667,0 3.33333,0 5,0 0.33333,0 0.7643,-0.2357 1,0 0.52705,0.52705 0.37983,1.58655 1,2 1.1094,0.7396 3.05719,-0.94281 4,0 0.4714,0.47141 -0.5547,1.6302 0,2 0.83205,0.5547 2.05132,-0.31623 3,0 0.63246,0.21082 -0.59628,1.70186 0,2 0.59628,0.29814 1.40372,-0.29814 2,0 0.59628,0.29814 -0.59628,1.70186 0,2 0.59628,0.29814 1.40372,-0.29814 2,0 0.31603,0.15801 -0.4541,3.5459 0,4 0.4714,0.47141 1.5286,-0.4714 2,0 0.4714,0.47141 -0.5547,1.6302 0,2 1.15385,0.76923 3.84615,-0.76923 5,0 0.62017,0.41345 0.47295,1.47295 1,2 0.2357,0.2357 0.66667,0 1,0 0.76961,0 4.66933,-0.16534 5,0 0.59628,0.29814 -0.4714,1.5286 0,2 0.4714,0.47141 1.5286,-0.4714 2,0 0.2357,0.2357 0,0.66667 0,1 0,1.66667 -0.33333,1 2,1"
       id="path4992"
       inkscape:connector-curvature="0"
       transform="translate(253.02314,-183.05034)" />
    <path
       style="fill:none;stroke:#000000;stroke-width:1px;stroke-linecap:butt;stroke-linejoin:miter;stroke-opacity:1"
       d="m 169,224.93753 c -3.66218,6.02753 6.36693,3.36693 7,4 0.52705,0.52705 0.37983,1.58655 1,2 0.64569,0.43046 6.35431,-0.43046 7,0 1.54704,1.03136 1,6.50657 1,8 0,0.33333 0,0.66667 0,1 0,0.33333 0.2357,0.7643 0,1 -3.83205,3.83205 -3,-0.26467 -3,5 0,0.66667 -0.4714,1.5286 0,2 0.37662,0.37662 5.62338,-0.37662 6,0 0.009,0.009 0,6.77631 0,7 0,0.33333 -0.31623,0.89459 0,1 1.58114,0.52705 3.41886,-0.52705 5,0 0.44721,0.14907 0.66667,0.66667 1,1 1.33333,0.33333 2.65232,0.73046 4,1 1.48148,0.2963 2.22222,-0.88889 4,0 0.66667,0.33333 0.37983,1.58655 1,2 0.93516,0.62344 2.76232,-0.47536 3,0 1.77022,3.54044 -2.97487,0.68342 2,4 0.27735,0.1849 0.66667,0 1,0 0.33333,0 0.66667,0 1,0 1.33333,0 2.66667,0 4,0 2,0 4,0 6,0 0.66667,0 1.35324,0.16169 2,0 4.32142,-1.08035 0.43897,-2.43897 2,-4 0.4714,-0.4714 1.4453,0.3698 2,0 0.62017,-0.41345 0.66667,-1.33333 1,-2 0.66667,-1.33333 1.59047,-2.56664 2,-4 0.27472,-0.96152 -0.37139,-2.07152 0,-3 0.35015,-0.87538 1.64985,-1.12462 2,-2 0.37139,-0.92848 -0.37139,-2.07152 0,-3 0.35015,-0.87538 1.47702,-1.21553 2,-2 0.1849,-0.27735 -0.1849,-0.72265 0,-1 0.52298,-0.78446 1.57836,-1.15673 2,-2 0.16534,-0.33067 0,-4.23039 0,-5 0,-0.33333 -0.29814,-0.85093 0,-1 5.33333,-2.66667 -0.66667,3.33333 2,-2 0.14907,-0.29814 0.85093,0.29814 1,0 0.29814,-0.59628 -0.4714,-1.52859 0,-2 0.4714,-0.4714 1.40372,0.29814 2,0 0.84327,-0.42164 1.15673,-1.57836 2,-2 0.59628,-0.29814 1.46667,0.4 2,0 0.96148,-0.72111 1.03852,-2.27889 2,-3 0.46955,-0.35216 5.27098,0.36451 6,0 0.29814,-0.14907 -0.2357,-0.7643 0,-1 2.08245,-2.08245 4.27653,-0.31061 6,-1 1.11589,-0.44636 1.84439,-1.66983 3,-2 1.28203,-0.36629 2.66667,0 4,0 3.33333,0 6.66667,0 10,0 1,0 2.07152,0.37139 3,0 0.87538,-0.35015 1.15673,-1.57836 2,-2 0.89443,-0.44721 2,0 3,0 2.33333,0 4.66667,0 7,0 0.33333,0 0.66667,0 1,0 0.33333,0 0.7643,-0.2357 1,0 0.2072,0.2072 -0.1069,3.94655 0,4 0.59628,0.29814 1.33333,0 2,0 2.33333,0 4.66667,0 7,0 0.66667,0 1.5286,-0.4714 2,0 0.4714,0.47141 -0.29814,1.40372 0,2 0.29814,0.59629 1.70186,-0.59628 2,0 0.34085,0.6817 -0.35803,5.64197 0,6 0.94281,0.94281 3.05719,-0.94281 4,0 0.4714,0.47141 0,1.33333 0,2 0,1.66667 0,3.33333 0,5 0,0.33333 -0.31623,0.89459 0,1 0.67641,0.22547 4.78932,0 6,0 0.33333,0 0.7643,-0.2357 1,0 0.30965,0.30965 -0.30965,4.69035 0,5 2.04662,2.04662 4.03841,0.34614 6,1 0.89443,0.29814 1.15673,1.57836 2,2 0.59628,0.29814 1.70186,-0.59628 2,0 0.29814,0.59629 -0.4714,1.5286 0,2 0.4714,0.47141 1.40372,-0.29814 2,0 0.12294,0.0615 -0.12294,3.93853 0,4 0.59628,0.29814 1.5286,-0.4714 2,0 0.4714,0.47141 0,1.33333 0,2 0,0.66667 0,1.33333 0,2"
       id="path4994"
       inkscape:connector-curvature="0"
       transform="translate(253.02314,-183.05034)" />
  </g>
</svg>
