<?xml version="1.0" encoding="UTF-8" standalone="no"?>
<!-- Created with Inkscape (http://www.inkscape.org/) -->

<svg
   xmlns:dc="http://purl.org/dc/elements/1.1/"
   xmlns:cc="http://creativecommons.org/ns#"
   xmlns:rdf="http://www.w3.org/1999/02/22-rdf-syntax-ns#"
   xmlns:svg="http://www.w3.org/2000/svg"
   xmlns="http://www.w3.org/2000/svg"
   xmlns:sodipodi="http://sodipodi.sourceforge.net/DTD/sodipodi-0.dtd"
   xmlns:inkscape="http://www.inkscape.org/namespaces/inkscape"
   sodipodi:docname="mesh_and_ring.svg"
   inkscape:version="0.48.4 r9939"
   version="1.1"
   id="svg2"
   height="422.80756"
   width="926.65778">
  <sodipodi:namedview
     id="base"
     pagecolor="#ffffff"
     bordercolor="#666666"
     borderopacity="1.0"
     inkscape:pageopacity="0.0"
     inkscape:pageshadow="2"
     inkscape:zoom="1"
     inkscape:cx="255.59979"
     inkscape:cy="371.30437"
     inkscape:document-units="px"
     inkscape:current-layer="layer1"
     showgrid="false"
     inkscape:object-nodes="false"
     inkscape:snap-grids="true"
     inkscape:snap-page="true"
     inkscape:connector-spacing="57"
     fit-margin-top="8"
     fit-margin-left="8"
     fit-margin-bottom="8"
     fit-margin-right="8"
     inkscape:window-width="1920"
     inkscape:window-height="991"
     inkscape:window-x="0"
     inkscape:window-y="28"
     inkscape:window-maximized="1" />
  <defs
     id="defs4">
    <inkscape:path-effect
       is_visible="true"
       id="path-effect9129"
       effect="spiro" />
    <inkscape:path-effect
       effect="spiro"
       id="path-effect7710"
       is_visible="true" />
    <inkscape:path-effect
       effect="spiro"
       id="path-effect7267"
       is_visible="true" />
    <inkscape:path-effect
       is_visible="true"
       id="path-effect5334"
       effect="spiro" />
    <inkscape:path-effect
       is_visible="true"
       id="path-effect5171"
       effect="spiro" />
    <inkscape:path-effect
       is_visible="true"
       id="path-effect5167"
       effect="spiro" />
    <inkscape:path-effect
       is_visible="true"
       id="path-effect5163"
       effect="spiro" />
    <inkscape:path-effect
       is_visible="true"
       id="path-effect5159"
       effect="spiro" />
    <inkscape:path-effect
       is_visible="true"
       id="path-effect5155"
       effect="spiro" />
    <inkscape:path-effect
       is_visible="true"
       id="path-effect5151"
       effect="spiro" />
    <inkscape:path-effect
       is_visible="true"
       id="path-effect5147"
       effect="spiro" />
    <inkscape:path-effect
       is_visible="true"
       id="path-effect5143"
       effect="spiro" />
    <inkscape:path-effect
       is_visible="true"
       id="path-effect5139"
       effect="spiro" />
    <inkscape:path-effect
       is_visible="true"
       id="path-effect5135"
       effect="spiro" />
    <inkscape:path-effect
       is_visible="true"
       id="path-effect5131"
       effect="spiro" />
    <inkscape:path-effect
       is_visible="true"
       id="path-effect5127"
       effect="spiro" />
    <inkscape:path-effect
       is_visible="true"
       id="path-effect5123"
       effect="spiro" />
    <inkscape:path-effect
       is_visible="true"
       id="path-effect5119"
       effect="spiro" />
    <marker
       style="overflow:visible"
       id="Arrow1Lstart"
       refX="0"
       refY="0"
       orient="auto"
       inkscape:stockid="Arrow1Lstart">
      <path
         inkscape:connector-curvature="0"
         transform="matrix(0.8,0,0,0.8,10,0)"
         style="fill-rule:evenodd;stroke:#000000;stroke-width:1pt"
         d="M 0,0 5,-5 -12.5,0 5,5 0,0 z"
         id="path3893" />
    </marker>
    <marker
       style="overflow:visible"
       id="Arrow1Lend"
       refX="0"
       refY="0"
       orient="auto"
       inkscape:stockid="Arrow1Lend">
      <path
         inkscape:connector-curvature="0"
         transform="matrix(-0.8,0,0,-0.8,-10,0)"
         style="fill-rule:evenodd;stroke:#000000;stroke-width:1pt"
         d="M 0,0 5,-5 -12.5,0 5,5 0,0 z"
         id="path3896" />
    </marker>
    <marker
       style="overflow:visible"
       id="Arrow1Lend-1"
       refX="0"
       refY="0"
       orient="auto"
       inkscape:stockid="Arrow1Lend">
      <path
         transform="matrix(-0.8,0,0,-0.8,-10,0)"
         style="fill-rule:evenodd;stroke:#000000;stroke-width:1pt"
         d="M 0,0 5,-5 -12.5,0 5,5 0,0 z"
         id="path3896-3"
         inkscape:connector-curvature="0" />
    </marker>
    <marker
       style="overflow:visible"
       id="marker4345"
       refX="0"
       refY="0"
       orient="auto"
       inkscape:stockid="Arrow1Lend">
      <path
         transform="matrix(-0.8,0,0,-0.8,-10,0)"
         style="fill-rule:evenodd;stroke:#000000;stroke-width:1pt"
         d="M 0,0 5,-5 -12.5,0 5,5 0,0 z"
         id="path4347"
         inkscape:connector-curvature="0" />
    </marker>
    <marker
       style="overflow:visible"
       id="marker4349"
       refX="0"
       refY="0"
       orient="auto"
       inkscape:stockid="Arrow1Lend">
      <path
         transform="matrix(-0.8,0,0,-0.8,-10,0)"
         style="fill-rule:evenodd;stroke:#000000;stroke-width:1pt"
         d="M 0,0 5,-5 -12.5,0 5,5 0,0 z"
         id="path4351"
         inkscape:connector-curvature="0" />
    </marker>
    <marker
       style="overflow:visible"
       id="marker4353"
       refX="0"
       refY="0"
       orient="auto"
       inkscape:stockid="Arrow1Lend">
      <path
         transform="matrix(-0.8,0,0,-0.8,-10,0)"
         style="fill-rule:evenodd;stroke:#000000;stroke-width:1pt"
         d="M 0,0 5,-5 -12.5,0 5,5 0,0 z"
         id="path4355"
         inkscape:connector-curvature="0" />
    </marker>
    <marker
       style="overflow:visible"
       id="marker4357"
       refX="0"
       refY="0"
       orient="auto"
       inkscape:stockid="Arrow1Lend">
      <path
         transform="matrix(-0.8,0,0,-0.8,-10,0)"
         style="fill-rule:evenodd;stroke:#000000;stroke-width:1pt"
         d="M 0,0 5,-5 -12.5,0 5,5 0,0 z"
         id="path4359"
         inkscape:connector-curvature="0" />
    </marker>
    <marker
       style="overflow:visible"
       id="marker4361"
       refX="0"
       refY="0"
       orient="auto"
       inkscape:stockid="Arrow1Lend">
      <path
         transform="matrix(-0.8,0,0,-0.8,-10,0)"
         style="fill-rule:evenodd;stroke:#000000;stroke-width:1pt"
         d="M 0,0 5,-5 -12.5,0 5,5 0,0 z"
         id="path4363"
         inkscape:connector-curvature="0" />
    </marker>
    <marker
       style="overflow:visible"
       id="marker4365"
       refX="0"
       refY="0"
       orient="auto"
       inkscape:stockid="Arrow1Lend">
      <path
         transform="matrix(-0.8,0,0,-0.8,-10,0)"
         style="fill-rule:evenodd;stroke:#000000;stroke-width:1pt"
         d="M 0,0 5,-5 -12.5,0 5,5 0,0 z"
         id="path4367"
         inkscape:connector-curvature="0" />
    </marker>
    <marker
       style="overflow:visible"
       id="marker4369"
       refX="0"
       refY="0"
       orient="auto"
       inkscape:stockid="Arrow1Lend">
      <path
         transform="matrix(-0.8,0,0,-0.8,-10,0)"
         style="fill-rule:evenodd;stroke:#000000;stroke-width:1pt"
         d="M 0,0 5,-5 -12.5,0 5,5 0,0 z"
         id="path4371"
         inkscape:connector-curvature="0" />
    </marker>
    <inkscape:path-effect
       is_visible="true"
       id="path-effect5171-7"
       effect="spiro" />
    <inkscape:path-effect
       is_visible="true"
       id="path-effect5167-4"
       effect="spiro" />
    <inkscape:path-effect
       is_visible="true"
       id="path-effect5163-6"
       effect="spiro" />
    <inkscape:path-effect
       is_visible="true"
       id="path-effect5159-5"
       effect="spiro" />
    <inkscape:path-effect
       is_visible="true"
       id="path-effect5155-0"
       effect="spiro" />
    <inkscape:path-effect
       is_visible="true"
       id="path-effect5151-2"
       effect="spiro" />
    <inkscape:path-effect
       is_visible="true"
       id="path-effect5147-4"
       effect="spiro" />
    <inkscape:path-effect
       is_visible="true"
       id="path-effect5143-0"
       effect="spiro" />
    <inkscape:path-effect
       is_visible="true"
       id="path-effect5139-2"
       effect="spiro" />
    <inkscape:path-effect
       is_visible="true"
       id="path-effect5135-8"
       effect="spiro" />
    <inkscape:path-effect
       is_visible="true"
       id="path-effect5131-5"
       effect="spiro" />
    <inkscape:path-effect
       is_visible="true"
       id="path-effect5127-4"
       effect="spiro" />
    <inkscape:path-effect
       is_visible="true"
       id="path-effect5123-7"
       effect="spiro" />
    <inkscape:path-effect
       is_visible="true"
       id="path-effect5119-3"
       effect="spiro" />
    <inkscape:path-effect
       effect="spiro"
       id="path-effect7267-3"
       is_visible="true" />
    <inkscape:path-effect
       effect="spiro"
       id="path-effect7710-0"
       is_visible="true" />
    <inkscape:path-effect
       effect="spiro"
       id="path-effect7710-0-5"
       is_visible="true" />
    <inkscape:path-effect
       is_visible="true"
       id="path-effect5171-0"
       effect="spiro" />
    <inkscape:path-effect
       is_visible="true"
       id="path-effect5167-6"
       effect="spiro" />
    <inkscape:path-effect
       is_visible="true"
       id="path-effect5163-0"
       effect="spiro" />
    <inkscape:path-effect
       is_visible="true"
       id="path-effect5159-3"
       effect="spiro" />
    <inkscape:path-effect
       is_visible="true"
       id="path-effect5155-8"
       effect="spiro" />
    <inkscape:path-effect
       is_visible="true"
       id="path-effect5151-7"
       effect="spiro" />
    <inkscape:path-effect
       is_visible="true"
       id="path-effect5147-5"
       effect="spiro" />
    <inkscape:path-effect
       is_visible="true"
       id="path-effect5143-7"
       effect="spiro" />
    <inkscape:path-effect
       is_visible="true"
       id="path-effect5139-3"
       effect="spiro" />
    <inkscape:path-effect
       is_visible="true"
       id="path-effect5135-3"
       effect="spiro" />
    <inkscape:path-effect
       is_visible="true"
       id="path-effect5131-7"
       effect="spiro" />
    <inkscape:path-effect
       is_visible="true"
       id="path-effect5127-3"
       effect="spiro" />
    <inkscape:path-effect
       is_visible="true"
       id="path-effect5123-5"
       effect="spiro" />
    <inkscape:path-effect
       is_visible="true"
       id="path-effect5119-5"
       effect="spiro" />
  </defs>
  <metadata
     id="metadata7">
    <rdf:RDF>
      <cc:Work
         rdf:about="">
        <dc:format>image/svg+xml</dc:format>
        <dc:type
           rdf:resource="http://purl.org/dc/dcmitype/StillImage" />
        <dc:title />
      </cc:Work>
    </rdf:RDF>
  </metadata>
  <g
     transform="translate(-182.17548,507.98468)"
     id="layer1"
     inkscape:groupmode="layer"
     inkscape:label="Layer 1">
    <path
       transform="matrix(0.762737,0,0,0.762737,607.93247,-394.99223)"
       d="m 113,199.86218 c 0,5.79899 -4.70101,10.5 -10.5,10.5 -5.79899,0 -10.5,-4.70101 -10.5,-10.5 0,-5.79899 4.70101,-10.5 10.5,-10.5 5.79899,0 10.5,4.70101 10.5,10.5 z"
       sodipodi:ry="10.5"
       sodipodi:rx="10.5"
       sodipodi:cy="199.86218"
       sodipodi:cx="102.5"
       id="path3755-7-5"
       style="fill:#2600c8;fill-opacity:1;stroke:none"
       sodipodi:type="arc" />
    <path
       transform="matrix(0.762737,0,0,0.762737,716.95852,-432.62818)"
       d="m 113,199.86218 c 0,5.79899 -4.70101,10.5 -10.5,10.5 -5.79899,0 -10.5,-4.70101 -10.5,-10.5 0,-5.79899 4.70101,-10.5 10.5,-10.5 5.79899,0 10.5,4.70101 10.5,10.5 z"
       sodipodi:ry="10.5"
       sodipodi:rx="10.5"
       sodipodi:cy="199.86218"
       sodipodi:cx="102.5"
       id="path3755-7-6-4-0"
       style="fill:#2600c8;fill-opacity:1;stroke:none"
       sodipodi:type="arc" />
    <path
       transform="matrix(0.762737,0,0,0.762737,596.67609,-473.55512)"
       d="m 113,199.86218 c 0,5.79899 -4.70101,10.5 -10.5,10.5 -5.79899,0 -10.5,-4.70101 -10.5,-10.5 0,-5.79899 4.70101,-10.5 10.5,-10.5 5.79899,0 10.5,4.70101 10.5,10.5 z"
       sodipodi:ry="10.5"
       sodipodi:rx="10.5"
       sodipodi:cy="199.86218"
       sodipodi:cx="102.5"
       id="path3755-7-5-3"
       style="fill:#2600c8;fill-opacity:1;stroke:none"
       sodipodi:type="arc" />
    <path
       transform="matrix(0.762737,0,0,0.762737,725.25225,-518.61945)"
       d="m 113,199.86218 c 0,5.79899 -4.70101,10.5 -10.5,10.5 -5.79899,0 -10.5,-4.70101 -10.5,-10.5 0,-5.79899 4.70101,-10.5 10.5,-10.5 5.79899,0 10.5,4.70101 10.5,10.5 z"
       sodipodi:ry="10.5"
       sodipodi:rx="10.5"
       sodipodi:cy="199.86218"
       sodipodi:cx="102.5"
       id="path3755-7-6-4-0-3"
       style="fill:#2600c8;fill-opacity:1;stroke:none"
       sodipodi:type="arc" />
    <path
       transform="matrix(0.762737,0,0,0.762737,836.25225,-410.61945)"
       d="m 113,199.86218 c 0,5.79899 -4.70101,10.5 -10.5,10.5 -5.79899,0 -10.5,-4.70101 -10.5,-10.5 0,-5.79899 4.70101,-10.5 10.5,-10.5 5.79899,0 10.5,4.70101 10.5,10.5 z"
       sodipodi:ry="10.5"
       sodipodi:rx="10.5"
       sodipodi:cy="199.86218"
       sodipodi:cx="102.5"
       id="path3755-7-6-4-0-5"
       style="fill:#2600c8;fill-opacity:1;stroke:none"
       sodipodi:type="arc" />
    <path
       transform="matrix(0.762737,0,0,0.762737,895.25225,-482.61945)"
       d="m 113,199.86218 c 0,5.79899 -4.70101,10.5 -10.5,10.5 -5.79899,0 -10.5,-4.70101 -10.5,-10.5 0,-5.79899 4.70101,-10.5 10.5,-10.5 5.79899,0 10.5,4.70101 10.5,10.5 z"
       sodipodi:ry="10.5"
       sodipodi:rx="10.5"
       sodipodi:cy="199.86218"
       sodipodi:cx="102.5"
       id="path3755-7-6-4-0-9"
       style="fill:#2600c8;fill-opacity:1;stroke:none"
       sodipodi:type="arc" />
    <path
       transform="matrix(0.762737,0,0,0.762737,822.25225,-494.61945)"
       d="m 113,199.86218 c 0,5.79899 -4.70101,10.5 -10.5,10.5 -5.79899,0 -10.5,-4.70101 -10.5,-10.5 0,-5.79899 4.70101,-10.5 10.5,-10.5 5.79899,0 10.5,4.70101 10.5,10.5 z"
       sodipodi:ry="10.5"
       sodipodi:rx="10.5"
       sodipodi:cy="199.86218"
       sodipodi:cx="102.5"
       id="path3755-7-6-4-0-7"
       style="fill:#2600c8;fill-opacity:1;stroke:none"
       sodipodi:type="arc" />
    <path
       transform="matrix(0.762737,0,0,0.762737,699.25225,-358.61945)"
       d="m 113,199.86218 c 0,5.79899 -4.70101,10.5 -10.5,10.5 -5.79899,0 -10.5,-4.70101 -10.5,-10.5 0,-5.79899 4.70101,-10.5 10.5,-10.5 5.79899,0 10.5,4.70101 10.5,10.5 z"
       sodipodi:ry="10.5"
       sodipodi:rx="10.5"
       sodipodi:cy="199.86218"
       sodipodi:cx="102.5"
       id="path3755-7-6-4-0-0"
       style="fill:#2600c8;fill-opacity:1;stroke:none"
       sodipodi:type="arc" />
    <path
       transform="matrix(0.762737,0,0,0.762737,817.25225,-342.61945)"
       d="m 113,199.86218 c 0,5.79899 -4.70101,10.5 -10.5,10.5 -5.79899,0 -10.5,-4.70101 -10.5,-10.5 0,-5.79899 4.70101,-10.5 10.5,-10.5 5.79899,0 10.5,4.70101 10.5,10.5 z"
       sodipodi:ry="10.5"
       sodipodi:rx="10.5"
       sodipodi:cy="199.86218"
       sodipodi:cx="102.5"
       id="path3755-7-6-4-0-6"
       style="fill:#2600c8;fill-opacity:1;stroke:none"
       sodipodi:type="arc" />
    <path
       transform="matrix(0.762737,0,0,0.762737,936.25225,-410.61945)"
       d="m 113,199.86218 c 0,5.79899 -4.70101,10.5 -10.5,10.5 -5.79899,0 -10.5,-4.70101 -10.5,-10.5 0,-5.79899 4.70101,-10.5 10.5,-10.5 5.79899,0 10.5,4.70101 10.5,10.5 z"
       sodipodi:ry="10.5"
       sodipodi:rx="10.5"
       sodipodi:cy="199.86218"
       sodipodi:cx="102.5"
       id="path3755-7-6-4-0-8"
       style="fill:#2600c8;fill-opacity:1;stroke:none"
       sodipodi:type="arc" />
    <path
       transform="matrix(0.762737,0,0,0.762737,988.25225,-452.61945)"
       d="m 113,199.86218 c 0,5.79899 -4.70101,10.5 -10.5,10.5 -5.79899,0 -10.5,-4.70101 -10.5,-10.5 0,-5.79899 4.70101,-10.5 10.5,-10.5 5.79899,0 10.5,4.70101 10.5,10.5 z"
       sodipodi:ry="10.5"
       sodipodi:rx="10.5"
       sodipodi:cy="199.86218"
       sodipodi:cx="102.5"
       id="path3755-7-6-4-0-8-6"
       style="fill:#2600c8;fill-opacity:1;stroke:none"
       sodipodi:type="arc" />
    <path
       inkscape:connector-curvature="0"
       inkscape:original-d="m 681.43279,-327.17716 114,-37"
       inkscape:path-effect="#path-effect5119"
       id="path5117"
       d="m 681.43279,-327.17716 114,-37"
       style="fill:none;stroke:#000000;stroke-width:1px;stroke-linecap:butt;stroke-linejoin:miter;stroke-opacity:1" />
    <path
       inkscape:connector-curvature="0"
       inkscape:original-d="m 674.43279,-314.17716 10,65"
       inkscape:path-effect="#path-effect5123"
       id="path5121"
       d="m 674.43279,-314.17716 10,65"
       style="fill:none;stroke:#000000;stroke-width:1px;stroke-linecap:butt;stroke-linejoin:miter;stroke-opacity:1" />
    <path
       inkscape:connector-curvature="0"
       inkscape:original-d="m 694.43279,-239.17716 75,32"
       inkscape:path-effect="#path-effect5127"
       id="path5125"
       d="m 694.43279,-239.17716 75,32"
       style="fill:none;stroke:#000000;stroke-width:1px;stroke-linecap:butt;stroke-linejoin:miter;stroke-opacity:1" />
    <path
       inkscape:connector-curvature="0"
       inkscape:original-d="m 779.43279,-215.17716 14,-56"
       inkscape:path-effect="#path-effect5131"
       id="path5129"
       d="m 779.43279,-215.17716 14,-56"
       style="fill:none;stroke:#000000;stroke-width:1px;stroke-linecap:butt;stroke-linejoin:miter;stroke-opacity:1" />
    <path
       inkscape:connector-curvature="0"
       inkscape:original-d="m 681.43279,-316.17716 105,35"
       inkscape:path-effect="#path-effect5135"
       id="path5133"
       d="m 681.43279,-316.17716 105,35"
       style="fill:none;stroke:#000000;stroke-width:1px;stroke-linecap:butt;stroke-linejoin:miter;stroke-opacity:1" />
    <path
       inkscape:connector-curvature="0"
       inkscape:original-d="m 808.43279,-358.17716 99,95"
       inkscape:path-effect="#path-effect5139"
       id="path5137"
       d="m 808.43279,-358.17716 99,95"
       style="fill:none;stroke:#000000;stroke-width:1px;stroke-linecap:butt;stroke-linejoin:miter;stroke-opacity:1" />
    <path
       inkscape:connector-curvature="0"
       inkscape:original-d="m 800.43279,-284.17716 92,-54"
       inkscape:path-effect="#path-effect5143"
       id="path5141"
       d="m 800.43279,-284.17716 92,-54"
       style="fill:none;stroke:#000000;stroke-width:1px;stroke-linecap:butt;stroke-linejoin:miter;stroke-opacity:1" />
    <path
       inkscape:connector-curvature="0"
       inkscape:original-d="m 801.43279,-274.17716 88,78"
       inkscape:path-effect="#path-effect5147"
       id="path5145"
       d="m 801.43279,-274.17716 88,78"
       style="fill:none;stroke:#000000;stroke-width:1px;stroke-linecap:butt;stroke-linejoin:miter;stroke-opacity:1" />
    <path
       inkscape:connector-curvature="0"
       inkscape:original-d="m 897.43279,-198.17716 13,-52"
       inkscape:path-effect="#path-effect5151"
       id="path5149"
       d="m 897.43279,-198.17716 13,-52"
       style="fill:none;stroke:#000000;stroke-width:1px;stroke-linecap:butt;stroke-linejoin:miter;stroke-opacity:1" />
    <path
       inkscape:connector-curvature="0"
       inkscape:original-d="m 922.43279,-262.17716 136.00001,-35"
       inkscape:path-effect="#path-effect5155"
       id="path5153"
       d="m 922.43279,-262.17716 136.00001,-35"
       style="fill:none;stroke:#000000;stroke-width:1px;stroke-linecap:butt;stroke-linejoin:miter;stroke-opacity:1" />
    <path
       inkscape:connector-curvature="0"
       inkscape:original-d="m 1060.4328,-293.17716 -40,27"
       inkscape:path-effect="#path-effect5159"
       id="path5157"
       d="m 1060.4328,-293.17716 -40,27"
       style="fill:none;stroke:#000000;stroke-width:1px;stroke-linecap:butt;stroke-linejoin:miter;stroke-opacity:1" />
    <path
       inkscape:connector-curvature="0"
       inkscape:original-d="m 1010.4328,-266.17716 -34.00001,-56"
       inkscape:path-effect="#path-effect5163"
       id="path5161"
       d="m 1010.4328,-266.17716 -34.00001,-56"
       style="fill:none;stroke:#000000;stroke-width:1px;stroke-linecap:butt;stroke-linejoin:miter;stroke-opacity:1" />
    <path
       inkscape:connector-curvature="0"
       inkscape:original-d="m 908.43279,-342.17716 55,10"
       inkscape:path-effect="#path-effect5167"
       id="path5165"
       d="m 908.43279,-342.17716 55,10"
       style="fill:none;stroke:#000000;stroke-width:1px;stroke-linecap:butt;stroke-linejoin:miter;stroke-opacity:1" />
    <path
       inkscape:connector-curvature="0"
       inkscape:original-d="m 917.43279,-268.17716 48,-56"
       inkscape:path-effect="#path-effect5171"
       id="path5169"
       d="m 917.43279,-268.17716 48,-56"
       style="fill:none;stroke:#000000;stroke-width:1px;stroke-linecap:butt;stroke-linejoin:miter;stroke-opacity:1" />
    <path
       sodipodi:type="arc"
       style="fill:none;stroke:#000000;stroke-width:2.0999999;stroke-miterlimit:4;stroke-opacity:1;stroke-dasharray:none"
       id="path2985-1"
       sodipodi:cx="419.5"
       sodipodi:cy="575.86218"
       sodipodi:rx="229.5"
       sodipodi:ry="229.5"
       d="m 649,575.86218 c 0,126.74935 -102.75065,229.5 -229.5,229.5 -126.74935,0 -229.5,-102.75065 -229.5,-229.5 0,-126.74935 102.75065,-229.5 229.5,-229.5 126.74935,0 229.5,102.75065 229.5,229.5 z"
       transform="matrix(0.762737,0,0,0.762737,76.012481,-732.23258)" />
    <path
       sodipodi:type="arc"
       style="fill:#2600c8;fill-opacity:1;stroke:none"
       id="path3755-1"
       sodipodi:cx="102.5"
       sodipodi:cy="199.86218"
       sodipodi:rx="10.5"
       sodipodi:ry="10.5"
       d="m 113,199.86218 c 0,5.79899 -4.70101,10.5 -10.5,10.5 -5.79899,0 -10.5,-4.70101 -10.5,-10.5 0,-5.79899 4.70101,-10.5 10.5,-10.5 5.79899,0 10.5,4.70101 10.5,10.5 z"
       transform="matrix(0.762737,0,0,0.762737,317.80013,-621.63571)" />
    <path
       sodipodi:type="arc"
       style="fill:#2600c8;fill-opacity:1;stroke:none"
       id="path3755-7-5-4"
       sodipodi:cx="102.5"
       sodipodi:cy="199.86218"
       sodipodi:rx="10.5"
       sodipodi:ry="10.5"
       d="m 113,199.86218 c 0,5.79899 -4.70101,10.5 -10.5,10.5 -5.79899,0 -10.5,-4.70101 -10.5,-10.5 0,-5.79899 4.70101,-10.5 10.5,-10.5 5.79899,0 10.5,4.70101 10.5,10.5 z"
       transform="matrix(0.762737,0,0,0.762737,459.28779,-548.03158)" />
    <path
       sodipodi:type="arc"
       style="fill:#2600c8;fill-opacity:1;stroke:none"
       id="path3755-7-6-21"
       sodipodi:cx="102.5"
       sodipodi:cy="199.86218"
       sodipodi:rx="10.5"
       sodipodi:ry="10.5"
       d="m 113,199.86218 c 0,5.79899 -4.70101,10.5 -10.5,10.5 -5.79899,0 -10.5,-4.70101 -10.5,-10.5 0,-5.79899 4.70101,-10.5 10.5,-10.5 5.79899,0 10.5,4.70101 10.5,10.5 z"
       transform="matrix(0.762737,0,0,0.762737,489.79729,-476.33432)" />
    <path
       sodipodi:type="arc"
       style="fill:#2600c8;fill-opacity:1;stroke:none"
       id="path3755-7-6-0-9"
       sodipodi:cx="102.5"
       sodipodi:cy="199.86218"
       sodipodi:rx="10.5"
       sodipodi:ry="10.5"
       d="m 113,199.86218 c 0,5.79899 -4.70101,10.5 -10.5,10.5 -5.79899,0 -10.5,-4.70101 -10.5,-10.5 0,-5.79899 4.70101,-10.5 10.5,-10.5 5.79899,0 10.5,4.70101 10.5,10.5 z"
       transform="matrix(0.762737,0,0,0.762737,476.83079,-373.36481)"
       inkscape:transform-center-x="-8.0087399"
       inkscape:transform-center-y="-91.528436" />
    <path
       sodipodi:type="arc"
       style="fill:#2600c8;fill-opacity:1;stroke:none"
       id="path3755-7-6-3-2"
       sodipodi:cx="102.5"
       sodipodi:cy="199.86218"
       sodipodi:rx="10.5"
       sodipodi:ry="10.5"
       d="m 113,199.86218 c 0,5.79899 -4.70101,10.5 -10.5,10.5 -5.79899,0 -10.5,-4.70101 -10.5,-10.5 0,-5.79899 4.70101,-10.5 10.5,-10.5 5.79899,0 10.5,4.70101 10.5,10.5 z"
       transform="matrix(0.762737,0,0,0.762737,402.08259,-290.98922)" />
    <path
       sodipodi:type="arc"
       style="fill:#2600c8;fill-opacity:1;stroke:none"
       id="path3755-7-6-4-0-55"
       sodipodi:cx="102.5"
       sodipodi:cy="199.86218"
       sodipodi:rx="10.5"
       sodipodi:ry="10.5"
       d="m 113,199.86218 c 0,5.79899 -4.70101,10.5 -10.5,10.5 -5.79899,0 -10.5,-4.70101 -10.5,-10.5 0,-5.79899 4.70101,-10.5 10.5,-10.5 5.79899,0 10.5,4.70101 10.5,10.5 z"
       transform="matrix(0.762737,0,0,0.762737,221.31389,-301.66753)" />
    <path
       sodipodi:type="arc"
       style="fill:#2600c8;fill-opacity:1;stroke:none"
       id="path3755-7-6-2-3"
       sodipodi:cx="102.5"
       sodipodi:cy="199.86218"
       sodipodi:rx="10.5"
       sodipodi:ry="10.5"
       d="m 113,199.86218 c 0,5.79899 -4.70101,10.5 -10.5,10.5 -5.79899,0 -10.5,-4.70101 -10.5,-10.5 0,-5.79899 4.70101,-10.5 10.5,-10.5 5.79899,0 10.5,4.70101 10.5,10.5 z"
       transform="matrix(0.762737,0,0,0.762737,145.0402,-410.73894)" />
    <path
       sodipodi:type="arc"
       style="fill:#2600c8;fill-opacity:1;stroke:none"
       id="path3755-7-6-1-8"
       sodipodi:cx="102.5"
       sodipodi:cy="199.86218"
       sodipodi:rx="10.5"
       sodipodi:ry="10.5"
       d="m 113,199.86218 c 0,5.79899 -4.70101,10.5 -10.5,10.5 -5.79899,0 -10.5,-4.70101 -10.5,-10.5 0,-5.79899 4.70101,-10.5 10.5,-10.5 5.79899,0 10.5,4.70101 10.5,10.5 z"
       transform="matrix(0.762737,0,0,0.762737,227.41578,-595.32128)" />
    <path
       transform="matrix(0.762737,0,0,0.762737,163.41876,-527.61945)"
       d="m 113,199.86218 c 0,5.79899 -4.70101,10.5 -10.5,10.5 -5.79899,0 -10.5,-4.70101 -10.5,-10.5 0,-5.79899 4.70101,-10.5 10.5,-10.5 5.79899,0 10.5,4.70101 10.5,10.5 z"
       sodipodi:ry="10.5"
       sodipodi:rx="10.5"
       sodipodi:cy="199.86218"
       sodipodi:cx="102.5"
       id="path3755-7-6-4-0-8-6-5-1"
       style="fill:#2600c8;fill-opacity:1;stroke:none"
       sodipodi:type="arc" />
    <path
       transform="matrix(0.762737,0,0,0.762737,411.41879,-592.61945)"
       d="m 113,199.86218 c 0,5.79899 -4.70101,10.5 -10.5,10.5 -5.79899,0 -10.5,-4.70101 -10.5,-10.5 0,-5.79899 4.70101,-10.5 10.5,-10.5 5.79899,0 10.5,4.70101 10.5,10.5 z"
       sodipodi:ry="10.5"
       sodipodi:rx="10.5"
       sodipodi:cy="199.86218"
       sodipodi:cx="102.5"
       id="path3755-7-6-4-0-8-6-5-0"
       style="fill:#2600c8;fill-opacity:1;stroke:none"
       sodipodi:type="arc" />
    <path
       transform="matrix(0.762737,0,0,0.762737,351.41875,-274.61945)"
       d="m 113,199.86218 c 0,5.79899 -4.70101,10.5 -10.5,10.5 -5.79899,0 -10.5,-4.70101 -10.5,-10.5 0,-5.79899 4.70101,-10.5 10.5,-10.5 5.79899,0 10.5,4.70101 10.5,10.5 z"
       sodipodi:ry="10.5"
       sodipodi:rx="10.5"
       sodipodi:cy="199.86218"
       sodipodi:cx="102.5"
       id="path3755-7-6-4-0-8-6-5-6"
       style="fill:#2600c8;fill-opacity:1;stroke:none"
       sodipodi:type="arc" />
    <text
       xml:space="preserve"
       style="font-size:20px;font-style:normal;font-weight:normal;line-height:125%;letter-spacing:0px;word-spacing:0px;fill:#000000;fill-opacity:1;stroke:none;font-family:Sans"
       x="387.5993"
       y="-489.04718"
       id="text6663"
       sodipodi:linespacing="125%"><tspan
         sodipodi:role="line"
         id="tspan6665"
         x="387.5993"
         y="-489.04718">x<tspan
   style="font-size:65.00091553%;baseline-shift:sub"
   id="tspan6667">1</tspan></tspan></text>
    <text
       xml:space="preserve"
       style="font-size:20px;font-style:normal;font-weight:normal;line-height:125%;letter-spacing:0px;word-spacing:0px;fill:#000000;fill-opacity:1;stroke:none;font-family:Sans"
       x="498.59937"
       y="-455.17719"
       id="text6669"
       sodipodi:linespacing="125%"><tspan
         sodipodi:role="line"
         id="tspan6671"
         x="498.59937"
         y="-455.17719">x<tspan
   style="font-size:65.00091553%;baseline-shift:sub"
   id="tspan6673">2</tspan></tspan></text>
    <text
       xml:space="preserve"
       style="font-size:20px;font-style:normal;font-weight:normal;line-height:125%;letter-spacing:0px;word-spacing:0px;fill:#000000;fill-opacity:1;stroke:none;font-family:Sans"
       x="552.59937"
       y="-402.17712"
       id="text6675"
       sodipodi:linespacing="125%"><tspan
         sodipodi:role="line"
         id="tspan6677"
         x="552.59937"
         y="-402.17712">x<tspan
   style="font-size:65.00091553%;baseline-shift:sub"
   id="tspan6679">3</tspan></tspan></text>
    <text
       xml:space="preserve"
       style="font-size:20px;font-style:normal;font-weight:normal;line-height:125%;letter-spacing:0px;word-spacing:0px;fill:#000000;fill-opacity:1;stroke:none;font-family:Sans"
       x="580.59937"
       y="-324.17715"
       id="text6681"
       sodipodi:linespacing="125%"><tspan
         sodipodi:role="line"
         id="tspan6683"
         x="580.59937"
         y="-324.17715">x<tspan
   style="font-size:65.00091553%;baseline-shift:sub"
   id="tspan6685">4</tspan></tspan></text>
    <text
       xml:space="preserve"
       style="font-size:20px;font-style:normal;font-weight:normal;line-height:125%;letter-spacing:0px;word-spacing:0px;fill:#000000;fill-opacity:1;stroke:none;font-family:Sans"
       x="569.59937"
       y="-210.17715"
       id="text6687"
       sodipodi:linespacing="125%"><tspan
         sodipodi:role="line"
         id="tspan6689"
         x="569.59937"
         y="-210.17715">x<tspan
   style="font-size:65.00091553%;baseline-shift:sub"
   id="tspan6691">5</tspan></tspan></text>
    <text
       xml:space="preserve"
       style="font-size:20px;font-style:normal;font-weight:normal;line-height:125%;letter-spacing:0px;word-spacing:0px;fill:#000000;fill-opacity:1;stroke:none;font-family:Sans"
       x="490.59937"
       y="-119.17715"
       id="text6693"
       sodipodi:linespacing="125%"><tspan
         sodipodi:role="line"
         id="tspan6695"
         x="490.59937"
         y="-119.17715">x<tspan
   style="font-size:65.00091553%;baseline-shift:sub"
   id="tspan6697">6</tspan></tspan></text>
    <text
       xml:space="preserve"
       style="font-size:20px;font-style:normal;font-weight:normal;line-height:125%;letter-spacing:0px;word-spacing:0px;fill:#000000;fill-opacity:1;stroke:none;font-family:Sans"
       x="431.59937"
       y="-97.177124"
       id="text6699"
       sodipodi:linespacing="125%"><tspan
         sodipodi:role="line"
         id="tspan6701"
         x="431.59937"
         y="-97.177124">x<tspan
   style="font-size:65.00091553%;baseline-shift:sub"
   id="tspan6703">7</tspan></tspan></text>
    <text
       xml:space="preserve"
       style="font-size:20px;font-style:normal;font-weight:normal;line-height:125%;letter-spacing:0px;word-spacing:0px;fill:#000000;fill-opacity:1;stroke:none;font-family:Sans"
       x="277.5993"
       y="-123.17715"
       id="text6705"
       sodipodi:linespacing="125%"><tspan
         sodipodi:role="line"
         id="tspan6707"
         x="277.5993"
         y="-123.17715">x<tspan
   style="font-size:65.00091553%;baseline-shift:sub"
   id="tspan6709">8</tspan></tspan></text>
    <text
       xml:space="preserve"
       style="font-size:20px;font-style:normal;font-weight:normal;line-height:125%;letter-spacing:0px;word-spacing:0px;fill:#000000;fill-opacity:1;stroke:none;font-family:Sans"
       x="189.5993"
       y="-246.17715"
       id="text6711"
       sodipodi:linespacing="125%"><tspan
         sodipodi:role="line"
         id="tspan6713"
         x="189.5993"
         y="-246.17715">x<tspan
   style="font-size:65.00091553%;baseline-shift:sub"
   id="tspan6715">9</tspan></tspan></text>
    <text
       xml:space="preserve"
       style="font-size:20px;font-style:normal;font-weight:normal;line-height:125%;letter-spacing:0px;word-spacing:0px;fill:#000000;fill-opacity:1;stroke:none;font-family:Sans"
       x="199.5993"
       y="-387.17712"
       id="text6717"
       sodipodi:linespacing="125%"><tspan
         sodipodi:role="line"
         id="tspan6719"
         x="199.5993"
         y="-387.17712">x<tspan
   style="font-size:65.00091553%;baseline-shift:sub"
   id="tspan6721">10</tspan></tspan></text>
    <text
       xml:space="preserve"
       style="font-size:20px;font-style:normal;font-weight:normal;line-height:125%;letter-spacing:0px;word-spacing:0px;fill:#000000;fill-opacity:1;stroke:none;font-family:Sans"
       x="278.5993"
       y="-462.17712"
       id="text6723"
       sodipodi:linespacing="125%"><tspan
         sodipodi:role="line"
         id="tspan6725"
         x="278.5993"
         y="-462.17712">x<tspan
   style="font-size:65.00091553%;baseline-shift:sub"
   id="tspan6727">11</tspan></tspan></text>
    <text
       xml:space="preserve"
       style="font-size:20px;font-style:normal;font-weight:normal;line-height:125%;letter-spacing:0px;word-spacing:0px;fill:#000000;fill-opacity:1;stroke:none;font-family:Sans"
       x="797.69104"
       y="-384.70844"
       id="text6663-6"
       sodipodi:linespacing="125%"><tspan
         sodipodi:role="line"
         id="tspan6665-3"
         x="797.69104"
         y="-384.70844">x<tspan
   style="font-size:65.00091553%;baseline-shift:sub"
   id="tspan6667-8">1</tspan></tspan></text>
    <text
       xml:space="preserve"
       style="font-size:20px;font-style:normal;font-weight:normal;line-height:125%;letter-spacing:0px;word-spacing:0px;fill:#000000;fill-opacity:1;stroke:none;font-family:Sans"
       x="900.74182"
       y="-277.70844"
       id="text6669-5"
       sodipodi:linespacing="125%"><tspan
         sodipodi:role="line"
         id="tspan6671-4"
         x="900.74182"
         y="-277.70844">x<tspan
   style="font-size:65.00091553%;baseline-shift:sub"
   id="tspan6673-0">2</tspan></tspan></text>
    <text
       xml:space="preserve"
       style="font-size:20px;font-style:normal;font-weight:normal;line-height:125%;letter-spacing:0px;word-spacing:0px;fill:#000000;fill-opacity:1;stroke:none;font-family:Sans"
       x="769.61169"
       y="-181.80048"
       id="text6675-1"
       sodipodi:linespacing="125%"><tspan
         sodipodi:role="line"
         id="tspan6677-8"
         x="769.61169"
         y="-181.80048">x<tspan
   style="font-size:65.00091553%;baseline-shift:sub"
   id="tspan6679-6">3</tspan></tspan></text>
    <text
       xml:space="preserve"
       style="font-size:20px;font-style:normal;font-weight:normal;line-height:125%;letter-spacing:0px;word-spacing:0px;fill:#000000;fill-opacity:1;stroke:none;font-family:Sans"
       x="1081.4562"
       y="-306.7084"
       id="text6681-6"
       sodipodi:linespacing="125%"><tspan
         sodipodi:role="line"
         id="tspan6683-9"
         x="1081.4562"
         y="-306.7084">x<tspan
   style="font-size:65.00091553%;baseline-shift:sub"
   id="tspan6685-7">4</tspan></tspan></text>
    <text
       xml:space="preserve"
       style="font-size:20px;font-style:normal;font-weight:normal;line-height:125%;letter-spacing:0px;word-spacing:0px;fill:#000000;fill-opacity:1;stroke:none;font-family:Sans"
       x="978.6593"
       y="-343.80045"
       id="text6687-9"
       sodipodi:linespacing="125%"><tspan
         sodipodi:role="line"
         id="tspan6689-3"
         x="978.6593"
         y="-343.80045">x<tspan
   style="font-size:65.00091553%;baseline-shift:sub"
   id="tspan6691-6">5</tspan></tspan></text>
    <text
       xml:space="preserve"
       style="font-size:20px;font-style:normal;font-weight:normal;line-height:125%;letter-spacing:0px;word-spacing:0px;fill:#000000;fill-opacity:1;stroke:none;font-family:Sans"
       x="890.50061"
       y="-357.80045"
       id="text6693-8"
       sodipodi:linespacing="125%"><tspan
         sodipodi:role="line"
         id="tspan6695-4"
         x="890.50061"
         y="-357.80045">x<tspan
   style="font-size:65.00091553%;baseline-shift:sub"
   id="tspan6697-9">6</tspan></tspan></text>
    <text
       xml:space="preserve"
       style="font-size:20px;font-style:normal;font-weight:normal;line-height:125%;letter-spacing:0px;word-spacing:0px;fill:#000000;fill-opacity:1;stroke:none;font-family:Sans"
       x="783.64661"
       y="-298.7084"
       id="text6699-7"
       sodipodi:linespacing="125%"><tspan
         sodipodi:role="line"
         id="tspan6701-6"
         x="783.64661"
         y="-298.7084">x<tspan
   style="font-size:65.00091553%;baseline-shift:sub"
   id="tspan6703-0">7</tspan></tspan></text>
    <text
       xml:space="preserve"
       style="font-size:20px;font-style:normal;font-weight:normal;line-height:125%;letter-spacing:0px;word-spacing:0px;fill:#000000;fill-opacity:1;stroke:none;font-family:Sans"
       x="644.53552"
       y="-327.80045"
       id="text6705-5"
       sodipodi:linespacing="125%"><tspan
         sodipodi:role="line"
         id="tspan6707-8"
         x="644.53552"
         y="-327.80045">x<tspan
   style="font-size:65.00091553%;baseline-shift:sub"
   id="tspan6709-7">8</tspan></tspan></text>
    <text
       xml:space="preserve"
       style="font-size:20px;font-style:normal;font-weight:normal;line-height:125%;letter-spacing:0px;word-spacing:0px;fill:#000000;fill-opacity:1;stroke:none;font-family:Sans"
       x="1004.5482"
       y="-234.80045"
       id="text6711-5"
       sodipodi:linespacing="125%"><tspan
         sodipodi:role="line"
         id="tspan6713-5"
         x="1004.5482"
         y="-234.80045">x<tspan
   style="font-size:65.00091553%;baseline-shift:sub"
   id="tspan6715-2">9</tspan></tspan></text>
    <text
       xml:space="preserve"
       style="font-size:20px;font-style:normal;font-weight:normal;line-height:125%;letter-spacing:0px;word-spacing:0px;fill:#000000;fill-opacity:1;stroke:none;font-family:Sans"
       x="658.38409"
       y="-221.80048"
       id="text6717-0"
       sodipodi:linespacing="125%"><tspan
         sodipodi:role="line"
         id="tspan6719-6"
         x="658.38409"
         y="-221.80048">x<tspan
   style="font-size:65.00091553%;baseline-shift:sub"
   id="tspan6721-4">10</tspan></tspan></text>
    <text
       xml:space="preserve"
       style="font-size:20px;font-style:normal;font-weight:normal;line-height:125%;letter-spacing:0px;word-spacing:0px;fill:#000000;fill-opacity:1;stroke:none;font-family:Sans"
       x="883.55231"
       y="-166.70844"
       id="text6723-9"
       sodipodi:linespacing="125%"><tspan
         sodipodi:role="line"
         id="tspan6725-2"
         x="883.55231"
         y="-166.70844">x<tspan
   style="font-size:65.00091553%;baseline-shift:sub"
   id="tspan6727-9">11</tspan></tspan></text>
  </g>
</svg>
