<?xml version="1.0" encoding="UTF-8" standalone="no"?>
<!-- Created with Inkscape (http://www.inkscape.org/) -->

<svg
   xmlns:dc="http://purl.org/dc/elements/1.1/"
   xmlns:cc="http://creativecommons.org/ns#"
   xmlns:rdf="http://www.w3.org/1999/02/22-rdf-syntax-ns#"
   xmlns:svg="http://www.w3.org/2000/svg"
   xmlns="http://www.w3.org/2000/svg"
   xmlns:sodipodi="http://sodipodi.sourceforge.net/DTD/sodipodi-0.dtd"
   xmlns:inkscape="http://www.inkscape.org/namespaces/inkscape"
   width="401.34766"
   height="264.375"
   id="svg2"
   version="1.1"
   inkscape:version="0.48.4 r9939"
   sodipodi:docname="path_x_to_y.svg">
  <defs
     id="defs4" />
  <sodipodi:namedview
     id="base"
     pagecolor="#ffffff"
     bordercolor="#666666"
     borderopacity="1.0"
     inkscape:pageopacity="0.0"
     inkscape:pageshadow="2"
     inkscape:zoom="1"
     inkscape:cx="285.84766"
     inkscape:cy="35.5"
     inkscape:document-units="px"
     inkscape:current-layer="layer1"
     showgrid="false"
     inkscape:window-width="990"
     inkscape:window-height="719"
     inkscape:window-x="607"
     inkscape:window-y="101"
     inkscape:window-maximized="0"
     fit-margin-top="5"
     fit-margin-right="5"
     fit-margin-bottom="5"
     fit-margin-left="5" />
  <metadata
     id="metadata7">
    <rdf:RDF>
      <cc:Work
         rdf:about="">
        <dc:format>image/svg+xml</dc:format>
        <dc:type
           rdf:resource="http://purl.org/dc/dcmitype/StillImage" />
        <dc:title></dc:title>
      </cc:Work>
    </rdf:RDF>
  </metadata>
  <g
     inkscape:label="Layer 1"
     inkscape:groupmode="layer"
     id="layer1"
     transform="translate(-89.152344,-303.48718)">
    <path
       sodipodi:type="arc"
       style="fill:#0070aa;fill-opacity:1;stroke:none"
       id="path2985"
       sodipodi:cx="149.5"
       sodipodi:cy="404.86218"
       sodipodi:rx="10.5"
       sodipodi:ry="10.5"
       d="m 160,404.86218 c 0,5.79899 -4.70101,10.5 -10.5,10.5 -5.79899,0 -10.5,-4.70101 -10.5,-10.5 0,-5.79899 4.70101,-10.5 10.5,-10.5 5.79899,0 10.5,4.70101 10.5,10.5 z" />
    <path
       transform="translate(99.5,40.5)"
       sodipodi:type="arc"
       style="fill:#0070aa;fill-opacity:1;stroke:none"
       id="path2985-7"
       sodipodi:cx="149.5"
       sodipodi:cy="404.86218"
       sodipodi:rx="10.5"
       sodipodi:ry="10.5"
       d="m 160,404.86218 c 0,5.79899 -4.70101,10.5 -10.5,10.5 -5.79899,0 -10.5,-4.70101 -10.5,-10.5 0,-5.79899 4.70101,-10.5 10.5,-10.5 5.79899,0 10.5,4.70101 10.5,10.5 z" />
    <path
       transform="translate(113.5,-40.5)"
       sodipodi:type="arc"
       style="fill:#0070aa;fill-opacity:1;stroke:none"
       id="path2985-7-6"
       sodipodi:cx="149.5"
       sodipodi:cy="404.86218"
       sodipodi:rx="10.5"
       sodipodi:ry="10.5"
       d="m 160,404.86218 c 0,5.79899 -4.70101,10.5 -10.5,10.5 -5.79899,0 -10.5,-4.70101 -10.5,-10.5 0,-5.79899 4.70101,-10.5 10.5,-10.5 5.79899,0 10.5,4.70101 10.5,10.5 z" />
    <path
       transform="translate(298.5,79.5)"
       sodipodi:type="arc"
       style="fill:#0070aa;fill-opacity:1;stroke:none"
       id="path2985-7-9"
       sodipodi:cx="149.5"
       sodipodi:cy="404.86218"
       sodipodi:rx="10.5"
       sodipodi:ry="10.5"
       d="m 160,404.86218 c 0,5.79899 -4.70101,10.5 -10.5,10.5 -5.79899,0 -10.5,-4.70101 -10.5,-10.5 0,-5.79899 4.70101,-10.5 10.5,-10.5 5.79899,0 10.5,4.70101 10.5,10.5 z" />
    <path
       transform="translate(98.5,134.5)"
       sodipodi:type="arc"
       style="fill:#0070aa;fill-opacity:1;stroke:none"
       id="path2985-7-1"
       sodipodi:cx="149.5"
       sodipodi:cy="404.86218"
       sodipodi:rx="10.5"
       sodipodi:ry="10.5"
       d="m 160,404.86218 c 0,5.79899 -4.70101,10.5 -10.5,10.5 -5.79899,0 -10.5,-4.70101 -10.5,-10.5 0,-5.79899 4.70101,-10.5 10.5,-10.5 5.79899,0 10.5,4.70101 10.5,10.5 z" />
    <path
       transform="translate(239.5,-7.5)"
       sodipodi:type="arc"
       style="fill:#0070aa;fill-opacity:1;stroke:none"
       id="path2985-7-2"
       sodipodi:cx="149.5"
       sodipodi:cy="404.86218"
       sodipodi:rx="10.5"
       sodipodi:ry="10.5"
       d="m 160,404.86218 c 0,5.79899 -4.70101,10.5 -10.5,10.5 -5.79899,0 -10.5,-4.70101 -10.5,-10.5 0,-5.79899 4.70101,-10.5 10.5,-10.5 5.79899,0 10.5,4.70101 10.5,10.5 z" />
    <path
       transform="translate(-14.5,121.5)"
       sodipodi:type="arc"
       style="fill:#0070aa;fill-opacity:1;stroke:none"
       id="path2985-7-17"
       sodipodi:cx="149.5"
       sodipodi:cy="404.86218"
       sodipodi:rx="10.5"
       sodipodi:ry="10.5"
       d="m 160,404.86218 c 0,5.79899 -4.70101,10.5 -10.5,10.5 -5.79899,0 -10.5,-4.70101 -10.5,-10.5 0,-5.79899 4.70101,-10.5 10.5,-10.5 5.79899,0 10.5,4.70101 10.5,10.5 z" />
    <path
       transform="translate(325.5,6.5)"
       sodipodi:type="arc"
       style="fill:#0070aa;fill-opacity:1;stroke:none"
       id="path2985-7-25"
       sodipodi:cx="149.5"
       sodipodi:cy="404.86218"
       sodipodi:rx="10.5"
       sodipodi:ry="10.5"
       d="m 160,404.86218 c 0,5.79899 -4.70101,10.5 -10.5,10.5 -5.79899,0 -10.5,-4.70101 -10.5,-10.5 0,-5.79899 4.70101,-10.5 10.5,-10.5 5.79899,0 10.5,4.70101 10.5,10.5 z" />
    <path
       transform="translate(286.5,-70.5)"
       sodipodi:type="arc"
       style="fill:#0070aa;fill-opacity:1;stroke:none"
       id="path2985-7-92"
       sodipodi:cx="149.5"
       sodipodi:cy="404.86218"
       sodipodi:rx="10.5"
       sodipodi:ry="10.5"
       d="m 160,404.86218 c 0,5.79899 -4.70101,10.5 -10.5,10.5 -5.79899,0 -10.5,-4.70101 -10.5,-10.5 0,-5.79899 4.70101,-10.5 10.5,-10.5 5.79899,0 10.5,4.70101 10.5,10.5 z" />
    <path
       transform="translate(253.5,147.5)"
       sodipodi:type="arc"
       style="fill:#0070aa;fill-opacity:1;stroke:none"
       id="path2985-7-22"
       sodipodi:cx="149.5"
       sodipodi:cy="404.86218"
       sodipodi:rx="10.5"
       sodipodi:ry="10.5"
       d="m 160,404.86218 c 0,5.79899 -4.70101,10.5 -10.5,10.5 -5.79899,0 -10.5,-4.70101 -10.5,-10.5 0,-5.79899 4.70101,-10.5 10.5,-10.5 5.79899,0 10.5,4.70101 10.5,10.5 z" />
    <path
       style="fill:none;stroke:#000000;stroke-width:1px;stroke-linecap:butt;stroke-linejoin:miter;stroke-opacity:1"
       d="m 146,528.36218 90,10"
       id="path3842"
       inkscape:connector-curvature="0" />
    <path
       style="fill:none;stroke:#5a9f6b;stroke-width:2.29999995;stroke-linecap:butt;stroke-linejoin:miter;stroke-miterlimit:4;stroke-opacity:1;stroke-dasharray:none"
       d="m 140,515.36218 100,-62"
       id="path3844"
       inkscape:connector-curvature="0" />
    <path
       style="fill:none;stroke:#000000;stroke-width:1px;stroke-linecap:butt;stroke-linejoin:miter;stroke-opacity:1"
       d="m 134,513.36218 14,-99"
       id="path3846"
       inkscape:connector-curvature="0" />
    <path
       style="fill:none;stroke:#000000;stroke-width:1px;stroke-linecap:butt;stroke-linejoin:miter;stroke-opacity:1"
       d="m 249,435.36218 14,-60"
       id="path3848"
       inkscape:connector-curvature="0" />
    <path
       style="fill:none;stroke:#5a9f6b;stroke-width:2.29999995;stroke-linecap:butt;stroke-linejoin:miter;stroke-miterlimit:4;stroke-opacity:1;stroke-dasharray:none"
       d="m 256,443.36218 180,35"
       id="path3850"
       inkscape:connector-curvature="0" />
    <path
       style="fill:none;stroke:#000000;stroke-width:1px;stroke-linecap:butt;stroke-linejoin:miter;stroke-opacity:1"
       d="m 443,496.36218 -32,50"
       id="path3852"
       inkscape:connector-curvature="0" />
    <path
       style="fill:none;stroke:#000000;stroke-width:1px;stroke-linecap:butt;stroke-linejoin:miter;stroke-opacity:1"
       d="m 391,550.36218 -133,-10"
       id="path3854"
       inkscape:connector-curvature="0" />
    <path
       style="fill:none;stroke:#5a9f6b;stroke-width:2.29999995;stroke-linecap:butt;stroke-linejoin:miter;stroke-miterlimit:4;stroke-opacity:1;stroke-dasharray:none"
       d="m 446,473.36218 -10,-130"
       id="path3856"
       inkscape:connector-curvature="0" />
    <path
       style="fill:none;stroke:#000000;stroke-width:1px;stroke-linecap:butt;stroke-linejoin:miter;stroke-opacity:1"
       d="m 395,385.36218 35,-42"
       id="path3858"
       inkscape:connector-curvature="0" />
    <path
       style="fill:none;stroke:#000000;stroke-width:1px;stroke-linecap:butt;stroke-linejoin:miter;stroke-opacity:1"
       d="m 275,366.36218 103,30"
       id="path3860"
       inkscape:connector-curvature="0" />
    <path
       style="fill:none;stroke:#000000;stroke-width:1px;stroke-linecap:butt;stroke-linejoin:miter;stroke-opacity:1"
       d="m 466,417.36218 -206,22"
       id="path3862"
       inkscape:connector-curvature="0" />
    <path
       style="fill:none;stroke:#000000;stroke-width:1px;stroke-linecap:butt;stroke-linejoin:miter;stroke-opacity:1"
       d="m 469,421.36218 -212,111"
       id="path3866"
       inkscape:connector-curvature="0" />
    <text
       xml:space="preserve"
       style="font-size:40px;font-style:normal;font-weight:normal;line-height:125%;letter-spacing:0px;word-spacing:0px;fill:#000000;fill-opacity:1;stroke:none;font-family:Sans"
       x="93"
       y="555.36218"
       id="text3868"
       sodipodi:linespacing="125%"><tspan
         sodipodi:role="line"
         id="tspan3870"
         x="93"
         y="555.36218">x</tspan></text>
    <text
       xml:space="preserve"
       style="font-size:40px;font-style:normal;font-weight:normal;line-height:125%;letter-spacing:0px;word-spacing:0px;fill:#000000;fill-opacity:1;stroke:none;font-family:Sans"
       x="454"
       y="330.36218"
       id="text3872"
       sodipodi:linespacing="125%"><tspan
         sodipodi:role="line"
         id="tspan3874"
         x="454"
         y="330.36218">y</tspan></text>
  </g>
</svg>
