<?xml version="1.0" encoding="UTF-8" standalone="no"?>
<!-- Created with Inkscape (http://www.inkscape.org/) -->

<svg
   xmlns:dc="http://purl.org/dc/elements/1.1/"
   xmlns:cc="http://creativecommons.org/ns#"
   xmlns:rdf="http://www.w3.org/1999/02/22-rdf-syntax-ns#"
   xmlns:svg="http://www.w3.org/2000/svg"
   xmlns="http://www.w3.org/2000/svg"
   xmlns:sodipodi="http://sodipodi.sourceforge.net/DTD/sodipodi-0.dtd"
   xmlns:inkscape="http://www.inkscape.org/namespaces/inkscape"
   width="432"
   height="361.90234"
   id="svg2"
   version="1.1"
   inkscape:version="0.48.4 r9939"
   sodipodi:docname="z_common_virtual_neighbour.svg">
  <defs
     id="defs4" />
  <sodipodi:namedview
     id="base"
     pagecolor="#ffffff"
     bordercolor="#666666"
     borderopacity="1.0"
     inkscape:pageopacity="0.0"
     inkscape:pageshadow="2"
     inkscape:zoom="1"
     inkscape:cx="267.34766"
     inkscape:cy="171"
     inkscape:document-units="px"
     inkscape:current-layer="layer1"
     showgrid="false"
     inkscape:window-width="990"
     inkscape:window-height="719"
     inkscape:window-x="654"
     inkscape:window-y="97"
     inkscape:window-maximized="0"
     fit-margin-top="5"
     fit-margin-right="5"
     fit-margin-bottom="5"
     fit-margin-left="5" />
  <metadata
     id="metadata7">
    <rdf:RDF>
      <cc:Work
         rdf:about="">
        <dc:format>image/svg+xml</dc:format>
        <dc:type
           rdf:resource="http://purl.org/dc/dcmitype/StillImage" />
        <dc:title></dc:title>
      </cc:Work>
    </rdf:RDF>
  </metadata>
  <g
     inkscape:label="Layer 1"
     inkscape:groupmode="layer"
     id="layer1"
     transform="translate(-107.65234,-181.45984)">
    <path
       sodipodi:type="arc"
       style="fill:#0070aa;fill-opacity:1;stroke:none"
       id="path2985"
       sodipodi:cx="149.5"
       sodipodi:cy="404.86218"
       sodipodi:rx="10.5"
       sodipodi:ry="10.5"
       d="m 160,404.86218 c 0,5.79899 -4.70101,10.5 -10.5,10.5 -5.79899,0 -10.5,-4.70101 -10.5,-10.5 0,-5.79899 4.70101,-10.5 10.5,-10.5 5.79899,0 10.5,4.70101 10.5,10.5 z"
       transform="translate(334,66)" />
    <path
       transform="translate(37.5,-178.5)"
       sodipodi:type="arc"
       style="fill:#0070aa;fill-opacity:1;stroke:none"
       id="path2985-7-17"
       sodipodi:cx="149.5"
       sodipodi:cy="404.86218"
       sodipodi:rx="10.5"
       sodipodi:ry="10.5"
       d="m 160,404.86218 c 0,5.79899 -4.70101,10.5 -10.5,10.5 -5.79899,0 -10.5,-4.70101 -10.5,-10.5 0,-5.79899 4.70101,-10.5 10.5,-10.5 5.79899,0 10.5,4.70101 10.5,10.5 z" />
    <path
       sodipodi:type="arc"
       style="fill:#0070aa;fill-opacity:1;stroke:none"
       id="path2985-7"
       sodipodi:cx="149.5"
       sodipodi:cy="404.86218"
       sodipodi:rx="10.5"
       sodipodi:ry="10.5"
       d="m 160,404.86218 c 0,5.79899 -4.70101,10.5 -10.5,10.5 -5.79899,0 -10.5,-4.70101 -10.5,-10.5 0,-5.79899 4.70101,-10.5 10.5,-10.5 5.79899,0 10.5,4.70101 10.5,10.5 z"
       transform="translate(195.65234,-76)" />
    <path
       transform="translate(162.65234,78.999997)"
       sodipodi:type="arc"
       style="fill:#0070aa;fill-opacity:1;stroke:none"
       id="path2985-7-6-1"
       sodipodi:cx="149.5"
       sodipodi:cy="404.86218"
       sodipodi:rx="10.5"
       sodipodi:ry="10.5"
       d="m 160,404.86218 c 0,5.79899 -4.70101,10.5 -10.5,10.5 -5.79899,0 -10.5,-4.70101 -10.5,-10.5 0,-5.79899 4.70101,-10.5 10.5,-10.5 5.79899,0 10.5,4.70101 10.5,10.5 z" />
    <path
       style="fill:none;stroke:#000000;stroke-width:1px;stroke-linecap:butt;stroke-linejoin:miter;stroke-opacity:1"
       d="m 108,66 c 4,0 8,0 12,0 0.66667,0 1.5286,-0.471405 2,0 0.4714,0.471405 0,1.333333 0,2 0,3.333333 0,6.666667 0,10 0,0.666667 -0.4714,1.528595 0,2 0.4714,0.471405 1.34628,-0.130744 2,0 1.03362,0.206725 2.09612,0.457674 3,1 0.80845,0.485071 1.33333,1.333333 2,2 0.33333,0.333333 0.57836,0.789181 1,1 0.8,0.4 2.2,-0.4 3,0 0.84327,0.421637 1.21554,1.477024 2,2 0.27735,0.1849 0.7643,-0.235702 1,0 0.52705,0.527046 0.81922,1.276898 1,2 0.19665,0.786617 0,4.960075 0,6 0,0.666667 -0.29814,1.403715 0,2 0.42164,0.843274 1.21554,1.477024 2,2 0.27735,0.1849 0.70186,-0.149071 1,0 1.07497,0.537484 1.88411,1.553644 3,2 0.61898,0.24759 1.33741,-0.07362 2,0 2.34261,0.26029 4.68335,0.56563 7,1 3.02054,0.56635 5.94561,1.66062 9,2 0.29826,0.0331 17.80006,-0.0333 18,0 1.1855,0.19758 1.92503,1.46252 3,2 0.5,0.25 3,-0.5 3,0 0,5.00694 -2.80474,0.20711 -4,2 -0.5547,0.83205 0,2 0,3 0,0.66667 0,1.33333 0,2 0,0.33333 -0.29814,0.85093 0,1 0.69699,0.3485 4.98343,-0.33886 6,0 0.70711,0.2357 1.2769,0.81922 2,1 1.29352,0.32338 2.80743,-0.59628 4,0 0.84327,0.42164 1.24575,1.43431 2,2 1.19257,0.89443 2.72173,1.23304 4,2 6.04095,3.62457 2.9457,3.54553 14,7 1.5908,0.49712 3.4092,-0.49712 5,0 3.84434,1.20136 7.19844,3.66945 11,5 2.90065,1.01523 6.03893,1.17748 9,2 3.04691,0.84636 5.88075,2.48012 9,3 24.64,4.10667 -1.16296,-4.08148 13,3 0.59628,0.29814 1.33333,0 2,0 0.33333,0 0.7643,-0.2357 1,0 0.2357,0.2357 0,0.66667 0,1 0,0.33333 0,0.66667 0,1 0,0.33333 0,0.66667 0,1 0,0.33333 0.29814,0.85093 0,1 -0.59628,0.29814 -1.5286,-0.4714 -2,0 -0.4714,0.4714 0.4714,1.5286 0,2 -0.24244,0.24244 -3.17887,-0.20528 -4,0 -4.18376,-1.81085 -1.15673,1.57836 -2,2 -0.8343,0.41715 -3.53439,-0.46561 -4,0 -0.4714,0.4714 0.4714,1.5286 0,2 -0.24063,0.24063 -3.75937,-0.24063 -4,0 -0.2357,0.2357 0,0.66667 0,1 0,0.33333 -0.2357,0.7643 0,1 0.0402,0.0402 3.63276,0 4,0"
       id="path3956"
       inkscape:connector-curvature="0"
       transform="translate(89.152344,167.86218)" />
    <path
       style="fill:none;stroke:#000000;stroke-width:1px;stroke-linecap:butt;stroke-linejoin:miter;stroke-opacity:1"
       d="m 385,295 c -1.57771,-1.78885 -4.21115,0.89443 -6,0 -0.84327,-0.42164 -1.24575,-1.43431 -2,-2 -0.59628,-0.44721 -1.36086,-0.61652 -2,-1 -1.03058,-0.61835 -1.84439,-1.66983 -3,-2 -1.28203,-0.36629 -2.68481,0.2192 -4,0 -0.73521,-0.12254 -1.30795,-0.72318 -2,-1 -0.9787,-0.39148 -1.96025,-0.82671 -3,-1 -0.98639,-0.1644 -2.16795,0.5547 -3,0 -0.5547,-0.3698 0.4714,-1.5286 0,-2 -0.40887,-0.40887 -5.20702,0.39649 -6,0 -0.84327,-0.42164 -1.15673,-1.57836 -2,-2 -0.59628,-0.29814 -1.33333,0 -2,0 -1,0 -2,0 -3,0 -0.66667,0 -1.4453,0.3698 -2,0 -0.62017,-0.41345 -0.47295,-1.47295 -1,-2 -0.26664,-0.26664 -5.63007,0.24662 -6,0 -0.5547,-0.3698 0,-1.33333 0,-2 0,-0.62646 0.0538,-5.9462 0,-6 -0.4714,-0.4714 -1.5286,0.4714 -2,0 -0.4714,-0.4714 0.4714,-1.5286 0,-2 -0.4714,-0.4714 -1.4453,0.3698 -2,0 -0.62017,-0.41345 -0.37983,-1.58655 -1,-2 -0.5547,-0.3698 -1.6302,0.5547 -2,0 -0.0614,-0.092 0.0471,-4.9529 0,-5 -0.4714,-0.4714 -1.5286,0.4714 -2,0 -0.4714,-0.4714 0,-1.33333 0,-2 0,-0.66667 0,-1.33333 0,-2 0,-4 0,-8 0,-12 0,-0.66667 0.4714,-1.5286 0,-2 -0.46561,-0.46561 -3.1657,0.41715 -4,0 -0.29814,-0.14907 0.2357,-0.7643 0,-1 -0.52705,-0.52705 -1.47295,-0.47295 -2,-1 -0.2357,-0.2357 0,-0.66667 0,-1 0,-1.66667 0,-3.33333 0,-5 0,-0.33333 0.2357,-0.7643 0,-1 -0.52705,-0.52705 -1.2769,-0.81922 -2,-1 -0.64676,-0.16169 -1.5286,0.4714 -2,0 -0.4714,-0.4714 0.5547,-1.6302 0,-2 -2.5,-1.66667 -2.77778,1.11111 -5,0 -0.84327,-0.42164 -1.21554,-1.47702 -2,-2 -0.5547,-0.3698 -1.70186,0.59628 -2,0 -0.41715,-0.8343 0.46561,-3.53439 0,-4 -0.4714,-0.4714 -1.5286,0.4714 -2,0 -0.4714,-0.4714 0.4714,-1.5286 0,-2 -0.4714,-0.4714 -1.33333,0 -2,0 -2,0 -4,0 -6,0 -0.66667,0 -1.33333,0 -2,0 -0.66667,0 -1.40372,0.29814 -2,0 -0.26393,-0.13197 0.19911,-1.40268 0,-2 -0.2357,-0.70711 -0.47295,-1.47295 -1,-2 -0.2357,-0.2357 -0.66667,0 -1,0 -1,-1 -2.36754,-1.73509 -3,-3 -0.44721,-0.89443 0.5547,-2.16795 0,-3 -0.3698,-0.5547 -1.36754,0.21082 -2,0 -0.44721,-0.14907 -0.66667,-0.66667 -1,-1 -1,-0.33333 -1.96638,-0.79328 -3,-1 -0.65372,-0.13074 -1.36754,0.21082 -2,0 -0.89443,-0.29814 -1.10557,-1.70186 -2,-2 -0.63246,-0.21082 -1.40372,0.29814 -2,0 -0.29814,-0.14907 0.2357,-0.7643 0,-1 -0.73924,-0.73924 -6.19452,-4.38905 -7,-6 -0.29814,-0.59628 0.16169,-1.35324 0,-2 -0.18078,-0.7231 -0.66667,-1.33333 -1,-2 -0.66667,-1.33333 -0.83595,-3.06876 -2,-4 -0.78087,-0.6247 -2.29289,0.70711 -3,0 -0.70711,-0.70711 0.31623,-2.05132 0,-3 -0.10541,-0.31623 -0.85093,0.29814 -1,0 -2.66667,-5.33333 3.33333,0.66667 -2,-2 -0.29814,-0.14907 0,-0.66667 0,-1 0,-1.66667 0,-3.33333 0,-5 0,-0.66667 0.29814,-1.40372 0,-2 -0.74536,-1.49071 -2.25464,-2.50929 -3,-4 -0.44721,-0.89443 0,-2 0,-3 0,-2.66667 0,-5.33333 0,-8"
       id="path3958"
       inkscape:connector-curvature="0"
       transform="translate(89.152344,167.86218)" />
    <path
       style="fill:none;stroke:#000000;stroke-width:1px;stroke-linecap:butt;stroke-linejoin:miter;stroke-opacity:1"
       d="m 398,290 c 1.33333,-0.66667 3.33333,-3.33333 4,-2 0.66667,1.33333 -4.89443,3.19257 -4,2 1.84391,-2.45855 4.9763,-3.6872 7,-6 0.439,-0.50172 0,-1.33333 0,-2 0,-0.33333 0,-0.66667 0,-1 0,-5.33333 -0.66667,0.66667 2,-2 0.4714,-0.4714 0,-1.33333 0,-2 0,-2.33333 0,-4.66667 0,-7 0,-0.33333 0.2357,-0.7643 0,-1 -0.2357,-0.2357 -0.7643,0.2357 -1,0 -0.52705,-0.52705 -0.7643,-1.29289 -1,-2 -0.21082,-0.63246 0,-1.33333 0,-2 0,-1.66667 0,-3.33333 0,-5 0,-2 0,-4 0,-6 0,-0.66667 -0.21082,-1.36754 0,-2 0.14907,-0.44721 0.73851,-0.60777 1,-1 0.41345,-0.62017 0.7643,-1.29289 1,-2 0.21082,-0.63246 0,-1.33333 0,-2 0,-0.64613 0.23834,-3.76166 0,-4 -0.4714,-0.4714 -1.40372,0.29814 -2,0 -0.29814,-0.14907 0,-0.66667 0,-1 0,-0.33333 0,-0.66667 0,-1 0,-0.33333 0,-0.66667 0,-1 0,-0.33333 -0.1849,-0.72265 0,-1 3.31658,-4.97487 0.45956,-0.22978 4,-2 0.84327,-0.42164 1.33333,-1.33333 2,-2 0.66667,-0.66667 1.33333,-1.33333 2,-2 1.33333,-1.33333 2.31345,-3.15673 4,-4 1.19257,-0.59628 2.71797,0.36629 4,0 6.21512,-1.77575 0.56933,-1.56933 4,-5 0.4714,-0.4714 1.4453,0.3698 2,0 1.30358,-0.86906 1,-2.73455 1,-4 0,-3 0,-6 0,-9 0,-0.66667 -0.29814,-1.40372 0,-2 0.42164,-0.84327 1.57836,-1.15673 2,-2 0.0996,-0.19924 0,-6.8317 0,-7 0,-5.33333 0,-10.66667 0,-16 0,-2 0,-4 0,-6 0,-0.66667 -0.16169,-1.35324 0,-2 0.18078,-0.7231 0.72318,-1.30795 1,-2 0.39148,-0.9787 0.74435,-1.97738 1,-3 0.0808,-0.32338 -0.2357,-0.7643 0,-1 0.52705,-0.52705 1.58655,-0.37983 2,-1 0.3698,-0.5547 0,-1.33333 0,-2 0,-0.66667 0,-1.33333 0,-2 0,-3 0,-6 0,-9 0,-0.57374 -0.0878,-4.91222 0,-5 0.4714,-0.4714 1.33333,0 2,0"
       id="path3960"
       inkscape:connector-curvature="0"
       transform="translate(89.152344,167.86218)" />
    <path
       style="fill:none;stroke:#000000;stroke-width:1px;stroke-linecap:butt;stroke-linejoin:miter;stroke-opacity:1"
       d="m 389,291 c 0.70763,-3.41368 -2.92503,-3.85006 -4,-6 -0.29814,-0.59628 0.16169,-1.35324 0,-2 -0.18078,-0.7231 -0.66667,-1.33333 -1,-2 -0.66667,-1.33333 -1.20992,-2.73588 -2,-4 -0.88333,-1.41333 -2.34347,-2.46809 -3,-4 -0.39392,-0.91915 0.5547,-2.16795 0,-3 -0.3698,-0.5547 -1.5286,0.4714 -2,0 -0.4714,-0.4714 0,-1.33333 0,-2 0,-2 0,-4 0,-6 0,-0.33333 0.2357,-0.7643 0,-1 -0.52705,-0.52705 -1.58655,-0.37983 -2,-1 -0.10152,-0.15227 0,-5.59818 0,-6 0,-3 0,-6 0,-9 0,-0.65692 0.11758,-3.76485 0,-4 -0.29814,-0.59628 -1.70186,0.59628 -2,0 -0.32348,-0.64695 0.35921,-3.64079 0,-4 -0.52705,-0.52705 -1.47295,-0.47295 -2,-1 -0.2357,-0.2357 0,-0.66667 0,-1 0,-0.66667 0,-1.33333 0,-2 0,-3 0,-6 0,-9 0,-0.34067 0.1804,-3.45879 0,-4 -0.33333,-0.66667 -0.66667,-1.33333 -1,-2 -0.33333,0 -0.7643,0.2357 -1,0 -0.4714,-0.4714 0.3698,-1.4453 0,-2 -0.52298,-0.78446 -1.57836,-1.15673 -2,-2 -0.37832,-0.75664 0.37495,-7.25011 0,-8 -0.29814,-0.59628 -1.70186,0.59628 -2,0 -0.29814,-0.59628 0.21082,-1.36754 0,-2 -0.14907,-0.44721 -0.66667,-0.66667 -1,-1 -0.33333,-1 -0.74435,-1.97738 -1,-3 -0.16169,-0.64676 0,-1.33333 0,-2 0,-1.66667 0,-3.33333 0,-5 0,-0.66667 -0.4714,-1.5286 0,-2 0.4714,-0.4714 1.40372,0.29814 2,0 0.29814,-0.14907 -0.2357,-0.7643 0,-1 0.52705,-0.52705 1.58655,-0.37983 2,-1 0.3698,-0.5547 -0.4714,-1.5286 0,-2 0.4714,-0.4714 1.5286,0.4714 2,0 0.4714,-0.4714 -0.29814,-1.40372 0,-2 0.42164,-0.84327 1.47702,-1.21554 2,-2 0.1849,-0.27735 -0.2357,-0.7643 0,-1 0.84984,-0.84984 2.38165,-0.96942 3,-2 0.5145,-0.85749 -0.31623,-2.05132 0,-3 0.10541,-0.31623 0.66667,0 1,0 0.33333,-0.66667 0.81922,-1.2769 1,-2 0.16169,-0.64676 -0.4714,-1.5286 0,-2 0.4714,-0.4714 1.5286,0.4714 2,0 0.4714,-0.4714 -0.4714,-1.5286 0,-2 0.4714,-0.4714 1.5286,0.4714 2,0 0.4714,-0.4714 0,-1.33333 0,-2 0,-1.66667 0,-3.33333 0,-5 0,-0.33333 -0.29814,-0.85093 0,-1 0.59628,-0.29814 1.5286,0.4714 2,0 0.37662,-0.37662 -0.37662,-5.62338 0,-6 0.4714,-0.4714 1.5286,0.4714 2,0 0.4714,-0.4714 0,-1.33333 0,-2 0,-0.33333 0,-0.66667 0,-1 0,-4.33333 0,-8.66667 0,-13"
       id="path3962"
       inkscape:connector-curvature="0"
       transform="translate(89.152344,167.86218)" />
    <path
       style="fill:none;stroke:#000000;stroke-width:1px;stroke-linecap:butt;stroke-linejoin:miter;stroke-opacity:1"
       d="m 384,305 c -1.33333,0 -2.68481,0.2192 -4,0 -0.73521,-0.12254 -1.33333,-0.66667 -2,-1 -1.33333,-0.33333 -2.63245,-0.86325 -4,-1 -1.32653,-0.13265 -12.1746,0.15476 -13,0 -26.42126,-8.80709 6.71984,1.18585 -17,-3 -3.11416,-0.54956 -5.88584,-2.45044 -9,-3 -2.62609,-0.46343 -5.33333,0 -8,0 -1.33333,0 -2.66667,0 -4,0 -6.66667,0 -13.33333,0 -20,0 -5.33333,0 -10.66667,0 -16,0 -1.66667,0 -3.33333,0 -5,0 -0.33333,0 -0.7643,-0.2357 -1,0 -0.52705,0.52705 -0.37983,1.58655 -1,2 -0.5547,0.3698 -1.33333,0 -2,0 -0.85345,0 -6.75535,-0.1631 -7,0 -0.5547,0.3698 0.4714,1.5286 0,2 -0.4714,0.4714 -1.33333,0 -2,0 -2,0 -4.08435,-0.5747 -6,0 -1.59638,0.47891 -2.50929,2.25464 -4,3 -0.59628,0.29814 -1.5286,-0.4714 -2,0 -0.4714,0.4714 0.5547,1.6302 0,2 -0.36993,0.24662 -5.73336,-0.26664 -6,0 -0.4714,0.4714 0.4714,1.5286 0,2 -0.35921,0.35921 -3.35305,-0.32348 -4,0 -0.84327,0.42164 -1.21554,1.47702 -2,2 -0.62134,0.41423 -3.52776,-0.47224 -4,0 -0.4714,0.4714 0.4714,1.5286 0,2 -0.29225,0.29225 -4.36899,-0.31551 -5,0 -4.16176,2.08088 1.06904,-0.069 -1,2 -0.2357,0.2357 -0.66667,0 -1,0 -0.33333,0 -0.66667,0 -1,0"
       id="path3964"
       inkscape:connector-curvature="0"
       transform="translate(89.152344,167.86218)" />
    <path
       style="fill:none;stroke:#000000;stroke-width:1px;stroke-linecap:butt;stroke-linejoin:miter;stroke-opacity:1"
       d="m 391,315 c -1.00719,4.40633 -4.11438,1.05719 -6,2 -0.84327,0.42164 -1.15673,1.57836 -2,2 -1.19257,0.59628 -2.80743,-0.59628 -4,0 -0.84327,0.42164 -1.10557,1.70186 -2,2 -1.26491,0.42164 -2.71797,-0.36629 -4,0 -2.31122,0.66035 -3.71965,3.23988 -6,4 -0.94868,0.31623 -2.06367,-0.35112 -3,0 -1.8199,0.68246 -3.11438,2.5286 -5,3 -2.33333,0 -4.66667,0 -7,0 -0.33333,0.66667 -0.30795,1.72318 -1,2 -1.23797,0.49519 -2.66667,0 -4,0 -1.66667,0 -3.39746,-0.45787 -5,0 -5.82646,1.6647 0.37239,1.62761 -2,4 -0.4714,0.4714 -1.33333,0 -2,0 -0.66667,0 -1.33333,0 -2,0 -5.66667,0 -11.33333,0 -17,0 -6,0 -12,0 -18,0 -0.66667,0 -1.5286,-0.4714 -2,0 -0.4714,0.4714 0.5547,1.6302 0,2 -0.87471,0.58314 -4.96858,-0.51571 -6,0 -0.84327,0.42164 -1.15673,1.57836 -2,2 -0.59628,0.29814 -1.33333,0 -2,0 -2,0 -4,0 -6,0 -0.33333,0 -0.66667,0 -1,0 -0.33333,0 -0.85093,-0.29814 -1,0 -0.29814,0.59628 0.4714,1.5286 0,2 -0.4714,0.4714 -1.33333,0 -2,0 -0.66667,0 -1.33333,0 -2,0 -0.48505,0 -5.93568,-0.0643 -6,0 -0.4714,0.4714 0.4714,1.5286 0,2 -0.94281,0.94281 -3.05719,-0.94281 -4,0 -0.4714,0.4714 0.4714,1.5286 0,2 -4.13807,4.13807 0.16176,-6.32352 -4,2 -0.29814,0.59628 0.4714,1.5286 0,2 -0.4714,0.4714 -1.40372,-0.29814 -2,0 -0.29814,0.14907 0,0.66667 0,1 -0.66667,0.33333 -1.29289,0.7643 -2,1 -0.59732,0.19911 -1.86803,-0.26393 -2,0 -0.29814,0.59628 0.29814,1.40372 0,2 -1.82091,3.64183 -1.51716,1.17239 -4,2 -0.89443,0.29814 -1.10557,1.70186 -2,2 -0.63246,0.21082 -1.5286,-0.4714 -2,0 -0.4714,0.4714 0.21082,1.36754 0,2 -0.14907,0.44721 -0.73851,0.60777 -1,1 -0.41345,0.62017 -0.37983,1.58655 -1,2 -1.1094,0.7396 -3.05719,-0.94281 -4,0 -0.4714,0.4714 0,1.33333 0,2"
       id="path3966"
       inkscape:connector-curvature="0"
       transform="translate(89.152344,167.86218)" />
    <path
       style="fill:none;stroke:#000000;stroke-width:1px;stroke-linecap:butt;stroke-linejoin:miter;stroke-opacity:1"
       d="m 106,55 c 1.33333,0 2.69256,0.261488 4,0 0.9245,-0.1849 1.10557,-1.701858 2,-2 0.55128,-0.18376 5.15135,0 6,0 0.66667,0 1.40372,0.298142 2,0 0.84327,-0.421637 1.10557,-1.701858 2,-2 0.62708,-0.209026 6.57575,0 8,0 5,0 10,0 15,0 9.33333,0 18.66667,0 28,0 3,0 6,0 9,0 1.33333,0 2.76203,-0.495188 4,0 0.69205,0.276818 0.29289,1.764298 1,2 1.58114,0.527046 3.33333,0 5,0 3.66667,0 7.33333,0 11,0 1.33333,0 2.76203,-0.495188 4,0 0.69205,0.276818 0.37983,1.586551 1,2 0.51823,0.345488 6.6785,-0.321503 7,0 0.70711,0.707107 -0.5547,2.16795 0,3 0.3698,0.5547 1.33333,0 2,0 1,0 2.10557,-0.447214 3,0 0.66667,0.333333 0.47295,1.472954 1,2 0.2357,0.235702 0.66667,0 1,0 1.66667,0 3.33333,0 5,0 5.33333,0 -0.66667,-0.666667 2,2 0.29225,0.292247 4.36899,-0.315505 5,0 0.42164,0.210819 0.55279,0.850929 1,1 0.63246,0.210819 1.5286,-0.471405 2,0 0.4714,0.471405 -0.29814,1.403715 0,2 0.14907,0.298142 0.72265,-0.1849 1,0 0.78446,0.522976 1.15673,1.578363 2,2 0.59628,0.298142 1.33333,0 2,0 0.66667,0 1.33333,0 2,0 0.66667,0 1.35324,-0.16169 2,0 0.7231,0.180775 1.33333,0.666667 2,1 0.66667,0.333333 1.2769,0.819225 2,1 0.64676,0.16169 1.33333,0 2,0 0.66667,0 1.33333,0 2,0 3,0 6,0 9,0 2.33333,0 4.66667,0 7,0 0.34067,0 3.45879,0.180402 4,0 3,-1 2,-2 6,-3 1.02342,-0.255855 5.33863,0 7,0 0.33333,0 0.7643,0.235702 1,0 0.2357,-0.235702 0,-0.666667 0,-1 0,-0.333333 0,-0.666667 0,-1"
       id="path3968"
       inkscape:connector-curvature="0"
       transform="translate(89.152344,167.86218)" />
    <path
       style="fill:none;stroke:#000000;stroke-width:1px;stroke-linecap:butt;stroke-linejoin:miter;stroke-opacity:1"
       d="m 92,70 c 3.55032,12.773201 -3.490769,2.490769 -5,4 -0.527046,0.527046 -0.552786,1.403715 -1,2 -0.848528,1.131371 -2,2 -3,3 -1,1 -2,2 -3,3 -0.333333,0.333333 -0.850929,0.552786 -1,1 -0.210819,0.632456 0.471405,1.528595 0,2 -0.471405,0.471405 -1.367544,-0.210819 -2,0 -0.447214,0.149071 -0.666667,0.666667 -1,1 -1,1 -2.367544,1.735089 -3,3 -0.298142,0.596285 0.298142,1.403715 0,2 -0.149071,0.298142 -0.764298,-0.235702 -1,0 -0.849837,0.849837 -1.462516,1.925032 -2,3 -0.143101,0.286203 0,4.465787 0,5 0,3.66667 0,7.33333 0,11 0,3.33333 0,6.66667 0,10 0,0.33333 0,0.66667 0,1 0,0.33333 -0.1849,0.72265 0,1 0.522976,0.78446 1.477024,1.21554 2,2 0.1849,0.27735 -0.235702,0.7643 0,1 0.527046,0.52705 1.586551,0.37983 2,1 0.3698,0.5547 0,1.33333 0,2 0,0.33333 0,0.66667 0,1 0,0.33333 0.1849,0.72265 0,1 -0.522976,0.78446 -1.477024,1.21554 -2,2 -1,1.5 2,1 0,3 -0.471405,0.4714 -1.528595,-0.4714 -2,0 -0.454105,0.4541 0.316028,3.84199 0,4 -5.333333,0 0.666667,-0.66667 -2,2 -0.471405,0.4714 -1.528595,-0.4714 -2,0 -0.471405,0.4714 0,1.33333 0,2 0,1.33333 0.596285,2.80743 0,4 -0.537484,1.07497 -2.27889,1.03852 -3,2 -0.4,0.53333 0.16169,1.35324 0,2 2.42033,2.96481 -1.850929,1.70186 -2,2 -0.396492,0.79298 0.408873,5.59113 0,6 -0.471405,0.4714 -1.528595,-0.4714 -2,0 -0.942809,0.94281 0.685994,2.85668 0,4 -9.68545,9.68545 2.414214,-3.82843 -3,7 -0.298142,0.59628 -1.403715,-0.29814 -2,0 -0.596285,0.29814 0.471405,1.5286 0,2 -0.5,0.5 -2.5,-0.5 -3,0 -0.527046,0.52705 -0.379826,1.58655 -1,2 -0.5547,0.3698 -1.528595,-0.4714 -2,0 -0.471405,0.4714 0.471405,1.5286 0,2 -0.471405,0.4714 -1.4453,-0.3698 -2,0 -0.620174,0.41345 -0.472954,1.47295 -1,2 -0.235702,0.2357 -0.666667,0 -1,0 -0.666667,0 -1.333333,0 -2,0"
       id="path3970"
       inkscape:connector-curvature="0"
       transform="translate(89.152344,167.86218)" />
    <path
       style="fill:none;stroke:#000000;stroke-width:1px;stroke-linecap:butt;stroke-linejoin:miter;stroke-opacity:1"
       d="m 101,67 c 0,1.333333 -0.42164,2.735089 0,4 0.29814,0.894427 1.47702,1.215535 2,2 0.1849,0.27735 0,0.666667 0,1 0,1.666667 0,3.333333 0,5 0,5 0,10 0,15 0,0.666667 0,1.333333 0,2 0,0.333333 -0.29814,0.850929 0,1 0.59628,0.298142 1.5286,-0.471405 2,0 0.2666,0.266601 -0.2666,2.733399 0,3 0.52705,0.52705 1.58655,0.37983 2,1 0.3698,0.5547 0,1.33333 0,2 0,0.33333 0,0.66667 0,1 0,2 0,4 0,6 0,0.66667 0,1.33333 0,2 0,0.66667 -0.29814,1.40372 0,2 0.42164,0.84327 1.57836,1.15673 2,2 0.29814,0.59628 -0.29814,1.40372 0,2 0.42164,0.84327 1.64985,1.12462 2,2 0.37139,0.92848 -0.37139,2.07152 0,3 0.7003,1.75075 3.15673,2.31345 4,4 0.29814,0.59628 0,1.33333 0,2 0,0.66667 0,1.33333 0,2 0,0.33333 0.2357,0.7643 0,1 -0.52705,0.52705 -1.58655,0.37983 -2,1 -0.3698,0.5547 0,1.33333 0,2 0,2 0,4 0,6 0,1 0,2 0,3 0,0.33333 -0.29814,0.85093 0,1 0.59628,0.29814 1.40372,-0.29814 2,0 0.29814,0.14907 0,0.66667 0,1 0,1 0,2 0,3 0,5 0,10 0,15 0,0.61965 -0.15644,5.68712 0,6 0.42164,0.84327 1.47702,1.21554 2,2 0.1849,0.27735 0,0.66667 0,1 0,0.33333 0,0.66667 0,1"
       id="path3972"
       inkscape:connector-curvature="0"
       transform="translate(89.152344,167.86218)" />
    <path
       style="fill:none;stroke:#000000;stroke-width:1px;stroke-linecap:butt;stroke-linejoin:miter;stroke-opacity:1"
       d="m 104,46 c 0.96285,-2.981424 3.50929,0.745356 5,0 0.42164,-0.210819 0.54267,-0.885668 1,-1 2.28665,-0.571662 4.74721,-0.306833 7,-1 2.13719,-0.657596 3.8307,-2.457674 6,-3 1.94029,-0.485071 4.07047,0.526235 6,0 14.63061,-3.990166 -5.32899,-2.487848 11,-5 2.3062,-0.3548 4.71846,0.488901 7,0 19.62789,-4.205975 -3.47744,-1.356768 12,-6 1.59638,-0.478913 3.33333,0 5,0 2.33333,0 4.66667,0 7,0 2,0 4.03884,0.392232 6,0 1.46176,-0.292353 2.53824,-1.707647 4,-2 2.28802,-0.457604 4.66667,0 7,0 6.66667,0 13.33333,0 20,0 1.66667,0 3.33333,0 5,0 1.33333,0 2.69256,0.261488 4,0 3.72678,-0.745356 7.37583,-1.855525 11,-3 2.7158,-0.857623 5.20078,-2.475146 8,-3 22.85714,-4.285714 -5.625,3.75 15,0 1.46667,-0.266667 2.5538,-1.638449 4,-2 1.29352,-0.323381 2.66667,0 4,0 2.33333,0 4.66667,0 7,0 0.73408,0 5.65137,-0.174313 6,0 4.3698,2.1849 1.49516,2 4,2 1.33333,0 2.73509,-0.421637 4,0 0.89443,0.298142 1.15673,1.578363 2,2 0.59628,0.298142 1.40372,-0.298142 2,0 0.84327,0.421637 1.15673,1.578363 2,2 0.59628,0.298142 1.5286,-0.471405 2,0 0.4714,0.471405 -0.4714,1.528595 0,2 3.59169,3.591693 0.45748,-4.313777 4,1 0.3698,0.5547 -0.5547,1.6302 0,2 0.79385,0.529235 5.6719,-0.332024 7,0 6.73574,1.683935 0.0154,0.01545 2,2 0.24063,0.240631 3.75937,-0.240631 4,0 0.52705,0.527046 0.37983,1.586551 1,2 0.65208,0.434722 5.57487,-0.425126 6,0 0.4714,0.471405 -0.4714,1.528595 0,2 0.4714,0.471405 1.33333,0 2,0 0.66667,0 1.33333,0 2,0"
       id="path3974"
       inkscape:connector-curvature="0"
       transform="translate(89.152344,167.86218)" />
    <path
       transform="translate(-26.347656,-51.000003)"
       sodipodi:type="arc"
       style="fill:#0070aa;fill-opacity:1;stroke:none"
       id="path2985-7-6-9"
       sodipodi:cx="149.5"
       sodipodi:cy="404.86218"
       sodipodi:rx="10.5"
       sodipodi:ry="10.5"
       d="m 160,404.86218 c 0,5.79899 -4.70101,10.5 -10.5,10.5 -5.79899,0 -10.5,-4.70101 -10.5,-10.5 0,-5.79899 4.70101,-10.5 10.5,-10.5 5.79899,0 10.5,4.70101 10.5,10.5 z" />
    <path
       transform="translate(59.652344,-56.000003)"
       sodipodi:type="arc"
       style="fill:#0070aa;fill-opacity:1;stroke:none"
       id="path2985-7-6-10"
       sodipodi:cx="149.5"
       sodipodi:cy="404.86218"
       sodipodi:rx="10.5"
       sodipodi:ry="10.5"
       d="m 160,404.86218 c 0,5.79899 -4.70101,10.5 -10.5,10.5 -5.79899,0 -10.5,-4.70101 -10.5,-10.5 0,-5.79899 4.70101,-10.5 10.5,-10.5 5.79899,0 10.5,4.70101 10.5,10.5 z" />
    <path
       transform="translate(239.65234,-169)"
       sodipodi:type="arc"
       style="fill:#0070aa;fill-opacity:1;stroke:none"
       id="path2985-7-6-3"
       sodipodi:cx="149.5"
       sodipodi:cy="404.86218"
       sodipodi:rx="10.5"
       sodipodi:ry="10.5"
       d="m 160,404.86218 c 0,5.79899 -4.70101,10.5 -10.5,10.5 -5.79899,0 -10.5,-4.70101 -10.5,-10.5 0,-5.79899 4.70101,-10.5 10.5,-10.5 5.79899,0 10.5,4.70101 10.5,10.5 z" />
    <path
       transform="translate(266.65234,-201)"
       sodipodi:type="arc"
       style="fill:#0070aa;fill-opacity:1;stroke:none"
       id="path2985-7-6-4"
       sodipodi:cx="149.5"
       sodipodi:cy="404.86218"
       sodipodi:rx="10.5"
       sodipodi:ry="10.5"
       d="m 160,404.86218 c 0,5.79899 -4.70101,10.5 -10.5,10.5 -5.79899,0 -10.5,-4.70101 -10.5,-10.5 0,-5.79899 4.70101,-10.5 10.5,-10.5 5.79899,0 10.5,4.70101 10.5,10.5 z" />
    <path
       transform="translate(323.65234,-108)"
       sodipodi:type="arc"
       style="fill:#0070aa;fill-opacity:1;stroke:none"
       id="path2985-7-6-2"
       sodipodi:cx="149.5"
       sodipodi:cy="404.86218"
       sodipodi:rx="10.5"
       sodipodi:ry="10.5"
       d="m 160,404.86218 c 0,5.79899 -4.70101,10.5 -10.5,10.5 -5.79899,0 -10.5,-4.70101 -10.5,-10.5 0,-5.79899 4.70101,-10.5 10.5,-10.5 5.79899,0 10.5,4.70101 10.5,10.5 z" />
    <path
       transform="translate(374.65234,-97)"
       sodipodi:type="arc"
       style="fill:#0070aa;fill-opacity:1;stroke:none"
       id="path2985-7-6-21"
       sodipodi:cx="149.5"
       sodipodi:cy="404.86218"
       sodipodi:rx="10.5"
       sodipodi:ry="10.5"
       d="m 160,404.86218 c 0,5.79899 -4.70101,10.5 -10.5,10.5 -5.79899,0 -10.5,-4.70101 -10.5,-10.5 0,-5.79899 4.70101,-10.5 10.5,-10.5 5.79899,0 10.5,4.70101 10.5,10.5 z" />
    <path
       transform="translate(173.65234,123)"
       sodipodi:type="arc"
       style="fill:#0070aa;fill-opacity:1;stroke:none"
       id="path2985-7-6-97"
       sodipodi:cx="149.5"
       sodipodi:cy="404.86218"
       sodipodi:rx="10.5"
       sodipodi:ry="10.5"
       d="m 160,404.86218 c 0,5.79899 -4.70101,10.5 -10.5,10.5 -5.79899,0 -10.5,-4.70101 -10.5,-10.5 0,-5.79899 4.70101,-10.5 10.5,-10.5 5.79899,0 10.5,4.70101 10.5,10.5 z" />
    <text
       xml:space="preserve"
       style="font-size:40px;font-style:normal;font-weight:normal;line-height:125%;letter-spacing:0px;word-spacing:0px;fill:#000000;fill-opacity:1;stroke:none;font-family:Sans"
       x="154.15234"
       y="208.86218"
       id="text4058"
       sodipodi:linespacing="125%"><tspan
         sodipodi:role="line"
         id="tspan4060"
         x="154.15234"
         y="208.86218">a</tspan></text>
    <text
       xml:space="preserve"
       style="font-size:40px;font-style:normal;font-weight:normal;line-height:125%;letter-spacing:0px;word-spacing:0px;fill:#000000;fill-opacity:1;stroke:none;font-family:Sans"
       x="499.15234"
       y="498.86218"
       id="text4062"
       sodipodi:linespacing="125%"><tspan
         sodipodi:role="line"
         id="tspan4064"
         x="499.15234"
         y="498.86218">b</tspan></text>
    <text
       xml:space="preserve"
       style="font-size:40px;font-style:normal;font-weight:normal;line-height:125%;letter-spacing:0px;word-spacing:0px;fill:#000000;fill-opacity:1;stroke:none;font-family:Sans"
       x="310.15234"
       y="345.86218"
       id="text4066"
       sodipodi:linespacing="125%"><tspan
         sodipodi:role="line"
         id="tspan4068"
         x="310.15234"
         y="345.86218">z</tspan></text>
  </g>
</svg>
