<?xml version="1.0" encoding="UTF-8" standalone="no"?>
<!-- Created with Inkscape (http://www.inkscape.org/) -->

<svg
   xmlns:dc="http://purl.org/dc/elements/1.1/"
   xmlns:cc="http://creativecommons.org/ns#"
   xmlns:rdf="http://www.w3.org/1999/02/22-rdf-syntax-ns#"
   xmlns:svg="http://www.w3.org/2000/svg"
   xmlns="http://www.w3.org/2000/svg"
   xmlns:sodipodi="http://sodipodi.sourceforge.net/DTD/sodipodi-0.dtd"
   xmlns:inkscape="http://www.inkscape.org/namespaces/inkscape"
   width="521.86926"
   height="505.00113"
   id="svg2"
   version="1.1"
   inkscape:version="0.48.4 r9939"
   sodipodi:docname="x_search_y.svg">
  <defs
     id="defs4" />
  <sodipodi:namedview
     id="base"
     pagecolor="#ffffff"
     bordercolor="#666666"
     borderopacity="1.0"
     inkscape:pageopacity="0.0"
     inkscape:pageshadow="2"
     inkscape:zoom="1"
     inkscape:cx="86.43183"
     inkscape:cy="288.17313"
     inkscape:document-units="px"
     inkscape:current-layer="layer1"
     showgrid="false"
     inkscape:window-width="1920"
     inkscape:window-height="991"
     inkscape:window-x="0"
     inkscape:window-y="28"
     inkscape:window-maximized="1"
     fit-margin-top="5"
     fit-margin-left="5"
     fit-margin-right="5"
     fit-margin-bottom="5" />
  <metadata
     id="metadata7">
    <rdf:RDF>
      <cc:Work
         rdf:about="">
        <dc:format>image/svg+xml</dc:format>
        <dc:type
           rdf:resource="http://purl.org/dc/dcmitype/StillImage" />
        <dc:title></dc:title>
      </cc:Work>
    </rdf:RDF>
  </metadata>
  <g
     inkscape:label="Layer 1"
     inkscape:groupmode="layer"
     id="layer1"
     transform="translate(-128.5,-274.69269)">
    <path
       sodipodi:type="arc"
       style="fill:#0000ff;fill-opacity:0;stroke:#626262;stroke-width:3;stroke-miterlimit:4;stroke-opacity:1;stroke-dasharray:none"
       id="path2985"
       sodipodi:cx="356"
       sodipodi:cy="533.36218"
       sodipodi:rx="221"
       sodipodi:ry="221"
       d="m 577,533.36218 a 221,221 0 1 1 -442,0 221,221 0 1 1 442,0 z"
       transform="translate(36,2)" />
    <text
       xml:space="preserve"
       style="font-size:19.82835197px;font-style:normal;font-weight:normal;line-height:125%;letter-spacing:0px;word-spacing:0px;fill:#000000;fill-opacity:1;stroke:none;font-family:Sans"
       x="375.53882"
       y="292.53632"
       id="text3771"
       sodipodi:linespacing="125%"><tspan
         sodipodi:role="line"
         id="tspan3773"
         x="375.53882"
         y="292.53632">x</tspan></text>
    <path
       sodipodi:type="arc"
       style="fill:#0000ff;fill-opacity:1;stroke:#0000ff;stroke-width:3;stroke-miterlimit:4;stroke-opacity:1;stroke-dasharray:none"
       id="path3905"
       sodipodi:cx="100.40916"
       sodipodi:cy="176.96399"
       sodipodi:rx="5.6568542"
       sodipodi:ry="5.6568542"
       d="m 106.06601,176.96399 a 5.6568542,5.6568542 0 1 1 -11.313707,0 5.6568542,5.6568542 0 1 1 11.313707,0 z"
       transform="translate(424.90873,181.60512)" />
    <path
       sodipodi:type="arc"
       style="fill:#0000ff;fill-opacity:1;stroke:#0000ff;stroke-width:3;stroke-miterlimit:4;stroke-opacity:1;stroke-dasharray:none"
       id="path3905-2"
       sodipodi:cx="100.40916"
       sodipodi:cy="176.96399"
       sodipodi:rx="5.6568542"
       sodipodi:ry="5.6568542"
       d="m 106.06601,176.96399 a 5.6568542,5.6568542 0 1 1 -11.313707,0 5.6568542,5.6568542 0 1 1 11.313707,0 z"
       transform="translate(283.48738,139.17871)" />
    <path
       sodipodi:type="arc"
       style="fill:#0000ff;fill-opacity:1;stroke:#0000ff;stroke-width:3;stroke-miterlimit:4;stroke-opacity:1;stroke-dasharray:none"
       id="path3905-6"
       sodipodi:cx="100.40916"
       sodipodi:cy="176.96399"
       sodipodi:rx="5.6568542"
       sodipodi:ry="5.6568542"
       d="m 106.06601,176.96399 a 5.6568542,5.6568542 0 1 1 -11.313707,0 5.6568542,5.6568542 0 1 1 11.313707,0 z"
       transform="translate(485.71992,252.3158)" />
    <path
       sodipodi:type="arc"
       style="fill:#0000ff;fill-opacity:1;stroke:#0000ff;stroke-width:3;stroke-miterlimit:4;stroke-opacity:1;stroke-dasharray:none"
       id="path3905-6-5"
       sodipodi:cx="100.40916"
       sodipodi:cy="176.96399"
       sodipodi:rx="5.6568542"
       sodipodi:ry="5.6568542"
       d="m 106.06601,176.96399 a 5.6568542,5.6568542 0 1 1 -11.313707,0 5.6568542,5.6568542 0 1 1 11.313707,0 z"
       transform="translate(502.69048,424.84985)" />
    <path
       sodipodi:type="arc"
       style="fill:#0000ff;fill-opacity:1;stroke:#0000ff;stroke-width:3;stroke-miterlimit:4;stroke-opacity:1;stroke-dasharray:none"
       id="path3905-6-2"
       sodipodi:cx="100.40916"
       sodipodi:cy="176.96399"
       sodipodi:rx="5.6568542"
       sodipodi:ry="5.6568542"
       d="m 106.06601,176.96399 a 5.6568542,5.6568542 0 1 1 -11.313707,0 5.6568542,5.6568542 0 1 1 11.313707,0 z"
       transform="translate(475.82043,480.00418)" />
    <path
       sodipodi:type="arc"
       style="fill:#0000ff;fill-opacity:1;stroke:#0000ff;stroke-width:3;stroke-miterlimit:4;stroke-opacity:1;stroke-dasharray:none"
       id="path3905-6-8"
       sodipodi:cx="100.40916"
       sodipodi:cy="176.96399"
       sodipodi:rx="5.6568542"
       sodipodi:ry="5.6568542"
       d="m 106.06601,176.96399 a 5.6568542,5.6568542 0 1 1 -11.313707,0 5.6568542,5.6568542 0 1 1 11.313707,0 z"
       transform="translate(231.16148,570.51385)" />
    <path
       sodipodi:type="arc"
       style="fill:#0000ff;fill-opacity:1;stroke:#0000ff;stroke-width:3;stroke-miterlimit:4;stroke-opacity:1;stroke-dasharray:none"
       id="path3905-6-27"
       sodipodi:cx="100.40916"
       sodipodi:cy="176.96399"
       sodipodi:rx="5.6568542"
       sodipodi:ry="5.6568542"
       d="m 106.06601,176.96399 a 5.6568542,5.6568542 0 1 1 -11.313707,0 5.6568542,5.6568542 0 1 1 11.313707,0 z"
       transform="translate(157.62237,533.7443)" />
    <path
       sodipodi:type="arc"
       style="fill:#0000ff;fill-opacity:1;stroke:#0000ff;stroke-width:3;stroke-miterlimit:4;stroke-opacity:1;stroke-dasharray:none"
       id="path3905-6-7"
       sodipodi:cx="100.40916"
       sodipodi:cy="176.96399"
       sodipodi:rx="5.6568542"
       sodipodi:ry="5.6568542"
       d="m 106.06601,176.96399 a 5.6568542,5.6568542 0 1 1 -11.313707,0 5.6568542,5.6568542 0 1 1 11.313707,0 z"
       transform="translate(77.012202,403.63665)" />
    <path
       sodipodi:type="arc"
       style="fill:#0000ff;fill-opacity:1;stroke:#0000ff;stroke-width:3;stroke-miterlimit:4;stroke-opacity:1;stroke-dasharray:none"
       id="path3905-6-4"
       sodipodi:cx="100.40916"
       sodipodi:cy="176.96399"
       sodipodi:rx="5.6568542"
       sodipodi:ry="5.6568542"
       d="m 106.06601,176.96399 a 5.6568542,5.6568542 0 1 1 -11.313707,0 5.6568542,5.6568542 0 1 1 11.313707,0 z"
       transform="translate(348.54121,144.83557)" />
    <path
       sodipodi:type="arc"
       style="fill:#0000ff;fill-opacity:1;stroke:#0000ff;stroke-width:3;stroke-miterlimit:4;stroke-opacity:1;stroke-dasharray:none"
       id="path3905-6-1"
       sodipodi:cx="100.40916"
       sodipodi:cy="176.96399"
       sodipodi:rx="5.6568542"
       sodipodi:ry="5.6568542"
       d="m 106.06601,176.96399 a 5.6568542,5.6568542 0 1 1 -11.313707,0 5.6568542,5.6568542 0 1 1 11.313707,0 z"
       transform="translate(180.03447,166.66196)" />
    <path
       sodipodi:type="arc"
       style="fill:#0000ff;fill-opacity:1;stroke:#0000ff;stroke-width:3;stroke-miterlimit:4;stroke-opacity:1;stroke-dasharray:none"
       id="path3905-6-7-0"
       sodipodi:cx="100.40916"
       sodipodi:cy="176.96399"
       sodipodi:rx="5.6568542"
       sodipodi:ry="5.6568542"
       d="m 106.06601,176.96399 a 5.6568542,5.6568542 0 1 1 -11.313707,0 5.6568542,5.6568542 0 1 1 11.313707,0 z"
       transform="translate(390.96761,556.37171)" />
    <path
       sodipodi:type="arc"
       style="fill:#0000ff;fill-opacity:1;stroke:#0000ff;stroke-width:3;stroke-miterlimit:4;stroke-opacity:1;stroke-dasharray:none"
       id="path3905-6-7-2"
       sodipodi:cx="100.40916"
       sodipodi:cy="176.96399"
       sodipodi:rx="5.6568542"
       sodipodi:ry="5.6568542"
       d="m 106.06601,176.96399 a 5.6568542,5.6568542 0 1 1 -11.313707,0 5.6568542,5.6568542 0 1 1 11.313707,0 z"
       transform="translate(77.012202,311.71277)" />
    <path
       sodipodi:type="arc"
       style="fill:#0000ff;fill-opacity:1;stroke:#0000ff;stroke-width:3;stroke-miterlimit:4;stroke-opacity:1;stroke-dasharray:none"
       id="path3905-6-7-7"
       sodipodi:cx="100.40916"
       sodipodi:cy="176.96399"
       sodipodi:rx="5.6568542"
       sodipodi:ry="5.6568542"
       d="m 106.06601,176.96399 a 5.6568542,5.6568542 0 1 1 -11.313707,0 5.6568542,5.6568542 0 1 1 11.313707,0 z"
       transform="translate(345.71278,573.34227)" />
    <path
       sodipodi:type="arc"
       style="fill:#0000ff;fill-opacity:1;stroke:#0000ff;stroke-width:3;stroke-miterlimit:4;stroke-opacity:1;stroke-dasharray:none"
       id="path3905-6-7-01"
       sodipodi:cx="100.40916"
       sodipodi:cy="176.96399"
       sodipodi:rx="5.6568542"
       sodipodi:ry="5.6568542"
       d="m 106.06601,176.96399 a 5.6568542,5.6568542 0 1 1 -11.313707,0 5.6568542,5.6568542 0 1 1 11.313707,0 z"
       transform="translate(129.3381,208.47518)" />
    <text
       xml:space="preserve"
       style="font-size:19.82835197px;font-style:normal;font-weight:normal;line-height:125%;letter-spacing:0px;word-spacing:0px;fill:#000000;fill-opacity:1;stroke:none;font-family:Sans"
       x="612.67151"
       y="613.11566"
       id="text3771-7"
       sodipodi:linespacing="125%"><tspan
         sodipodi:role="line"
         id="tspan3773-2"
         x="612.67151"
         y="613.11566">x_1</tspan></text>
    <text
       xml:space="preserve"
       style="font-size:19.82835197px;font-style:normal;font-weight:normal;line-height:125%;letter-spacing:0px;word-spacing:0px;fill:#000000;fill-opacity:1;stroke:none;font-family:Sans"
       x="503.99738"
       y="747.58313"
       id="text3771-7-0"
       sodipodi:linespacing="125%"><tspan
         sodipodi:role="line"
         id="tspan3773-2-0"
         x="503.99738"
         y="747.58313">x_2</tspan></text>
    <text
       xml:space="preserve"
       style="font-size:19.82835197px;font-style:normal;font-weight:normal;line-height:125%;letter-spacing:0px;word-spacing:0px;fill:#000000;fill-opacity:1;stroke:none;font-family:Sans"
       x="453.0748"
       y="769.71387"
       id="text3771-7-0-3"
       sodipodi:linespacing="125%"><tspan
         sodipodi:role="line"
         id="tspan3773-2-0-8"
         x="453.0748"
         y="769.71387">y</tspan></text>
    <path
       style="fill:none;stroke:#800000;stroke-width:1px;stroke-linecap:butt;stroke-linejoin:miter;stroke-opacity:1"
       d="m 255,40.001129 c 0,0 51,203.000001 218,286.000001"
       id="path4628"
       inkscape:connector-curvature="0"
       transform="translate(128.5,274.69269)" />
    <path
       style="fill:none;stroke:#800000;stroke-width:1px;stroke-linecap:butt;stroke-linejoin:miter;stroke-opacity:1"
       d="m 475,328.00113 c 0,0 -101,51 -112,130"
       id="path4630"
       inkscape:connector-curvature="0"
       transform="translate(128.5,274.69269)" />
    <path
       style="fill:none;stroke:#800000;stroke-width:1px;stroke-linecap:butt;stroke-linejoin:miter;stroke-opacity:1"
       d="m 362,459.00113 c 0,0 -33,-20 -47,16"
       id="path4632"
       inkscape:connector-curvature="0"
       transform="translate(128.5,274.69269)" />
  </g>
</svg>
