<?xml version="1.0" encoding="UTF-8" standalone="no"?>
<!-- Created with Inkscape (http://www.inkscape.org/) -->

<svg
   xmlns:dc="http://purl.org/dc/elements/1.1/"
   xmlns:cc="http://creativecommons.org/ns#"
   xmlns:rdf="http://www.w3.org/1999/02/22-rdf-syntax-ns#"
   xmlns:svg="http://www.w3.org/2000/svg"
   xmlns="http://www.w3.org/2000/svg"
   xmlns:sodipodi="http://sodipodi.sourceforge.net/DTD/sodipodi-0.dtd"
   xmlns:inkscape="http://www.inkscape.org/namespaces/inkscape"
   width="415.76904"
   height="415.76904"
   id="svg2"
   version="1.1"
   inkscape:version="0.48.4 r9939"
   sodipodi:docname="circles_highest.svg">
  <defs
     id="defs4">
    <inkscape:path-effect
       effect="spiro"
       id="path-effect11733"
       is_visible="true" />
    <inkscape:path-effect
       effect="spiro"
       id="path-effect11729"
       is_visible="true" />
    <inkscape:path-effect
       effect="spiro"
       id="path-effect11725"
       is_visible="true" />
    <inkscape:path-effect
       effect="spiro"
       id="path-effect11721"
       is_visible="true" />
    <inkscape:path-effect
       effect="spiro"
       id="path-effect11717"
       is_visible="true" />
    <inkscape:path-effect
       effect="spiro"
       id="path-effect11713"
       is_visible="true" />
    <inkscape:path-effect
       effect="spiro"
       id="path-effect11709"
       is_visible="true" />
    <inkscape:path-effect
       effect="spiro"
       id="path-effect11701"
       is_visible="true" />
    <inkscape:path-effect
       effect="spiro"
       id="path-effect11697"
       is_visible="true" />
    <inkscape:path-effect
       effect="spiro"
       id="path-effect11693"
       is_visible="true" />
    <inkscape:path-effect
       effect="spiro"
       id="path-effect11689"
       is_visible="true" />
    <inkscape:path-effect
       effect="spiro"
       id="path-effect11685"
       is_visible="true" />
    <inkscape:path-effect
       effect="spiro"
       id="path-effect11681"
       is_visible="true" />
    <inkscape:path-effect
       effect="spiro"
       id="path-effect11677"
       is_visible="true" />
    <inkscape:path-effect
       effect="spiro"
       id="path-effect11673"
       is_visible="true" />
    <inkscape:path-effect
       effect="spiro"
       id="path-effect11669"
       is_visible="true" />
    <inkscape:path-effect
       effect="spiro"
       id="path-effect11665"
       is_visible="true" />
    <inkscape:path-effect
       effect="spiro"
       id="path-effect11661"
       is_visible="true" />
    <inkscape:path-effect
       effect="spiro"
       id="path-effect11303"
       is_visible="true" />
    <inkscape:path-effect
       effect="spiro"
       id="path-effect11299"
       is_visible="true" />
    <inkscape:path-effect
       effect="spiro"
       id="path-effect11295"
       is_visible="true" />
    <inkscape:path-effect
       effect="spiro"
       id="path-effect11291"
       is_visible="true" />
    <inkscape:path-effect
       effect="spiro"
       id="path-effect11287"
       is_visible="true" />
    <inkscape:path-effect
       effect="spiro"
       id="path-effect11279"
       is_visible="true" />
    <inkscape:path-effect
       effect="spiro"
       id="path-effect11275"
       is_visible="true" />
    <inkscape:path-effect
       effect="spiro"
       id="path-effect11271"
       is_visible="true" />
    <inkscape:path-effect
       effect="spiro"
       id="path-effect11267"
       is_visible="true" />
    <inkscape:path-effect
       effect="spiro"
       id="path-effect11263"
       is_visible="true" />
    <inkscape:path-effect
       effect="spiro"
       id="path-effect11259"
       is_visible="true" />
    <inkscape:path-effect
       effect="spiro"
       id="path-effect11251"
       is_visible="true" />
    <inkscape:path-effect
       effect="spiro"
       id="path-effect11247"
       is_visible="true" />
    <inkscape:path-effect
       effect="spiro"
       id="path-effect11243"
       is_visible="true" />
    <inkscape:path-effect
       effect="spiro"
       id="path-effect11239"
       is_visible="true" />
    <inkscape:path-effect
       effect="spiro"
       id="path-effect11235"
       is_visible="true" />
    <inkscape:path-effect
       effect="spiro"
       id="path-effect11231"
       is_visible="true" />
    <inkscape:path-effect
       effect="spiro"
       id="path-effect11227"
       is_visible="true" />
    <inkscape:path-effect
       effect="spiro"
       id="path-effect11223"
       is_visible="true" />
    <inkscape:path-effect
       effect="spiro"
       id="path-effect11219"
       is_visible="true" />
    <inkscape:path-effect
       effect="spiro"
       id="path-effect10963"
       is_visible="true" />
    <inkscape:path-effect
       effect="spiro"
       id="path-effect10955"
       is_visible="true" />
    <inkscape:path-effect
       effect="spiro"
       id="path-effect10949"
       is_visible="true" />
    <inkscape:path-effect
       effect="spiro"
       id="path-effect10945"
       is_visible="true" />
    <inkscape:path-effect
       effect="spiro"
       id="path-effect10941"
       is_visible="true" />
    <inkscape:path-effect
       effect="spiro"
       id="path-effect7409"
       is_visible="true" />
    <inkscape:path-effect
       effect="spiro"
       id="path-effect7405"
       is_visible="true" />
    <inkscape:path-effect
       effect="spiro"
       id="path-effect7401"
       is_visible="true" />
    <inkscape:path-effect
       effect="spiro"
       id="path-effect7397"
       is_visible="true" />
    <inkscape:path-effect
       effect="spiro"
       id="path-effect7393"
       is_visible="true" />
    <inkscape:path-effect
       effect="spiro"
       id="path-effect7389"
       is_visible="true" />
    <inkscape:path-effect
       effect="spiro"
       id="path-effect6235"
       is_visible="true" />
    <inkscape:path-effect
       effect="spiro"
       id="path-effect6231"
       is_visible="true" />
    <inkscape:path-effect
       effect="spiro"
       id="path-effect6227"
       is_visible="true" />
    <inkscape:path-effect
       effect="spiro"
       id="path-effect6223"
       is_visible="true" />
    <inkscape:path-effect
       effect="spiro"
       id="path-effect6219"
       is_visible="true" />
    <inkscape:path-effect
       effect="spiro"
       id="path-effect6215"
       is_visible="true" />
    <inkscape:path-effect
       effect="spiro"
       id="path-effect3982"
       is_visible="true" />
    <inkscape:path-effect
       effect="spiro"
       id="path-effect3150"
       is_visible="true" />
    <inkscape:path-effect
       effect="spiro"
       id="path-effect3142"
       is_visible="true" />
    <inkscape:path-effect
       effect="spiro"
       id="path-effect3134"
       is_visible="true" />
    <inkscape:path-effect
       effect="spiro"
       id="path-effect3130"
       is_visible="true" />
    <inkscape:path-effect
       effect="spiro"
       id="path-effect3126"
       is_visible="true" />
    <inkscape:path-effect
       effect="spiro"
       id="path-effect3122"
       is_visible="true" />
    <inkscape:path-effect
       effect="spiro"
       id="path-effect3118"
       is_visible="true" />
    <inkscape:path-effect
       effect="spiro"
       id="path-effect3114"
       is_visible="true" />
    <inkscape:path-effect
       effect="spiro"
       id="path-effect3110"
       is_visible="true" />
    <inkscape:path-effect
       effect="spiro"
       id="path-effect3106"
       is_visible="true" />
    <inkscape:path-effect
       effect="spiro"
       id="path-effect3102"
       is_visible="true" />
    <inkscape:path-effect
       effect="spiro"
       id="path-effect3098"
       is_visible="true" />
    <inkscape:path-effect
       effect="spiro"
       id="path-effect3094"
       is_visible="true" />
    <inkscape:path-effect
       effect="spiro"
       id="path-effect3090"
       is_visible="true" />
    <marker
       inkscape:stockid="Arrow1Lstart"
       orient="auto"
       refY="0"
       refX="0"
       id="Arrow1Lstart"
       style="overflow:visible">
      <path
         id="path3893"
         d="M 0,0 5,-5 -12.5,0 5,5 0,0 z"
         style="fill-rule:evenodd;stroke:#000000;stroke-width:1pt"
         transform="matrix(0.8,0,0,0.8,10,0)"
         inkscape:connector-curvature="0" />
    </marker>
    <marker
       inkscape:stockid="Arrow1Lend"
       orient="auto"
       refY="0"
       refX="0"
       id="Arrow1Lend"
       style="overflow:visible">
      <path
         id="path3896"
         d="M 0,0 5,-5 -12.5,0 5,5 0,0 z"
         style="fill-rule:evenodd;stroke:#000000;stroke-width:1pt"
         transform="matrix(-0.8,0,0,-0.8,-10,0)"
         inkscape:connector-curvature="0" />
    </marker>
    <marker
       inkscape:stockid="Arrow1Lend"
       orient="auto"
       refY="0"
       refX="0"
       id="Arrow1Lend-1"
       style="overflow:visible">
      <path
         inkscape:connector-curvature="0"
         id="path3896-3"
         d="M 0,0 5,-5 -12.5,0 5,5 0,0 z"
         style="fill-rule:evenodd;stroke:#000000;stroke-width:1pt"
         transform="matrix(-0.8,0,0,-0.8,-10,0)" />
    </marker>
    <marker
       inkscape:stockid="Arrow1Lend"
       orient="auto"
       refY="0"
       refX="0"
       id="marker4345"
       style="overflow:visible">
      <path
         inkscape:connector-curvature="0"
         id="path4347"
         d="M 0,0 5,-5 -12.5,0 5,5 0,0 z"
         style="fill-rule:evenodd;stroke:#000000;stroke-width:1pt"
         transform="matrix(-0.8,0,0,-0.8,-10,0)" />
    </marker>
    <marker
       inkscape:stockid="Arrow1Lend"
       orient="auto"
       refY="0"
       refX="0"
       id="marker4349"
       style="overflow:visible">
      <path
         inkscape:connector-curvature="0"
         id="path4351"
         d="M 0,0 5,-5 -12.5,0 5,5 0,0 z"
         style="fill-rule:evenodd;stroke:#000000;stroke-width:1pt"
         transform="matrix(-0.8,0,0,-0.8,-10,0)" />
    </marker>
    <marker
       inkscape:stockid="Arrow1Lend"
       orient="auto"
       refY="0"
       refX="0"
       id="marker4353"
       style="overflow:visible">
      <path
         inkscape:connector-curvature="0"
         id="path4355"
         d="M 0,0 5,-5 -12.5,0 5,5 0,0 z"
         style="fill-rule:evenodd;stroke:#000000;stroke-width:1pt"
         transform="matrix(-0.8,0,0,-0.8,-10,0)" />
    </marker>
    <marker
       inkscape:stockid="Arrow1Lend"
       orient="auto"
       refY="0"
       refX="0"
       id="marker4357"
       style="overflow:visible">
      <path
         inkscape:connector-curvature="0"
         id="path4359"
         d="M 0,0 5,-5 -12.5,0 5,5 0,0 z"
         style="fill-rule:evenodd;stroke:#000000;stroke-width:1pt"
         transform="matrix(-0.8,0,0,-0.8,-10,0)" />
    </marker>
    <marker
       inkscape:stockid="Arrow1Lend"
       orient="auto"
       refY="0"
       refX="0"
       id="marker4361"
       style="overflow:visible">
      <path
         inkscape:connector-curvature="0"
         id="path4363"
         d="M 0,0 5,-5 -12.5,0 5,5 0,0 z"
         style="fill-rule:evenodd;stroke:#000000;stroke-width:1pt"
         transform="matrix(-0.8,0,0,-0.8,-10,0)" />
    </marker>
    <marker
       inkscape:stockid="Arrow1Lend"
       orient="auto"
       refY="0"
       refX="0"
       id="marker4365"
       style="overflow:visible">
      <path
         inkscape:connector-curvature="0"
         id="path4367"
         d="M 0,0 5,-5 -12.5,0 5,5 0,0 z"
         style="fill-rule:evenodd;stroke:#000000;stroke-width:1pt"
         transform="matrix(-0.8,0,0,-0.8,-10,0)" />
    </marker>
    <marker
       inkscape:stockid="Arrow1Lend"
       orient="auto"
       refY="0"
       refX="0"
       id="marker4369"
       style="overflow:visible">
      <path
         inkscape:connector-curvature="0"
         id="path4371"
         d="M 0,0 5,-5 -12.5,0 5,5 0,0 z"
         style="fill-rule:evenodd;stroke:#000000;stroke-width:1pt"
         transform="matrix(-0.8,0,0,-0.8,-10,0)" />
    </marker>
    <inkscape:path-effect
       effect="spiro"
       id="path-effect3982-4"
       is_visible="true" />
    <inkscape:path-effect
       effect="spiro"
       id="path-effect3134-4"
       is_visible="true" />
    <inkscape:path-effect
       effect="spiro"
       id="path-effect3130-5"
       is_visible="true" />
    <inkscape:path-effect
       effect="spiro"
       id="path-effect3126-1"
       is_visible="true" />
    <inkscape:path-effect
       effect="spiro"
       id="path-effect3122-2"
       is_visible="true" />
    <inkscape:path-effect
       effect="spiro"
       id="path-effect3118-3"
       is_visible="true" />
    <inkscape:path-effect
       effect="spiro"
       id="path-effect3114-1"
       is_visible="true" />
    <inkscape:path-effect
       effect="spiro"
       id="path-effect3110-8"
       is_visible="true" />
    <inkscape:path-effect
       effect="spiro"
       id="path-effect3106-9"
       is_visible="true" />
    <inkscape:path-effect
       effect="spiro"
       id="path-effect3102-7"
       is_visible="true" />
    <inkscape:path-effect
       effect="spiro"
       id="path-effect3098-2"
       is_visible="true" />
    <inkscape:path-effect
       effect="spiro"
       id="path-effect3094-5"
       is_visible="true" />
    <inkscape:path-effect
       effect="spiro"
       id="path-effect3090-2"
       is_visible="true" />
    <inkscape:path-effect
       effect="spiro"
       id="path-effect3982-4-2"
       is_visible="true" />
    <inkscape:path-effect
       effect="spiro"
       id="path-effect3134-4-0"
       is_visible="true" />
    <inkscape:path-effect
       effect="spiro"
       id="path-effect3130-5-0"
       is_visible="true" />
    <inkscape:path-effect
       effect="spiro"
       id="path-effect3126-1-9"
       is_visible="true" />
    <inkscape:path-effect
       effect="spiro"
       id="path-effect3122-2-4"
       is_visible="true" />
    <inkscape:path-effect
       effect="spiro"
       id="path-effect3118-3-7"
       is_visible="true" />
    <inkscape:path-effect
       effect="spiro"
       id="path-effect3114-1-6"
       is_visible="true" />
    <inkscape:path-effect
       effect="spiro"
       id="path-effect3110-8-8"
       is_visible="true" />
    <inkscape:path-effect
       effect="spiro"
       id="path-effect3106-9-3"
       is_visible="true" />
    <inkscape:path-effect
       effect="spiro"
       id="path-effect3102-7-9"
       is_visible="true" />
    <inkscape:path-effect
       effect="spiro"
       id="path-effect3098-2-5"
       is_visible="true" />
    <inkscape:path-effect
       effect="spiro"
       id="path-effect3094-5-3"
       is_visible="true" />
    <inkscape:path-effect
       effect="spiro"
       id="path-effect3090-2-3"
       is_visible="true" />
    <inkscape:path-effect
       effect="spiro"
       id="path-effect3090-2-4"
       is_visible="true" />
    <inkscape:path-effect
       effect="spiro"
       id="path-effect3094-5-6"
       is_visible="true" />
    <inkscape:path-effect
       effect="spiro"
       id="path-effect3098-2-3"
       is_visible="true" />
    <inkscape:path-effect
       effect="spiro"
       id="path-effect3102-7-5"
       is_visible="true" />
    <inkscape:path-effect
       effect="spiro"
       id="path-effect3106-9-5"
       is_visible="true" />
    <inkscape:path-effect
       effect="spiro"
       id="path-effect3110-8-6"
       is_visible="true" />
    <inkscape:path-effect
       effect="spiro"
       id="path-effect3114-1-9"
       is_visible="true" />
    <inkscape:path-effect
       effect="spiro"
       id="path-effect3118-3-78"
       is_visible="true" />
    <inkscape:path-effect
       effect="spiro"
       id="path-effect3122-2-2"
       is_visible="true" />
    <inkscape:path-effect
       effect="spiro"
       id="path-effect3126-1-2"
       is_visible="true" />
    <inkscape:path-effect
       effect="spiro"
       id="path-effect3130-5-3"
       is_visible="true" />
    <inkscape:path-effect
       effect="spiro"
       id="path-effect3134-4-7"
       is_visible="true" />
    <inkscape:path-effect
       effect="spiro"
       id="path-effect3982-4-1"
       is_visible="true" />
    <marker
       inkscape:stockid="Arrow1Lend"
       orient="auto"
       refY="0"
       refX="0"
       id="marker4369-8"
       style="overflow:visible">
      <path
         inkscape:connector-curvature="0"
         id="path4371-5"
         d="M 0,0 5,-5 -12.5,0 5,5 0,0 z"
         style="fill-rule:evenodd;stroke:#000000;stroke-width:1pt"
         transform="matrix(-0.8,0,0,-0.8,-10,0)" />
    </marker>
    <inkscape:path-effect
       effect="spiro"
       id="path-effect6235-6"
       is_visible="true" />
    <marker
       inkscape:stockid="Arrow1Lend"
       orient="auto"
       refY="0"
       refX="0"
       id="marker6931"
       style="overflow:visible">
      <path
         inkscape:connector-curvature="0"
         id="path6933"
         d="M 0,0 5,-5 -12.5,0 5,5 0,0 z"
         style="fill-rule:evenodd;stroke:#000000;stroke-width:1pt"
         transform="matrix(-0.8,0,0,-0.8,-10,0)" />
    </marker>
    <inkscape:path-effect
       effect="spiro"
       id="path-effect6231-2"
       is_visible="true" />
    <marker
       inkscape:stockid="Arrow1Lend"
       orient="auto"
       refY="0"
       refX="0"
       id="marker6936"
       style="overflow:visible">
      <path
         inkscape:connector-curvature="0"
         id="path6938"
         d="M 0,0 5,-5 -12.5,0 5,5 0,0 z"
         style="fill-rule:evenodd;stroke:#000000;stroke-width:1pt"
         transform="matrix(-0.8,0,0,-0.8,-10,0)" />
    </marker>
    <inkscape:path-effect
       effect="spiro"
       id="path-effect6227-8"
       is_visible="true" />
  </defs>
  <sodipodi:namedview
     id="base"
     pagecolor="#ffffff"
     bordercolor="#666666"
     borderopacity="1.0"
     inkscape:pageopacity="0.0"
     inkscape:pageshadow="2"
     inkscape:zoom="5.6568542"
     inkscape:cx="168.86338"
     inkscape:cy="251.88833"
     inkscape:document-units="px"
     inkscape:current-layer="layer1"
     showgrid="false"
     inkscape:object-nodes="false"
     inkscape:snap-grids="true"
     inkscape:snap-page="true"
     inkscape:connector-spacing="57"
     fit-margin-top="8"
     fit-margin-left="8"
     fit-margin-bottom="8"
     fit-margin-right="8"
     inkscape:window-width="1920"
     inkscape:window-height="991"
     inkscape:window-x="0"
     inkscape:window-y="28"
     inkscape:window-maximized="1" />
  <metadata
     id="metadata7">
    <rdf:RDF>
      <cc:Work
         rdf:about="">
        <dc:format>image/svg+xml</dc:format>
        <dc:type
           rdf:resource="http://purl.org/dc/dcmitype/StillImage" />
        <dc:title></dc:title>
      </cc:Work>
    </rdf:RDF>
  </metadata>
  <g
     inkscape:label="Layer 1"
     inkscape:groupmode="layer"
     id="layer1"
     transform="translate(-419.99635,621.42884)">
    <text
       xml:space="preserve"
       style="font-size:20px;font-style:normal;font-weight:normal;line-height:125%;letter-spacing:0px;word-spacing:0px;fill:#000000;fill-opacity:1;stroke:none;font-family:Sans"
       x="116"
       y="221"
       id="text5870"
       sodipodi:linespacing="125%"
       transform="translate(297.61884,-366.95265)"><tspan
         sodipodi:role="line"
         id="tspan5872"
         x="116"
         y="221"></tspan></text>
    <path
       sodipodi:type="arc"
       style="fill:#eeffaa;stroke:#000000;stroke-width:0.11373234000000000;stroke-linecap:butt;stroke-miterlimit:4;stroke-opacity:1;stroke-dasharray:none;stroke-dashoffset:0;fill-opacity:1"
       id="path11350"
       sodipodi:cx="355.5"
       sodipodi:cy="144.5"
       sodipodi:rx="44.5"
       sodipodi:ry="44.5"
       d="m 400,144.5 c 0,24.57667 -19.92333,44.5 -44.5,44.5 -24.57667,0 -44.5,-19.92333 -44.5,-44.5 0,-24.57667 19.92333,-44.5 44.5,-44.5 24.57667,0 44.5,19.92333 44.5,44.5 z"
       transform="matrix(0.87925736,0,0,0.87925736,315.30726,-540.59573)" />
    <path
       sodipodi:type="arc"
       style="fill:#2600c8;fill-opacity:1;stroke:none"
       id="path3755-7-5-3-8-6"
       sodipodi:cx="102.5"
       sodipodi:cy="199.86218"
       sodipodi:rx="10.5"
       sodipodi:ry="10.5"
       d="m 113,199.86218 c 0,5.79899 -4.70101,10.5 -10.5,10.5 -5.79899,0 -10.5,-4.70101 -10.5,-10.5 0,-5.79899 4.70101,-10.5 10.5,-10.5 5.79899,0 10.5,4.70101 10.5,10.5 z"
       transform="matrix(0.762737,0,0,0.762737,550.98175,-567.39965)" />
    <path
       transform="matrix(1.774989,0,0,1.774989,-3.1256994,-670.02906)"
       d="m 400,144.5 c 0,24.57667 -19.92333,44.5 -44.5,44.5 -24.57667,0 -44.5,-19.92333 -44.5,-44.5 0,-24.57667 19.92333,-44.5 44.5,-44.5 24.57667,0 44.5,19.92333 44.5,44.5 z"
       sodipodi:ry="44.5"
       sodipodi:rx="44.5"
       sodipodi:cy="144.5"
       sodipodi:cx="355.5"
       id="path11390"
       style="fill:none;stroke:#000000;stroke-width:0.05633838;stroke-linecap:butt;stroke-miterlimit:4;stroke-opacity:1;stroke-dasharray:none;stroke-dashoffset:0"
       sodipodi:type="arc" />
    <path
       sodipodi:type="arc"
       style="fill:none;stroke:#000000;stroke-width:0.03733686;stroke-linecap:butt;stroke-miterlimit:4;stroke-opacity:1;stroke-dasharray:none;stroke-dashoffset:0"
       id="path11392"
       sodipodi:cx="355.5"
       sodipodi:cy="144.5"
       sodipodi:rx="44.5"
       sodipodi:ry="44.5"
       d="m 400,144.5 c 0,24.57667 -19.92333,44.5 -44.5,44.5 -24.57667,0 -44.5,-19.92333 -44.5,-44.5 0,-24.57667 19.92333,-44.5 44.5,-44.5 24.57667,0 44.5,19.92333 44.5,44.5 z"
       transform="matrix(2.6783186,0,0,2.6783186,-324.25928,-800.56039)" />
    <path
       sodipodi:type="arc"
       style="fill:none;stroke:#000000;stroke-width:0.02226982;stroke-linecap:butt;stroke-miterlimit:4;stroke-opacity:1;stroke-dasharray:none;stroke-dashoffset:0"
       id="path11396"
       sodipodi:cx="355.5"
       sodipodi:cy="144.5"
       sodipodi:rx="44.5"
       sodipodi:ry="44.5"
       d="m 400,144.5 c 0,24.57667 -19.92333,44.5 -44.5,44.5 -24.57667,0 -44.5,-19.92333 -44.5,-44.5 0,-24.57667 19.92333,-44.5 44.5,-44.5 24.57667,0 44.5,19.92333 44.5,44.5 z"
       transform="matrix(4.4903826,0,0,4.4903826,-968.45014,-1062.4046)" />
    <path
       transform="matrix(3.5836231,0,0,3.5836231,-646.09595,-931.37574)"
       d="m 400,144.5 c 0,24.57667 -19.92333,44.5 -44.5,44.5 -24.57667,0 -44.5,-19.92333 -44.5,-44.5 0,-24.57667 19.92333,-44.5 44.5,-44.5 24.57667,0 44.5,19.92333 44.5,44.5 z"
       sodipodi:ry="44.5"
       sodipodi:rx="44.5"
       sodipodi:cy="144.5"
       sodipodi:cx="355.5"
       id="path11398"
       style="fill:none;stroke:#000000;stroke-width:0.02790472;stroke-linecap:butt;stroke-miterlimit:4;stroke-opacity:1;stroke-dasharray:none;stroke-dashoffset:0"
       sodipodi:type="arc" />
    <path
       sodipodi:type="arc"
       style="fill:#2600c8;fill-opacity:1;stroke:none"
       id="path3755-7-5-3-8-6-6"
       sodipodi:cx="102.5"
       sodipodi:cy="199.86218"
       sodipodi:rx="10.5"
       sodipodi:ry="10.5"
       d="m 113,199.86218 c 0,5.79899 -4.70101,10.5 -10.5,10.5 -5.79899,0 -10.5,-4.70101 -10.5,-10.5 0,-5.79899 4.70101,-10.5 10.5,-10.5 5.79899,0 10.5,4.70101 10.5,10.5 z"
       transform="matrix(0.762737,0,0,0.762737,601.7026,-590.98536)" />
    <text
       xml:space="preserve"
       style="font-size:20px;font-style:normal;font-weight:normal;line-height:125%;letter-spacing:0px;word-spacing:0px;fill:#000000;fill-opacity:1;stroke:none;font-family:Sans"
       x="637.44641"
       y="-404.85092"
       id="text4095-6"
       sodipodi:linespacing="125%"><tspan
         sodipodi:role="line"
         id="tspan4097-6"
         x="637.44641"
         y="-404.85092">x</tspan></text>
    <path
       sodipodi:type="arc"
       style="fill:#2600c8;fill-opacity:1;stroke:none"
       id="path3755-7-5-3-8-6-6-0"
       sodipodi:cx="102.5"
       sodipodi:cy="199.86218"
       sodipodi:rx="10.5"
       sodipodi:ry="10.5"
       d="m 113,199.86218 c 0,5.79899 -4.70101,10.5 -10.5,10.5 -5.79899,0 -10.5,-4.70101 -10.5,-10.5 0,-5.79899 4.70101,-10.5 10.5,-10.5 5.79899,0 10.5,4.70101 10.5,10.5 z"
       transform="matrix(0.762737,0,0,0.762737,560.70261,-508.98536)" />
    <path
       sodipodi:type="arc"
       style="fill:#2600c8;fill-opacity:1;stroke:none"
       id="path3755-7-5-3-8-6-6-4"
       sodipodi:cx="102.5"
       sodipodi:cy="199.86218"
       sodipodi:rx="10.5"
       sodipodi:ry="10.5"
       d="m 113,199.86218 c 0,5.79899 -4.70101,10.5 -10.5,10.5 -5.79899,0 -10.5,-4.70101 -10.5,-10.5 0,-5.79899 4.70101,-10.5 10.5,-10.5 5.79899,0 10.5,4.70101 10.5,10.5 z"
       transform="matrix(0.762737,0,0,-0.762737,538.70261,-316.1008)" />
    <path
       sodipodi:type="arc"
       style="fill:#2600c8;fill-opacity:1;stroke:none"
       id="path3755-7-5-3-8-6-6-1"
       sodipodi:cx="102.5"
       sodipodi:cy="199.86218"
       sodipodi:rx="10.5"
       sodipodi:ry="10.5"
       d="m 113,199.86218 c 0,5.79899 -4.70101,10.5 -10.5,10.5 -5.79899,0 -10.5,-4.70101 -10.5,-10.5 0,-5.79899 4.70101,-10.5 10.5,-10.5 5.79899,0 10.5,4.70101 10.5,10.5 z"
       transform="matrix(0.762737,0,0,0.762737,584.70261,-658.98536)" />
    <path
       sodipodi:type="arc"
       style="fill:#2600c8;fill-opacity:1;stroke:none"
       id="path3755-7-5-3-8-6-6-9"
       sodipodi:cx="102.5"
       sodipodi:cy="199.86218"
       sodipodi:rx="10.5"
       sodipodi:ry="10.5"
       d="m 113,199.86218 c 0,5.79899 -4.70101,10.5 -10.5,10.5 -5.79899,0 -10.5,-4.70101 -10.5,-10.5 0,-5.79899 4.70101,-10.5 10.5,-10.5 5.79899,0 10.5,4.70101 10.5,10.5 z"
       transform="matrix(0.762737,0,0,0.762737,455.70261,-533.98536)" />
    <path
       sodipodi:type="arc"
       style="fill:#2600c8;fill-opacity:1;stroke:none"
       id="path3755-7-5-3-8-6-6-6"
       sodipodi:cx="102.5"
       sodipodi:cy="199.86218"
       sodipodi:rx="10.5"
       sodipodi:ry="10.5"
       d="m 113,199.86218 c 0,5.79899 -4.70101,10.5 -10.5,10.5 -5.79899,0 -10.5,-4.70101 -10.5,-10.5 0,-5.79899 4.70101,-10.5 10.5,-10.5 5.79899,0 10.5,4.70101 10.5,10.5 z"
       transform="matrix(0.762737,0,0,0.762737,645.70261,-559.98536)" />
    <path
       sodipodi:type="arc"
       style="fill:#2600c8;fill-opacity:1;stroke:none"
       id="path3755-7-5-3-8-6-6-41"
       sodipodi:cx="102.5"
       sodipodi:cy="199.86218"
       sodipodi:rx="10.5"
       sodipodi:ry="10.5"
       d="m 113,199.86218 c 0,5.79899 -4.70101,10.5 -10.5,10.5 -5.79899,0 -10.5,-4.70101 -10.5,-10.5 0,-5.79899 4.70101,-10.5 10.5,-10.5 5.79899,0 10.5,4.70101 10.5,10.5 z"
       transform="matrix(0.762737,0,0,0.762737,672.7026,-630.98536)" />
    <path
       sodipodi:type="arc"
       style="fill:#2600c8;fill-opacity:1;stroke:none"
       id="path3755-7-5-3-8-6-6-3"
       sodipodi:cx="102.5"
       sodipodi:cy="199.86218"
       sodipodi:rx="10.5"
       sodipodi:ry="10.5"
       d="m 113,199.86218 c 0,5.79899 -4.70101,10.5 -10.5,10.5 -5.79899,0 -10.5,-4.70101 -10.5,-10.5 0,-5.79899 4.70101,-10.5 10.5,-10.5 5.79899,0 10.5,4.70101 10.5,10.5 z"
       transform="matrix(0.762737,0,0,0.762737,414.70261,-600.98536)" />
    <path
       sodipodi:type="arc"
       style="fill:#2600c8;fill-opacity:1;stroke:none"
       id="path3755-7-5-3-8-6-6-34"
       sodipodi:cx="102.5"
       sodipodi:cy="199.86218"
       sodipodi:rx="10.5"
       sodipodi:ry="10.5"
       d="m 113,199.86218 c 0,5.79899 -4.70101,10.5 -10.5,10.5 -5.79899,0 -10.5,-4.70101 -10.5,-10.5 0,-5.79899 4.70101,-10.5 10.5,-10.5 5.79899,0 10.5,4.70101 10.5,10.5 z"
       transform="matrix(0.762737,0,0,0.762737,465.7026,-456.98536)" />
    <path
       style="fill:#eeffaa;fill-opacity:1;stroke:#000000;stroke-width:0.07071068;stroke-linecap:butt;stroke-miterlimit:4;stroke-opacity:1;stroke-dasharray:none;stroke-dashoffset:0"
       d="M 269.48232,503.98705 C 195.66413,495.04339 133.00021,446.01236 106.558,376.50781 94.288741,344.25751 90.687165,307.09358 96.474913,272.46251 105.69441,217.29747 139.30373,167.23566 187.41549,137.00452 c 59.77114,-37.557325 135.59479,-40.346473 198.50849,-7.30207 17.93645,9.42084 32.24855,20.09129 47.7795,35.62224 22.69619,22.69619 37.53961,46.30128 47.80632,76.02512 7.4364,21.52961 10.65841,41.41628 10.59722,65.40738 -0.0767,30.08566 -6.18583,57.42373 -18.8282,84.2559 -29.40781,62.41516 -88.88422,104.96638 -158.02253,113.0541 -10.95227,1.28118 -34.88385,1.23929 -45.77397,-0.0801 l 0,0 z m 47.43661,-39.86702 c 35.94645,-5.85727 66.34118,-21.64198 91.16303,-47.34314 29.11638,-30.14782 44.35793,-67.99457 44.44925,-110.37326 0.0583,-27.07549 -5.22049,-49.53118 -17.13929,-72.90916 -15.54859,-30.49755 -39.72131,-54.56965 -70.41329,-70.12018 -22.99709,-11.6518 -45.56411,-16.971 -72.00054,-16.971 -26.47962,0 -48.95916,5.30698 -72.12489,17.02728 -9.18015,4.64454 -21.57451,12.55149 -28.27399,18.03731 -5.70752,4.67357 -17.80722,16.66293 -22.64927,22.44272 -21.40386,25.54908 -34.39265,58.60286 -36.31475,92.41344 -2.7092,47.65626 14.47517,91.83975 48.49412,124.68539 23.48149,22.67161 52.06668,37.04095 85.05939,42.75808 12.92453,2.23963 37.11692,2.41104 49.75023,0.35252 z"
       id="path11588"
       inkscape:connector-curvature="0"
       transform="translate(334.88315,-719.54308)" />
    <path
       style="fill:#eeffaa;fill-opacity:1;stroke:#000000;stroke-width:0.07071068;stroke-linecap:butt;stroke-miterlimit:4;stroke-opacity:1;stroke-dasharray:none;stroke-dashoffset:0"
       d="m 273.88621,423.08979 c -13.09695,-2.32191 -22.04949,-5.23773 -33.62054,-10.95012 -32.64978,-16.11853 -55.73155,-46.137 -63.63192,-82.75507 -2.34936,-10.88922 -2.72275,-30.47216 -0.79546,-41.7193 4.4472,-25.95263 15.44066,-47.52891 33.33339,-65.42164 22.65295,-22.65294 51.75712,-34.70538 83.80641,-34.70538 32.12546,0 61.09963,11.9986 83.80642,34.70538 22.71626,22.71626 34.65896,51.56192 34.62128,83.62203 -0.0215,18.3048 -2.93716,32.09972 -10.32531,48.85248 -14.18763,32.17068 -44.23074,57.46838 -78.60476,66.1889 -15.00055,3.80555 -34.49593,4.68132 -48.58951,2.18272 l 0,0 z m 26.61836,-38.23295 c 18.58404,-1.88498 33.79895,-8.76432 46.83527,-21.17631 14.64899,-13.94742 22.45025,-29.99564 24.52512,-50.45138 1.62281,-15.99905 -2.40051,-34.3526 -10.39465,-47.41826 -18.96046,-30.98902 -53.8464,-45.36671 -88.5674,-36.50165 -23.9426,6.11309 -44.07128,23.74778 -53.29685,46.69323 -9.93697,24.71484 -7.07751,52.3252 7.74345,74.76895 3.8772,5.87132 13.12661,15.26755 19.29305,19.59926 11.76903,8.26735 24.14364,13.01705 37.57022,14.42045 8.45438,0.88368 8.23609,0.8828 16.29179,0.0657 l 0,2e-5 z m -95.84411,-41.25939 c 2.00186,-2.00187 2.40416,-2.92212 2.40416,-5.49952 0,-3.53445 -1.30774,-5.78142 -4.25045,-7.30315 -6.1092,-3.15919 -12.7021,1.55718 -11.78078,8.42762 0.55628,4.14832 3.65372,6.77921 7.98137,6.77921 2.74364,0 3.61081,-0.36927 5.6457,-2.40416 l 0,0 z m 189.23412,-24.72603 c 1.49602,-0.93428 3.38176,-4.66754 3.38176,-6.69499 0,-5.92889 -6.02074,-9.9454 -11.48548,-7.66209 -3.16063,1.3206 -4.77797,3.96781 -4.77797,7.82043 0,6.38271 7.24299,10.05807 12.88169,6.53665 l 0,0 z m -61.08267,-99.22749 c 2.25678,-1.41084 3.81052,-5.37452 3.25907,-8.31404 -1.45935,-7.77899 -12.54565,-8.66379 -15.64394,-1.24855 -3.13767,7.50951 5.27662,14.00635 12.38487,9.56259 z"
       id="path11590"
       inkscape:connector-curvature="0"
       transform="translate(334.88315,-719.54308)" />
    <path
       sodipodi:type="arc"
       style="fill:#2600c8;fill-opacity:1;stroke:none"
       id="path3755-7-5-3-8-6-6-0-4"
       sodipodi:cx="102.5"
       sodipodi:cy="199.86218"
       sodipodi:rx="10.5"
       sodipodi:ry="10.5"
       d="m 113,199.86218 c 0,5.79899 -4.70101,10.5 -10.5,10.5 -5.79899,0 -10.5,-4.70101 -10.5,-10.5 0,-5.79899 4.70101,-10.5 10.5,-10.5 5.79899,0 10.5,4.70101 10.5,10.5 z"
       transform="matrix(0.762737,0,0,0.762737,405.90214,-677.15755)" />
    <path
       sodipodi:type="arc"
       style="fill:#2600c8;fill-opacity:1;stroke:none"
       id="path3755-7-5-3-8-6-6-0-8"
       sodipodi:cx="102.5"
       sodipodi:cy="199.86218"
       sodipodi:rx="10.5"
       sodipodi:ry="10.5"
       d="m 113,199.86218 c 0,5.79899 -4.70101,10.5 -10.5,10.5 -5.79899,0 -10.5,-4.70101 -10.5,-10.5 0,-5.79899 4.70101,-10.5 10.5,-10.5 5.79899,0 10.5,4.70101 10.5,10.5 z"
       transform="matrix(0.762737,0,0,0.762737,668.94586,-703.32049)" />
    <path
       sodipodi:type="arc"
       style="fill:#2600c8;fill-opacity:1;stroke:none"
       id="path3755-7-5-3-8-6-6-0-7"
       sodipodi:cx="102.5"
       sodipodi:cy="199.86218"
       sodipodi:rx="10.5"
       sodipodi:ry="10.5"
       d="m 113,199.86218 c 0,5.79899 -4.70101,10.5 -10.5,10.5 -5.79899,0 -10.5,-4.70101 -10.5,-10.5 0,-5.79899 4.70101,-10.5 10.5,-10.5 5.79899,0 10.5,4.70101 10.5,10.5 z"
       transform="matrix(0.762737,0,0,0.762737,660.46058,-478.46055)" />
    <path
       sodipodi:type="arc"
       style="fill:#2600c8;fill-opacity:1;stroke:none"
       id="path3755-7-5-3-8-6-6-0-9"
       sodipodi:cx="102.5"
       sodipodi:cy="199.86218"
       sodipodi:rx="10.5"
       sodipodi:ry="10.5"
       d="m 113,199.86218 c 0,5.79899 -4.70101,10.5 -10.5,10.5 -5.79899,0 -10.5,-4.70101 -10.5,-10.5 0,-5.79899 4.70101,-10.5 10.5,-10.5 5.79899,0 10.5,4.70101 10.5,10.5 z"
       transform="matrix(0.762737,0,0,0.762737,649.85398,-414.82093)" />
    <path
       sodipodi:type="arc"
       style="fill:#2600c8;fill-opacity:1;stroke:none"
       id="path3755-7-5-3-8-6-6-0-80"
       sodipodi:cx="102.5"
       sodipodi:cy="199.86218"
       sodipodi:rx="10.5"
       sodipodi:ry="10.5"
       d="m 113,199.86218 c 0,5.79899 -4.70101,10.5 -10.5,10.5 -5.79899,0 -10.5,-4.70101 -10.5,-10.5 0,-5.79899 4.70101,-10.5 10.5,-10.5 5.79899,0 10.5,4.70101 10.5,10.5 z"
       transform="matrix(0.762737,0,0,0.762737,511.96816,-699.07785)" />
    <path
       style="fill:none;stroke:#000000;stroke-width:1px;stroke-linecap:butt;stroke-linejoin:miter;stroke-opacity:1"
       d="m 301,300.5 36.5,-16"
       id="path11659"
       inkscape:path-effect="#path-effect11661"
       inkscape:original-d="m 301,300.5 36.5,-16"
       inkscape:connector-curvature="0"
       transform="translate(334.88315,-719.54308)" />
    <path
       style="fill:none;stroke:#000000;stroke-width:1px;stroke-linecap:butt;stroke-linejoin:miter;stroke-opacity:1"
       d="M 292,296.5 283,258"
       id="path11663"
       inkscape:path-effect="#path-effect11665"
       inkscape:original-d="M 292,296.5 283,258"
       inkscape:connector-curvature="0"
       transform="translate(334.88315,-719.54308)" />
    <path
       style="fill:none;stroke:#000000;stroke-width:1px;stroke-linecap:butt;stroke-linejoin:miter;stroke-opacity:1"
       d="m 296,312.5 6.5,42"
       id="path11667"
       inkscape:path-effect="#path-effect11669"
       inkscape:original-d="m 296,312.5 6.5,42"
       inkscape:connector-curvature="0"
       transform="translate(334.88315,-719.54308)" />
    <path
       style="fill:none;stroke:#000000;stroke-width:1px;stroke-linecap:butt;stroke-linejoin:miter;stroke-opacity:1"
       d="m 286,244 35.5,-26"
       id="path11671"
       inkscape:path-effect="#path-effect11673"
       inkscape:original-d="m 286,244 35.5,-26"
       inkscape:connector-curvature="0"
       transform="translate(334.88315,-719.54308)" />
    <path
       style="fill:none;stroke:#000000;stroke-width:1px;stroke-linecap:butt;stroke-linejoin:miter;stroke-opacity:1"
       d="M 342.5,272 330,221"
       id="path11675"
       inkscape:path-effect="#path-effect11677"
       inkscape:original-d="M 342.5,272 330,221"
       inkscape:connector-curvature="0"
       transform="translate(334.88315,-719.54308)" />
    <path
       style="fill:none;stroke:#000000;stroke-width:1px;stroke-linecap:butt;stroke-linejoin:miter;stroke-opacity:1"
       d="m 352.5,284.5 29,22.5"
       id="path11679"
       inkscape:path-effect="#path-effect11681"
       inkscape:original-d="m 352.5,284.5 29,22.5"
       inkscape:connector-curvature="0"
       transform="translate(334.88315,-719.54308)" />
    <path
       style="fill:none;stroke:#000000;stroke-width:1px;stroke-linecap:butt;stroke-linejoin:miter;stroke-opacity:1"
       d="m 295.5,364 -89,-26.5"
       id="path11683"
       inkscape:path-effect="#path-effect11685"
       inkscape:original-d="m 295.5,364 -89,-26.5"
       inkscape:connector-curvature="0"
       transform="translate(334.88315,-719.54308)" />
    <path
       style="fill:none;stroke:#000000;stroke-width:1px;stroke-linecap:butt;stroke-linejoin:miter;stroke-opacity:1"
       d="m 208,406.5 -9.5,-61"
       id="path11687"
       inkscape:path-effect="#path-effect11689"
       inkscape:original-d="m 208,406.5 -9.5,-61"
       inkscape:connector-curvature="0"
       transform="translate(334.88315,-719.54308)" />
    <path
       style="fill:none;stroke:#000000;stroke-width:1px;stroke-linecap:butt;stroke-linejoin:miter;stroke-opacity:1"
       d="M 193.5,331.5 164,277"
       id="path11691"
       inkscape:path-effect="#path-effect11693"
       inkscape:original-d="M 193.5,331.5 164,277"
       inkscape:connector-curvature="0"
       transform="translate(334.88315,-719.54308)" />
    <path
       style="fill:none;stroke:#000000;stroke-width:1px;stroke-linecap:butt;stroke-linejoin:miter;stroke-opacity:1"
       d="m 162,264 86.5,-86"
       id="path11695"
       inkscape:path-effect="#path-effect11697"
       inkscape:original-d="m 162,264 86.5,-86"
       inkscape:connector-curvature="0"
       transform="translate(334.88315,-719.54308)" />
    <path
       style="fill:none;stroke:#000000;stroke-width:1px;stroke-linecap:butt;stroke-linejoin:miter;stroke-opacity:1"
       d="M 322.5,207 262,176.5"
       id="path11699"
       inkscape:path-effect="#path-effect11701"
       inkscape:original-d="M 322.5,207 262,176.5"
       inkscape:connector-curvature="0"
       transform="translate(334.88315,-719.54308)" />
    <path
       style="fill:none;stroke:#000000;stroke-width:1px;stroke-linecap:butt;stroke-linejoin:miter;stroke-opacity:1"
       d="m 156.5,262.5 -8,-60.5"
       id="path11707"
       inkscape:path-effect="#path-effect11709"
       inkscape:original-d="m 156.5,262.5 -8,-60.5"
       inkscape:connector-curvature="0"
       transform="translate(334.88315,-719.54308)" />
    <path
       style="fill:none;stroke:#000000;stroke-width:1px;stroke-linecap:butt;stroke-linejoin:miter;stroke-opacity:1"
       d="m 391,319 10.5,66"
       id="path11711"
       inkscape:path-effect="#path-effect11713"
       inkscape:original-d="m 391,319 10.5,66"
       inkscape:connector-curvature="0"
       transform="translate(334.88315,-719.54308)" />
    <path
       style="fill:none;stroke:#000000;stroke-width:1px;stroke-linecap:butt;stroke-linejoin:miter;stroke-opacity:1"
       d="m 392,303.5 20.5,-56"
       id="path11715"
       inkscape:path-effect="#path-effect11717"
       inkscape:original-d="m 392,303.5 20.5,-56"
       inkscape:connector-curvature="0"
       transform="translate(334.88315,-719.54308)" />
    <path
       style="fill:none;stroke:#000000;stroke-width:1px;stroke-linecap:butt;stroke-linejoin:miter;stroke-opacity:1"
       d="m 415,233 -3,-57"
       id="path11719"
       inkscape:path-effect="#path-effect11721"
       inkscape:original-d="m 415,233 -3,-57"
       inkscape:connector-curvature="0"
       transform="translate(334.88315,-719.54308)" />
    <path
       style="fill:none;stroke:#000000;stroke-width:1px;stroke-linecap:butt;stroke-linejoin:miter;stroke-opacity:1"
       d="M 403,401.5 395,449"
       id="path11723"
       inkscape:path-effect="#path-effect11725"
       inkscape:original-d="M 403,401.5 395,449"
       inkscape:connector-curvature="0"
       transform="translate(334.88315,-719.54308)" />
    <path
       style="fill:none;stroke:#000000;stroke-width:1px;stroke-linecap:butt;stroke-linejoin:miter;stroke-opacity:1"
       d="M 216,419.5 384.5,456"
       id="path11727"
       inkscape:path-effect="#path-effect11729"
       inkscape:original-d="M 216,419.5 384.5,456"
       inkscape:connector-curvature="0"
       transform="translate(334.88315,-719.54308)" />
    <path
       style="fill:none;stroke:#000000;stroke-width:1px;stroke-linecap:butt;stroke-linejoin:miter;stroke-opacity:1"
       d="M 262.5,170 404,170"
       id="path11731"
       inkscape:path-effect="#path-effect11733"
       inkscape:original-d="M 262.5,170 404,170"
       inkscape:connector-curvature="0"
       transform="translate(334.88315,-719.54308)" />
    <g
       id="g11870"
       transform="translate(155.56349,-227.68838)">
      <text
         transform="translate(419.99635,-621.42884)"
         sodipodi:linespacing="125%"
         id="text11765"
         y="385.36346"
         x="16.970564"
         style="font-size:20px;font-style:normal;font-weight:normal;line-height:125%;letter-spacing:0px;word-spacing:0px;fill:#000000;fill-opacity:1;stroke:none;font-family:Sans"
         xml:space="preserve"><tspan
           y="385.36346"
           x="16.970564"
           id="tspan11767"
           sodipodi:role="line">t<tspan
   id="tspan11769"
   style="font-size:65.00091553%;baseline-shift:sub">x</tspan></tspan></text>
      <text
         sodipodi:linespacing="125%"
         id="text11771"
         y="-246.2401"
         x="445.88721"
         style="font-size:9.60426617px;font-style:normal;font-weight:normal;line-height:125%;letter-spacing:0px;word-spacing:0px;fill:#000000;fill-opacity:1;stroke:none;font-family:Sans"
         xml:space="preserve"><tspan
           y="-246.2401"
           x="445.88721"
           id="tspan11773"
           sodipodi:role="line">1</tspan></text>
    </g>
    <g
       id="g11877"
       transform="translate(235.11301,-160.51324)">
      <text
         sodipodi:linespacing="125%"
         id="text11765-1"
         y="-222.6436"
         x="469.97391"
         style="font-size:20px;font-style:normal;font-weight:normal;line-height:125%;letter-spacing:0px;word-spacing:0px;fill:#000000;fill-opacity:1;stroke:none;font-family:Sans"
         xml:space="preserve"><tspan
           y="-222.6436"
           x="469.97391"
           id="tspan11767-9"
           sodipodi:role="line">t<tspan
   id="tspan11769-4"
   style="font-size:65.00091553%;baseline-shift:sub">x</tspan></tspan></text>
      <text
         sodipodi:linespacing="125%"
         id="text11771-4"
         y="-232.81834"
         x="478.89423"
         style="font-size:9.60426617px;font-style:normal;font-weight:normal;line-height:125%;letter-spacing:0px;word-spacing:0px;fill:#000000;fill-opacity:1;stroke:none;font-family:Sans"
         xml:space="preserve"><tspan
           y="-232.81834"
           x="478.89423"
           id="tspan11773-9"
           sodipodi:role="line">2</tspan></text>
    </g>
    <g
       id="g11860"
       transform="translate(52.679455,-25.102291)">
      <text
         sodipodi:linespacing="125%"
         id="text11765-4"
         y="-272.76318"
         x="432.8508"
         style="font-size:20px;font-style:normal;font-weight:normal;line-height:125%;letter-spacing:0px;word-spacing:0px;fill:#000000;fill-opacity:1;stroke:none;font-family:Sans"
         xml:space="preserve"><tspan
           y="-272.76318"
           x="432.8508"
           id="tspan11767-0"
           sodipodi:role="line">t<tspan
   id="tspan11829"
   style="font-size:65.00091553%;baseline-shift:sub">x</tspan>=t<tspan
   id="tspan11833"
   style="font-size:65.00091553%;baseline-shift:sub">x</tspan></tspan></text>
      <text
         sodipodi:linespacing="125%"
         id="text11771-9"
         y="-283.65308"
         x="442.13574"
         style="font-size:9.60426617px;font-style:normal;font-weight:normal;line-height:125%;letter-spacing:0px;word-spacing:0px;fill:#000000;fill-opacity:1;stroke:none;font-family:Sans"
         xml:space="preserve"><tspan
           y="-283.65308"
           x="442.13574"
           id="tspan11773-4"
           sodipodi:role="line">3</tspan></text>
      <text
         xml:space="preserve"
         style="font-size:9.60426617px;font-style:normal;font-weight:normal;line-height:125%;letter-spacing:0px;word-spacing:0px;fill:#000000;fill-opacity:1;stroke:none;font-family:Sans"
         x="474.13574"
         y="-283.65308"
         id="text11856"
         sodipodi:linespacing="125%"><tspan
           sodipodi:role="line"
           id="tspan11858"
           x="474.13574"
           y="-283.65308">4</tspan></text>
    </g>
  </g>
</svg>
