<?xml version="1.0" encoding="UTF-8" standalone="no"?>
<!-- Created with Inkscape (http://www.inkscape.org/) -->

<svg
   xmlns:dc="http://purl.org/dc/elements/1.1/"
   xmlns:cc="http://creativecommons.org/ns#"
   xmlns:rdf="http://www.w3.org/1999/02/22-rdf-syntax-ns#"
   xmlns:svg="http://www.w3.org/2000/svg"
   xmlns="http://www.w3.org/2000/svg"
   xmlns:sodipodi="http://sodipodi.sourceforge.net/DTD/sodipodi-0.dtd"
   xmlns:inkscape="http://www.inkscape.org/namespaces/inkscape"
   width="687.67188"
   height="678.46747"
   id="svg2"
   version="1.1"
   inkscape:version="0.48.4 r9939"
   sodipodi:docname="two_balls_intersect.svg">
  <defs
     id="defs4">
    <inkscape:path-effect
       effect="spiro"
       id="path-effect17032"
       is_visible="true" />
    <inkscape:path-effect
       effect="skeletal"
       id="path-effect16958"
       is_visible="true"
       pattern="M 0,5 C 0,2.24 2.24,0 5,0 7.76,0 10,2.24 10,5 10,7.76 7.76,10 5,10 2.24,10 0,7.76 0,5 z"
       copytype="single_stretched"
       prop_scale="1"
       scale_y_rel="false"
       spacing="0"
       normal_offset="0"
       tang_offset="0"
       prop_units="false"
       vertical_pattern="false"
       fuse_tolerance="0" />
    <inkscape:path-effect
       effect="skeletal"
       id="path-effect16954"
       is_visible="true"
       pattern="M 0,5 10,10 10,0 z"
       copytype="single_stretched"
       prop_scale="1"
       scale_y_rel="false"
       spacing="0"
       normal_offset="0"
       tang_offset="0"
       prop_units="false"
       vertical_pattern="false"
       fuse_tolerance="0" />
    <inkscape:path-effect
       effect="spiro"
       id="path-effect11303"
       is_visible="true" />
    <inkscape:path-effect
       effect="spiro"
       id="path-effect11299"
       is_visible="true" />
    <inkscape:path-effect
       effect="spiro"
       id="path-effect11295"
       is_visible="true" />
    <inkscape:path-effect
       effect="spiro"
       id="path-effect11291"
       is_visible="true" />
    <inkscape:path-effect
       effect="spiro"
       id="path-effect11287"
       is_visible="true" />
    <inkscape:path-effect
       effect="spiro"
       id="path-effect11279"
       is_visible="true" />
    <inkscape:path-effect
       effect="spiro"
       id="path-effect11275"
       is_visible="true" />
    <inkscape:path-effect
       effect="spiro"
       id="path-effect11271"
       is_visible="true" />
    <inkscape:path-effect
       effect="spiro"
       id="path-effect11267"
       is_visible="true" />
    <inkscape:path-effect
       effect="spiro"
       id="path-effect11263"
       is_visible="true" />
    <inkscape:path-effect
       effect="spiro"
       id="path-effect11259"
       is_visible="true" />
    <inkscape:path-effect
       effect="spiro"
       id="path-effect11251"
       is_visible="true" />
    <inkscape:path-effect
       effect="spiro"
       id="path-effect11247"
       is_visible="true" />
    <inkscape:path-effect
       effect="spiro"
       id="path-effect11243"
       is_visible="true" />
    <inkscape:path-effect
       effect="spiro"
       id="path-effect11239"
       is_visible="true" />
    <inkscape:path-effect
       effect="spiro"
       id="path-effect11235"
       is_visible="true" />
    <inkscape:path-effect
       effect="spiro"
       id="path-effect11231"
       is_visible="true" />
    <inkscape:path-effect
       effect="spiro"
       id="path-effect11227"
       is_visible="true" />
    <inkscape:path-effect
       effect="spiro"
       id="path-effect11223"
       is_visible="true" />
    <inkscape:path-effect
       effect="spiro"
       id="path-effect11219"
       is_visible="true" />
    <inkscape:path-effect
       effect="spiro"
       id="path-effect10963"
       is_visible="true" />
    <inkscape:path-effect
       effect="spiro"
       id="path-effect10955"
       is_visible="true" />
    <inkscape:path-effect
       effect="spiro"
       id="path-effect10949"
       is_visible="true" />
    <inkscape:path-effect
       effect="spiro"
       id="path-effect10945"
       is_visible="true" />
    <inkscape:path-effect
       effect="spiro"
       id="path-effect10941"
       is_visible="true" />
    <inkscape:path-effect
       effect="spiro"
       id="path-effect7409"
       is_visible="true" />
    <inkscape:path-effect
       effect="spiro"
       id="path-effect7405"
       is_visible="true" />
    <inkscape:path-effect
       effect="spiro"
       id="path-effect7401"
       is_visible="true" />
    <inkscape:path-effect
       effect="spiro"
       id="path-effect7397"
       is_visible="true" />
    <inkscape:path-effect
       effect="spiro"
       id="path-effect7393"
       is_visible="true" />
    <inkscape:path-effect
       effect="spiro"
       id="path-effect7389"
       is_visible="true" />
    <inkscape:path-effect
       effect="spiro"
       id="path-effect6235"
       is_visible="true" />
    <inkscape:path-effect
       effect="spiro"
       id="path-effect6231"
       is_visible="true" />
    <inkscape:path-effect
       effect="spiro"
       id="path-effect6227"
       is_visible="true" />
    <inkscape:path-effect
       effect="spiro"
       id="path-effect6223"
       is_visible="true" />
    <inkscape:path-effect
       effect="spiro"
       id="path-effect6219"
       is_visible="true" />
    <inkscape:path-effect
       effect="spiro"
       id="path-effect6215"
       is_visible="true" />
    <inkscape:path-effect
       effect="spiro"
       id="path-effect3982"
       is_visible="true" />
    <inkscape:path-effect
       effect="spiro"
       id="path-effect3150"
       is_visible="true" />
    <inkscape:path-effect
       effect="spiro"
       id="path-effect3142"
       is_visible="true" />
    <inkscape:path-effect
       effect="spiro"
       id="path-effect3134"
       is_visible="true" />
    <inkscape:path-effect
       effect="spiro"
       id="path-effect3130"
       is_visible="true" />
    <inkscape:path-effect
       effect="spiro"
       id="path-effect3126"
       is_visible="true" />
    <inkscape:path-effect
       effect="spiro"
       id="path-effect3122"
       is_visible="true" />
    <inkscape:path-effect
       effect="spiro"
       id="path-effect3118"
       is_visible="true" />
    <inkscape:path-effect
       effect="spiro"
       id="path-effect3114"
       is_visible="true" />
    <inkscape:path-effect
       effect="spiro"
       id="path-effect3110"
       is_visible="true" />
    <inkscape:path-effect
       effect="spiro"
       id="path-effect3106"
       is_visible="true" />
    <inkscape:path-effect
       effect="spiro"
       id="path-effect3102"
       is_visible="true" />
    <inkscape:path-effect
       effect="spiro"
       id="path-effect3098"
       is_visible="true" />
    <inkscape:path-effect
       effect="spiro"
       id="path-effect3094"
       is_visible="true" />
    <inkscape:path-effect
       effect="spiro"
       id="path-effect3090"
       is_visible="true" />
    <marker
       inkscape:stockid="Arrow1Lstart"
       orient="auto"
       refY="0"
       refX="0"
       id="Arrow1Lstart"
       style="overflow:visible">
      <path
         id="path3893"
         d="M 0,0 5,-5 -12.5,0 5,5 0,0 z"
         style="fill-rule:evenodd;stroke:#000000;stroke-width:1pt"
         transform="matrix(0.8,0,0,0.8,10,0)"
         inkscape:connector-curvature="0" />
    </marker>
    <marker
       inkscape:stockid="Arrow1Lend"
       orient="auto"
       refY="0"
       refX="0"
       id="Arrow1Lend"
       style="overflow:visible">
      <path
         id="path3896"
         d="M 0,0 5,-5 -12.5,0 5,5 0,0 z"
         style="fill-rule:evenodd;stroke:#000000;stroke-width:1pt"
         transform="matrix(-0.8,0,0,-0.8,-10,0)"
         inkscape:connector-curvature="0" />
    </marker>
    <marker
       inkscape:stockid="Arrow1Lend"
       orient="auto"
       refY="0"
       refX="0"
       id="Arrow1Lend-1"
       style="overflow:visible">
      <path
         inkscape:connector-curvature="0"
         id="path3896-3"
         d="M 0,0 5,-5 -12.5,0 5,5 0,0 z"
         style="fill-rule:evenodd;stroke:#000000;stroke-width:1pt"
         transform="matrix(-0.8,0,0,-0.8,-10,0)" />
    </marker>
    <marker
       inkscape:stockid="Arrow1Lend"
       orient="auto"
       refY="0"
       refX="0"
       id="marker4345"
       style="overflow:visible">
      <path
         inkscape:connector-curvature="0"
         id="path4347"
         d="M 0,0 5,-5 -12.5,0 5,5 0,0 z"
         style="fill-rule:evenodd;stroke:#000000;stroke-width:1pt"
         transform="matrix(-0.8,0,0,-0.8,-10,0)" />
    </marker>
    <marker
       inkscape:stockid="Arrow1Lend"
       orient="auto"
       refY="0"
       refX="0"
       id="marker4349"
       style="overflow:visible">
      <path
         inkscape:connector-curvature="0"
         id="path4351"
         d="M 0,0 5,-5 -12.5,0 5,5 0,0 z"
         style="fill-rule:evenodd;stroke:#000000;stroke-width:1pt"
         transform="matrix(-0.8,0,0,-0.8,-10,0)" />
    </marker>
    <marker
       inkscape:stockid="Arrow1Lend"
       orient="auto"
       refY="0"
       refX="0"
       id="marker4353"
       style="overflow:visible">
      <path
         inkscape:connector-curvature="0"
         id="path4355"
         d="M 0,0 5,-5 -12.5,0 5,5 0,0 z"
         style="fill-rule:evenodd;stroke:#000000;stroke-width:1pt"
         transform="matrix(-0.8,0,0,-0.8,-10,0)" />
    </marker>
    <marker
       inkscape:stockid="Arrow1Lend"
       orient="auto"
       refY="0"
       refX="0"
       id="marker4357"
       style="overflow:visible">
      <path
         inkscape:connector-curvature="0"
         id="path4359"
         d="M 0,0 5,-5 -12.5,0 5,5 0,0 z"
         style="fill-rule:evenodd;stroke:#000000;stroke-width:1pt"
         transform="matrix(-0.8,0,0,-0.8,-10,0)" />
    </marker>
    <marker
       inkscape:stockid="Arrow1Lend"
       orient="auto"
       refY="0"
       refX="0"
       id="marker4361"
       style="overflow:visible">
      <path
         inkscape:connector-curvature="0"
         id="path4363"
         d="M 0,0 5,-5 -12.5,0 5,5 0,0 z"
         style="fill-rule:evenodd;stroke:#000000;stroke-width:1pt"
         transform="matrix(-0.8,0,0,-0.8,-10,0)" />
    </marker>
    <marker
       inkscape:stockid="Arrow1Lend"
       orient="auto"
       refY="0"
       refX="0"
       id="marker4365"
       style="overflow:visible">
      <path
         inkscape:connector-curvature="0"
         id="path4367"
         d="M 0,0 5,-5 -12.5,0 5,5 0,0 z"
         style="fill-rule:evenodd;stroke:#000000;stroke-width:1pt"
         transform="matrix(-0.8,0,0,-0.8,-10,0)" />
    </marker>
    <marker
       inkscape:stockid="Arrow1Lend"
       orient="auto"
       refY="0"
       refX="0"
       id="marker4369"
       style="overflow:visible">
      <path
         inkscape:connector-curvature="0"
         id="path4371"
         d="M 0,0 5,-5 -12.5,0 5,5 0,0 z"
         style="fill-rule:evenodd;stroke:#000000;stroke-width:1pt"
         transform="matrix(-0.8,0,0,-0.8,-10,0)" />
    </marker>
    <inkscape:path-effect
       effect="spiro"
       id="path-effect3982-4"
       is_visible="true" />
    <inkscape:path-effect
       effect="spiro"
       id="path-effect3134-4"
       is_visible="true" />
    <inkscape:path-effect
       effect="spiro"
       id="path-effect3130-5"
       is_visible="true" />
    <inkscape:path-effect
       effect="spiro"
       id="path-effect3126-1"
       is_visible="true" />
    <inkscape:path-effect
       effect="spiro"
       id="path-effect3122-2"
       is_visible="true" />
    <inkscape:path-effect
       effect="spiro"
       id="path-effect3118-3"
       is_visible="true" />
    <inkscape:path-effect
       effect="spiro"
       id="path-effect3114-1"
       is_visible="true" />
    <inkscape:path-effect
       effect="spiro"
       id="path-effect3110-8"
       is_visible="true" />
    <inkscape:path-effect
       effect="spiro"
       id="path-effect3106-9"
       is_visible="true" />
    <inkscape:path-effect
       effect="spiro"
       id="path-effect3102-7"
       is_visible="true" />
    <inkscape:path-effect
       effect="spiro"
       id="path-effect3098-2"
       is_visible="true" />
    <inkscape:path-effect
       effect="spiro"
       id="path-effect3094-5"
       is_visible="true" />
    <inkscape:path-effect
       effect="spiro"
       id="path-effect3090-2"
       is_visible="true" />
    <inkscape:path-effect
       effect="spiro"
       id="path-effect3982-4-2"
       is_visible="true" />
    <inkscape:path-effect
       effect="spiro"
       id="path-effect3134-4-0"
       is_visible="true" />
    <inkscape:path-effect
       effect="spiro"
       id="path-effect3130-5-0"
       is_visible="true" />
    <inkscape:path-effect
       effect="spiro"
       id="path-effect3126-1-9"
       is_visible="true" />
    <inkscape:path-effect
       effect="spiro"
       id="path-effect3122-2-4"
       is_visible="true" />
    <inkscape:path-effect
       effect="spiro"
       id="path-effect3118-3-7"
       is_visible="true" />
    <inkscape:path-effect
       effect="spiro"
       id="path-effect3114-1-6"
       is_visible="true" />
    <inkscape:path-effect
       effect="spiro"
       id="path-effect3110-8-8"
       is_visible="true" />
    <inkscape:path-effect
       effect="spiro"
       id="path-effect3106-9-3"
       is_visible="true" />
    <inkscape:path-effect
       effect="spiro"
       id="path-effect3102-7-9"
       is_visible="true" />
    <inkscape:path-effect
       effect="spiro"
       id="path-effect3098-2-5"
       is_visible="true" />
    <inkscape:path-effect
       effect="spiro"
       id="path-effect3094-5-3"
       is_visible="true" />
    <inkscape:path-effect
       effect="spiro"
       id="path-effect3090-2-3"
       is_visible="true" />
    <inkscape:path-effect
       effect="spiro"
       id="path-effect3090-2-4"
       is_visible="true" />
    <inkscape:path-effect
       effect="spiro"
       id="path-effect3094-5-6"
       is_visible="true" />
    <inkscape:path-effect
       effect="spiro"
       id="path-effect3098-2-3"
       is_visible="true" />
    <inkscape:path-effect
       effect="spiro"
       id="path-effect3102-7-5"
       is_visible="true" />
    <inkscape:path-effect
       effect="spiro"
       id="path-effect3106-9-5"
       is_visible="true" />
    <inkscape:path-effect
       effect="spiro"
       id="path-effect3110-8-6"
       is_visible="true" />
    <inkscape:path-effect
       effect="spiro"
       id="path-effect3114-1-9"
       is_visible="true" />
    <inkscape:path-effect
       effect="spiro"
       id="path-effect3118-3-78"
       is_visible="true" />
    <inkscape:path-effect
       effect="spiro"
       id="path-effect3122-2-2"
       is_visible="true" />
    <inkscape:path-effect
       effect="spiro"
       id="path-effect3126-1-2"
       is_visible="true" />
    <inkscape:path-effect
       effect="spiro"
       id="path-effect3130-5-3"
       is_visible="true" />
    <inkscape:path-effect
       effect="spiro"
       id="path-effect3134-4-7"
       is_visible="true" />
    <inkscape:path-effect
       effect="spiro"
       id="path-effect3982-4-1"
       is_visible="true" />
    <marker
       inkscape:stockid="Arrow1Lend"
       orient="auto"
       refY="0"
       refX="0"
       id="marker4369-8"
       style="overflow:visible">
      <path
         inkscape:connector-curvature="0"
         id="path4371-5"
         d="M 0,0 5,-5 -12.5,0 5,5 0,0 z"
         style="fill-rule:evenodd;stroke:#000000;stroke-width:1pt"
         transform="matrix(-0.8,0,0,-0.8,-10,0)" />
    </marker>
    <inkscape:path-effect
       effect="spiro"
       id="path-effect6235-6"
       is_visible="true" />
    <marker
       inkscape:stockid="Arrow1Lend"
       orient="auto"
       refY="0"
       refX="0"
       id="marker6931"
       style="overflow:visible">
      <path
         inkscape:connector-curvature="0"
         id="path6933"
         d="M 0,0 5,-5 -12.5,0 5,5 0,0 z"
         style="fill-rule:evenodd;stroke:#000000;stroke-width:1pt"
         transform="matrix(-0.8,0,0,-0.8,-10,0)" />
    </marker>
    <inkscape:path-effect
       effect="spiro"
       id="path-effect6231-2"
       is_visible="true" />
    <marker
       inkscape:stockid="Arrow1Lend"
       orient="auto"
       refY="0"
       refX="0"
       id="marker6936"
       style="overflow:visible">
      <path
         inkscape:connector-curvature="0"
         id="path6938"
         d="M 0,0 5,-5 -12.5,0 5,5 0,0 z"
         style="fill-rule:evenodd;stroke:#000000;stroke-width:1pt"
         transform="matrix(-0.8,0,0,-0.8,-10,0)" />
    </marker>
    <inkscape:path-effect
       effect="spiro"
       id="path-effect6227-8"
       is_visible="true" />
  </defs>
  <sodipodi:namedview
     id="base"
     pagecolor="#ffffff"
     bordercolor="#666666"
     borderopacity="1.0"
     inkscape:pageopacity="0.0"
     inkscape:pageshadow="2"
     inkscape:zoom="1"
     inkscape:cx="216.59398"
     inkscape:cy="416.57421"
     inkscape:document-units="px"
     inkscape:current-layer="layer1"
     showgrid="false"
     inkscape:object-nodes="false"
     inkscape:snap-grids="true"
     inkscape:snap-page="true"
     inkscape:connector-spacing="57"
     fit-margin-top="8"
     fit-margin-left="8"
     fit-margin-bottom="8"
     fit-margin-right="8"
     inkscape:window-width="1920"
     inkscape:window-height="991"
     inkscape:window-x="0"
     inkscape:window-y="28"
     inkscape:window-maximized="1" />
  <metadata
     id="metadata7">
    <rdf:RDF>
      <cc:Work
         rdf:about="">
        <dc:format>image/svg+xml</dc:format>
        <dc:type
           rdf:resource="http://purl.org/dc/dcmitype/StillImage" />
        <dc:title></dc:title>
      </cc:Work>
    </rdf:RDF>
  </metadata>
  <g
     inkscape:label="Layer 1"
     inkscape:groupmode="layer"
     id="layer1"
     transform="translate(-331.5759,835.12009)">
    <text
       xml:space="preserve"
       style="font-size:20px;font-style:normal;font-weight:normal;line-height:125%;letter-spacing:0px;word-spacing:0px;fill:#000000;fill-opacity:1;stroke:none;font-family:Sans"
       x="116"
       y="221"
       id="text5870"
       sodipodi:linespacing="125%"
       transform="translate(297.61884,-366.95265)"><tspan
         sodipodi:role="line"
         id="tspan5872"
         x="116"
         y="221" /></text>
    <text
       xml:space="preserve"
       style="font-size:20px;font-style:normal;font-weight:normal;line-height:125%;letter-spacing:0px;word-spacing:0px;fill:#000000;fill-opacity:1;stroke:none;font-family:Sans"
       x="785.31659"
       y="-370.56396"
       id="text4095-6"
       sodipodi:linespacing="125%"><tspan
         sodipodi:role="line"
         id="tspan4097-6"
         x="785.31659"
         y="-370.56396">x</tspan></text>
    <path
       sodipodi:type="arc"
       style="fill:#2600c8;fill-opacity:1;stroke:none"
       id="path3755-7-5-3-8-6"
       sodipodi:cx="102.5"
       sodipodi:cy="199.86218"
       sodipodi:rx="10.5"
       sodipodi:ry="10.5"
       d="m 113,199.86218 c 0,5.79899 -4.70101,10.5 -10.5,10.5 -5.79899,0 -10.5,-4.70101 -10.5,-10.5 0,-5.79899 4.70101,-10.5 10.5,-10.5 5.79899,0 10.5,4.70101 10.5,10.5 z"
       transform="matrix(0.762737,0,0,0.762737,478.13608,-763.00625)" />
    <path
       sodipodi:type="arc"
       style="fill:#2600c8;fill-opacity:1;stroke:none"
       id="path3755-7-5-3-8-6-4"
       sodipodi:cx="102.5"
       sodipodi:cy="199.86218"
       sodipodi:rx="10.5"
       sodipodi:ry="10.5"
       d="m 113,199.86218 c 0,5.79899 -4.70101,10.5 -10.5,10.5 -5.79899,0 -10.5,-4.70101 -10.5,-10.5 0,-5.79899 4.70101,-10.5 10.5,-10.5 5.79899,0 10.5,4.70101 10.5,10.5 z"
       transform="matrix(0.762737,0,0,0.762737,701.36103,-549.15415)" />
    <path
       sodipodi:type="arc"
       style="fill:none;stroke:#000000;stroke-width:1.13073431000000002;stroke-linecap:butt;stroke-miterlimit:4;stroke-opacity:1;stroke-dasharray:none;stroke-dashoffset:0;fill-opacity:1;opacity:0.60493827000000000"
       id="path17657"
       sodipodi:cx="226"
       sodipodi:cy="357"
       sodipodi:rx="122"
       sodipodi:ry="122"
       d="m 348,357 c 0,67.37874 -54.62126,122 -122,122 -67.37874,0 -122,-54.62126 -122,-122 0,-67.37874 54.62126,-122 122,-122 67.37874,0 122,54.62126 122,122 z"
       transform="matrix(1.7687621,0,0,1.7687621,156.50902,-1241.8948)" />
    <path
       transform="matrix(1.8938694,0,0,1.8938694,351.2343,-1072.763)"
       d="m 348,357 c 0,67.37874 -54.62126,122 -122,122 -67.37874,0 -122,-54.62126 -122,-122 0,-67.37874 54.62126,-122 122,-122 67.37874,0 122,54.62126 122,122 z"
       sodipodi:ry="122"
       sodipodi:rx="122"
       sodipodi:cy="357"
       sodipodi:cx="226"
       id="path17670"
       style="fill:none;stroke:#000000;stroke-width:1.05603903000000021;stroke-linecap:butt;stroke-miterlimit:4;stroke-opacity:1;stroke-dasharray:none;stroke-dashoffset:0;fill-opacity:1;opacity:0.60082305000000003"
       sodipodi:type="arc" />
    <text
       xml:space="preserve"
       style="font-size:20px;font-style:normal;font-weight:normal;line-height:125%;letter-spacing:0px;word-spacing:0px;fill:#000000;fill-opacity:1;stroke:none;font-family:Sans"
       x="539.19702"
       y="-625.18384"
       id="text4095-6-5"
       sodipodi:linespacing="125%"><tspan
         sodipodi:role="line"
         id="tspan4097-6-8"
         x="539.19702"
         y="-625.18384">y</tspan></text>
    <text
       xml:space="preserve"
       style="font-size:20px;font-style:normal;font-weight:normal;line-height:125%;letter-spacing:0px;word-spacing:0px;fill:#000000;fill-opacity:1;stroke:none;font-family:Sans"
       x="563.57593"
       y="-212.65265"
       id="text17693"
       sodipodi:linespacing="125%"><tspan
         sodipodi:role="line"
         id="tspan17695"
         x="563.57593"
         y="-212.65265">R<tspan
   style="font-size:65.00091553%;baseline-shift:sub"
   id="tspan17701">i</tspan>(x)</tspan></text>
    <text
       xml:space="preserve"
       style="font-size:20px;font-style:normal;font-weight:normal;line-height:125%;letter-spacing:0px;word-spacing:0px;fill:#000000;fill-opacity:1;stroke:none;font-family:Sans"
       x="702.57593"
       y="-787.65265"
       id="text17697"
       sodipodi:linespacing="125%"><tspan
         sodipodi:role="line"
         id="tspan17699"
         x="702.57593"
         y="-787.65265">R<tspan
   style="font-size:65.00091553%;baseline-shift:sub"
   id="tspan17703">j</tspan>(y)</tspan></text>
    <text
       xml:space="preserve"
       style="font-size:20px;font-style:normal;font-weight:normal;line-height:125%;letter-spacing:0px;word-spacing:0px;fill:#000000;fill-opacity:1;stroke:none;font-family:Sans"
       x="624.97235"
       y="-515.41681"
       id="text17697-2"
       sodipodi:linespacing="125%"><tspan
         sodipodi:role="line"
         id="tspan17699-9"
         x="624.97235"
         y="-515.41681">R<tspan
   style="font-size:65.00091553%;baseline-shift:sub"
   id="tspan17880">i</tspan>(x)∩R<tspan
   style="font-size:65.00091553%;baseline-shift:sub"
   id="tspan17703-1">j</tspan>(y)</tspan></text>
    <path
       sodipodi:type="arc"
       style="fill:#2600c8;fill-opacity:1;stroke:none"
       id="path3755-7-5-3-8-6-4-5"
       sodipodi:cx="102.5"
       sodipodi:cy="199.86218"
       sodipodi:rx="10.5"
       sodipodi:ry="10.5"
       d="m 113,199.86218 a 10.5,10.5 0 1 1 -21,0 10.5,10.5 0 1 1 21,0 z"
       transform="matrix(0.762737,0,0,0.762737,608.39536,-531.0949)" />
    <path
       sodipodi:type="arc"
       style="fill:#2600c8;fill-opacity:1;stroke:none"
       id="path3755-7-5-3-8-6-4-2"
       sodipodi:cx="102.5"
       sodipodi:cy="199.86218"
       sodipodi:rx="10.5"
       sodipodi:ry="10.5"
       d="m 113,199.86218 a 10.5,10.5 0 1 1 -21,0 10.5,10.5 0 1 1 21,0 z"
       transform="matrix(0.762737,0,0,0.762737,631.39536,-448.0949)" />
    <path
       sodipodi:type="arc"
       style="fill:#2600c8;fill-opacity:1;stroke:none"
       id="path3755-7-5-3-8-6-4-50"
       sodipodi:cx="102.5"
       sodipodi:cy="199.86218"
       sodipodi:rx="10.5"
       sodipodi:ry="10.5"
       d="m 113,199.86218 a 10.5,10.5 0 1 1 -21,0 10.5,10.5 0 1 1 21,0 z"
       transform="matrix(0.762737,0,0,0.762737,748.39536,-460.0949)" />
    <path
       sodipodi:type="arc"
       style="fill:#2600c8;fill-opacity:1;stroke:none"
       id="path3755-7-5-3-8-6-4-6"
       sodipodi:cx="102.5"
       sodipodi:cy="199.86218"
       sodipodi:rx="10.5"
       sodipodi:ry="10.5"
       d="m 113,199.86218 a 10.5,10.5 0 1 1 -21,0 10.5,10.5 0 1 1 21,0 z"
       transform="matrix(0.762737,0,0,0.762737,750.39536,-679.0949)" />
    <path
       sodipodi:type="arc"
       style="fill:#2600c8;fill-opacity:1;stroke:none"
       id="path3755-7-5-3-8-6-4-56"
       sodipodi:cx="102.5"
       sodipodi:cy="199.86218"
       sodipodi:rx="10.5"
       sodipodi:ry="10.5"
       d="m 113,199.86218 a 10.5,10.5 0 1 1 -21,0 10.5,10.5 0 1 1 21,0 z"
       transform="matrix(0.762737,0,0,0.762737,572.39536,-820.0949)" />
    <path
       sodipodi:type="arc"
       style="fill:#2600c8;fill-opacity:1;stroke:none"
       id="path3755-7-5-3-8-6-4-9"
       sodipodi:cx="102.5"
       sodipodi:cy="199.86218"
       sodipodi:rx="10.5"
       sodipodi:ry="10.5"
       d="m 113,199.86218 a 10.5,10.5 0 1 1 -21,0 10.5,10.5 0 1 1 21,0 z"
       transform="matrix(0.762737,0,0,0.762737,515.39536,-903.0949)" />
    <path
       sodipodi:type="arc"
       style="fill:#2600c8;fill-opacity:1;stroke:none"
       id="path3755-7-5-3-8-6-4-24"
       sodipodi:cx="102.5"
       sodipodi:cy="199.86218"
       sodipodi:rx="10.5"
       sodipodi:ry="10.5"
       d="m 113,199.86218 a 10.5,10.5 0 1 1 -21,0 10.5,10.5 0 1 1 21,0 z"
       transform="matrix(0.762737,0,0,0.762737,383.39536,-760.0949)" />
    <path
       sodipodi:type="arc"
       style="fill:#2600c8;fill-opacity:1;stroke:none"
       id="path3755-7-5-3-8-6-4-99"
       sodipodi:cx="102.5"
       sodipodi:cy="199.86218"
       sodipodi:rx="10.5"
       sodipodi:ry="10.5"
       d="m 113,199.86218 a 10.5,10.5 0 1 1 -21,0 10.5,10.5 0 1 1 21,0 z"
       transform="matrix(0.762737,0,0,0.762737,392.39536,-870.0949)" />
    <path
       sodipodi:type="arc"
       style="fill:#2600c8;fill-opacity:1;stroke:none"
       id="path3755-7-5-3-8-6-4-51"
       sodipodi:cx="102.5"
       sodipodi:cy="199.86218"
       sodipodi:rx="10.5"
       sodipodi:ry="10.5"
       d="m 113,199.86218 a 10.5,10.5 0 1 1 -21,0 10.5,10.5 0 1 1 21,0 z"
       transform="matrix(0.762737,0,0,0.762737,436.39536,-659.0949)" />
    <path
       sodipodi:type="arc"
       style="fill:#2600c8;fill-opacity:1;stroke:none"
       id="path3755-7-5-3-8-6-4-1"
       sodipodi:cx="102.5"
       sodipodi:cy="199.86218"
       sodipodi:rx="10.5"
       sodipodi:ry="10.5"
       d="m 113,199.86218 a 10.5,10.5 0 1 1 -21,0 10.5,10.5 0 1 1 21,0 z"
       transform="matrix(0.762737,0,0,0.762737,429.39536,-591.0949)" />
    <path
       sodipodi:type="arc"
       style="fill:#2600c8;fill-opacity:1;stroke:none"
       id="path3755-7-5-3-8-6-4-3"
       sodipodi:cx="102.5"
       sodipodi:cy="199.86218"
       sodipodi:rx="10.5"
       sodipodi:ry="10.5"
       d="m 113,199.86218 a 10.5,10.5 0 1 1 -21,0 10.5,10.5 0 1 1 21,0 z"
       transform="matrix(0.762737,0,0,0.762737,518.39536,-601.0949)" />
    <path
       sodipodi:type="arc"
       style="fill:#2600c8;fill-opacity:1;stroke:none"
       id="path3755-7-5-3-8-6-4-97"
       sodipodi:cx="102.5"
       sodipodi:cy="199.86218"
       sodipodi:rx="10.5"
       sodipodi:ry="10.5"
       d="m 113,199.86218 a 10.5,10.5 0 1 1 -21,0 10.5,10.5 0 1 1 21,0 z"
       transform="matrix(0.762737,0,0,0.762737,629.39536,-726.0949)" />
    <path
       sodipodi:type="arc"
       style="fill:#2600c8;fill-opacity:1;stroke:none"
       id="path3755-7-5-3-8-6-4-32"
       sodipodi:cx="102.5"
       sodipodi:cy="199.86218"
       sodipodi:rx="10.5"
       sodipodi:ry="10.5"
       d="m 113,199.86218 a 10.5,10.5 0 1 1 -21,0 10.5,10.5 0 1 1 21,0 z"
       transform="matrix(0.762737,0,0,0.762737,584.39536,-630.0949)" />
    <path
       sodipodi:type="arc"
       style="fill:#2600c8;fill-opacity:1;stroke:none"
       id="path3755-7-5-3-8-6-4-59"
       sodipodi:cx="102.5"
       sodipodi:cy="199.86218"
       sodipodi:rx="10.5"
       sodipodi:ry="10.5"
       d="m 113,199.86218 a 10.5,10.5 0 1 1 -21,0 10.5,10.5 0 1 1 21,0 z"
       transform="matrix(0.762737,0,0,0.762737,571.39536,-707.0949)" />
    <path
       sodipodi:type="arc"
       style="fill:#2600c8;fill-opacity:1;stroke:none"
       id="path3755-7-5-3-8-6-4-67"
       sodipodi:cx="102.5"
       sodipodi:cy="199.86218"
       sodipodi:rx="10.5"
       sodipodi:ry="10.5"
       d="m 113,199.86218 a 10.5,10.5 0 1 1 -21,0 10.5,10.5 0 1 1 21,0 z"
       transform="matrix(0.762737,0,0,0.762737,849.39536,-585.0949)" />
    <path
       sodipodi:type="arc"
       style="fill:#2600c8;fill-opacity:1;stroke:none"
       id="path3755-7-5-3-8-6-4-11"
       sodipodi:cx="102.5"
       sodipodi:cy="199.86218"
       sodipodi:rx="10.5"
       sodipodi:ry="10.5"
       d="m 113,199.86218 a 10.5,10.5 0 1 1 -21,0 10.5,10.5 0 1 1 21,0 z"
       transform="matrix(0.762737,0,0,0.762737,683.39536,-373.0949)" />
    <path
       sodipodi:type="arc"
       style="fill:#2600c8;fill-opacity:1;stroke:none"
       id="path3755-7-5-3-8-6-4-595"
       sodipodi:cx="102.5"
       sodipodi:cy="199.86218"
       sodipodi:rx="10.5"
       sodipodi:ry="10.5"
       d="m 113,199.86218 a 10.5,10.5 0 1 1 -21,0 10.5,10.5 0 1 1 21,0 z"
       transform="matrix(0.762737,0,0,0.762737,829.39536,-474.0949)" />
    <path
       sodipodi:type="arc"
       style="fill:#2600c8;fill-opacity:1;stroke:none"
       id="path3755-7-5-3-8-6-4-61"
       sodipodi:cx="102.5"
       sodipodi:cy="199.86218"
       sodipodi:rx="10.5"
       sodipodi:ry="10.5"
       d="m 113,199.86218 a 10.5,10.5 0 1 1 -21,0 10.5,10.5 0 1 1 21,0 z"
       transform="matrix(0.762737,0,0,0.762737,776.39536,-603.0949)" />
    <path
       sodipodi:type="arc"
       style="fill:#2600c8;fill-opacity:1;stroke:none"
       id="path3755-7-5-3-8-6-4-30"
       sodipodi:cx="102.5"
       sodipodi:cy="199.86218"
       sodipodi:rx="10.5"
       sodipodi:ry="10.5"
       d="m 113,199.86218 a 10.5,10.5 0 1 1 -21,0 10.5,10.5 0 1 1 21,0 z"
       transform="matrix(0.762737,0,0,0.762737,545.39536,-461.0949)" />
    <path
       sodipodi:type="arc"
       style="fill:#2600c8;fill-opacity:1;stroke:none"
       id="path3755-7-5-3-8-6-4-56-3"
       sodipodi:cx="102.5"
       sodipodi:cy="199.86218"
       sodipodi:rx="10.5"
       sodipodi:ry="10.5"
       d="m 113,199.86218 a 10.5,10.5 0 1 1 -21,0 10.5,10.5 0 1 1 21,0 z"
       transform="matrix(0.762737,0,0,0.762737,310.39536,-804.0949)" />
  </g>
</svg>
