<?xml version="1.0" encoding="UTF-8" standalone="no"?>
<!-- Created with Inkscape (http://www.inkscape.org/) -->

<svg
   xmlns:dc="http://purl.org/dc/elements/1.1/"
   xmlns:cc="http://creativecommons.org/ns#"
   xmlns:rdf="http://www.w3.org/1999/02/22-rdf-syntax-ns#"
   xmlns:svg="http://www.w3.org/2000/svg"
   xmlns="http://www.w3.org/2000/svg"
   xmlns:sodipodi="http://sodipodi.sourceforge.net/DTD/sodipodi-0.dtd"
   xmlns:inkscape="http://www.inkscape.org/namespaces/inkscape"
   width="296.59375"
   height="428.51318"
   id="svg2"
   version="1.1"
   inkscape:version="0.48.4 r9939"
   sodipodi:docname="New document 1">
  <defs
     id="defs4">
    <marker
       inkscape:stockid="Arrow1Lstart"
       orient="auto"
       refY="0"
       refX="0"
       id="Arrow1Lstart"
       style="overflow:visible">
      <path
         id="path4144"
         d="M 0,0 5,-5 -12.5,0 5,5 0,0 z"
         style="fill-rule:evenodd;stroke:#000000;stroke-width:1pt"
         transform="matrix(0.8,0,0,0.8,10,0)"
         inkscape:connector-curvature="0" />
    </marker>
    <marker
       inkscape:stockid="Arrow1Lend"
       orient="auto"
       refY="0"
       refX="0"
       id="Arrow1Lend"
       style="overflow:visible">
      <path
         id="path4147"
         d="M 0,0 5,-5 -12.5,0 5,5 0,0 z"
         style="fill-rule:evenodd;stroke:#000000;stroke-width:1pt"
         transform="matrix(-0.8,0,0,-0.8,-10,0)"
         inkscape:connector-curvature="0" />
    </marker>
    <inkscape:path-effect
       effect="spiro"
       id="path-effect4134"
       is_visible="true" />
    <inkscape:path-effect
       effect="spiro"
       id="path-effect4130"
       is_visible="true" />
    <inkscape:path-effect
       effect="spiro"
       id="path-effect4126"
       is_visible="true" />
    <inkscape:path-effect
       effect="spiro"
       id="path-effect4122"
       is_visible="true" />
    <inkscape:path-effect
       effect="spiro"
       id="path-effect4118"
       is_visible="true" />
    <inkscape:path-effect
       effect="spiro"
       id="path-effect4114"
       is_visible="true" />
    <inkscape:path-effect
       effect="spiro"
       id="path-effect4110"
       is_visible="true" />
  </defs>
  <sodipodi:namedview
     id="base"
     pagecolor="#ffffff"
     bordercolor="#666666"
     borderopacity="1.0"
     inkscape:pageopacity="0.0"
     inkscape:pageshadow="2"
     inkscape:zoom="1"
     inkscape:cx="200.05154"
     inkscape:cy="190.08263"
     inkscape:document-units="px"
     inkscape:current-layer="layer1"
     showgrid="false"
     fit-margin-top="8"
     fit-margin-left="8"
     fit-margin-right="8"
     fit-margin-bottom="8"
     inkscape:window-width="977"
     inkscape:window-height="708"
     inkscape:window-x="801"
     inkscape:window-y="125"
     inkscape:window-maximized="0" />
  <metadata
     id="metadata7">
    <rdf:RDF>
      <cc:Work
         rdf:about="">
        <dc:format>image/svg+xml</dc:format>
        <dc:type
           rdf:resource="http://purl.org/dc/dcmitype/StillImage" />
        <dc:title></dc:title>
      </cc:Work>
    </rdf:RDF>
  </metadata>
  <g
     inkscape:label="Layer 1"
     inkscape:groupmode="layer"
     id="layer1"
     transform="translate(-58.414997,-551.84899)">
    <path
       sodipodi:type="arc"
       style="fill:#2600c8;fill-opacity:1;stroke:none"
       id="path3755-7-5-3-8-6-4-56"
       sodipodi:cx="102.5"
       sodipodi:cy="199.86218"
       sodipodi:rx="10.5"
       sodipodi:ry="10.5"
       d="m 113,199.86218 c 0,5.79899 -4.70101,10.5 -10.5,10.5 -5.79899,0 -10.5,-4.70101 -10.5,-10.5 0,-5.79899 4.70101,-10.5 10.5,-10.5 5.79899,0 10.5,4.70101 10.5,10.5 z"
       transform="matrix(0.762737,0,0,0.762737,224.81946,731.9199)" />
    <g
       inkscape:label="Layer 1"
       id="layer1-7"
       transform="matrix(0.15820396,0,0,0.15820396,60.268209,527.50826)">
      <g
         transform="matrix(0.14581,0,0,0.14581,963.22,1159)"
         id="g4436">
        <path
           d="m -4122.5,-6166.1 -272.97,1313.9 -492.72,-323.25 -10.375,10.344 322.69,491.94 -1311.3,272.34 v 23.5 l 1310.8,272.34 -324.78,495.09 10.344,10.344 493.03,-323.38 272.88,1313.8 h 23.5 l 273.03,-1314.1 492.75,323.22 10.344,-10.344 -322.81,-492.12 1311.2,-272.38 v -23.5 l -1310.5,-272.28 324.53,-494.69 -10.375,-10.344 -492.91,323.31 -272.88,-1313.7 h -23.5 z m -0.2188,119.03 v 1373.8 254.84 l -280.16,-280.25 28.969,-139.38 251.19,-1209 z m 736.97,923.69 -411.25,411.25 -25.875,-124.53 437.12,-286.72 z m -1460.5,10.781 410.31,410.31 -124.25,25.812 -286.06,-436.12 z m 1042,433.81 142.66,29.656 1205.7,250.5 h -1370 -258.53 l 280.22,-280.16 z m -1963.9,301.66 h 1370.3 258.5 l -280.22,280.22 -142.69,-29.656 -1205.9,-250.56 z m 1666.9,20.094 280.22,280.22 -28.969,139.38 -251.25,1209.2 v -1374.1 -254.75 z m 437.38,257.75 286.19,436.34 -410.53,-410.53 124.34,-25.812 z m -763.09,36.062 25.844,124.56 -437.19,286.78 411.34,-411.34 z"
           inkscape:connector-curvature="0"
           style="text-indent:0;text-transform:none;block-progression:tb;color:#000000;fill:#000000"
           id="path3254-2-2-7-1" />
        <g
           style="fill:#000000"
           id="text4344">
          <path
             d="m -3979.5,-6530.1 c -23.317,2.1687 -34.975,39.275 -34.975,111.32 v 133.09 h -15.617 l -158.28,-222.83 v 67.196 c 0,32.965 1.1248,57.581 3.3745,73.848 4.8321,35.637 15.491,54.49 31.978,56.561 v 16.434 h -91.524 v -16.348 c 23.195,-3.5652 34.792,-46.361 34.792,-128.39 v -65.942 c 0,-9.6561 -1.6771,-16.108 -5.0312,-19.357 -3.3542,-3.2483 -11.236,-5.0187 -23.645,-5.3114 v -16.872 h 69.218 l 132.41,186.71 v -52.87 c -2e-4,-75.764 -11.594,-114.86 -34.78,-117.28 v -16.568 h 92.084 z"
             inkscape:connector-curvature="0"
             id="path4434" />
        </g>
        <g
           style="fill:#000000"
           id="text4344-1">
          <path
             d="m -1997.1,-4399.2 c -3e-4,25.891 -7.34,50.6 -22.019,74.128 -14.68,23.528 -33.665,41.212 -56.957,53.053 -20.994,10.688 -43.108,16.032 -66.344,16.032 -33.939,1e-4 -62.378,-11.467 -85.317,-34.402 -22.939,-22.935 -34.408,-51.242 -34.408,-84.921 -1e-4,-38.17 14.129,-71.71 42.388,-100.62 28.258,-28.908 61.554,-43.362 99.887,-43.362 44.213,3e-4 78.688,17.896 103.43,53.686 12.896,18.606 19.345,40.741 19.345,66.404 z m -40.871,33.635 c -2e-4,-22.87 -4.7106,-44.343 -14.131,-64.419 -10.396,-21.911 -24.657,-38.097 -42.783,-48.558 -17.648,-10.119 -33.939,-15.179 -48.874,-15.179 -23.723,3e-4 -42.784,8.41 -57.183,25.229 -13.555,15.967 -20.332,36.323 -20.332,61.069 -1e-4,33.249 9.4979,62.145 28.494,86.688 20.62,26.63 46.771,39.945 78.453,39.945 22.439,0 40.964,-8.4503 55.574,-25.351 13.855,-16.275 20.782,-36.083 20.783,-59.424 z"
             inkscape:connector-curvature="0"
             id="path4431" />
        </g>
        <g
           style="fill:#000000"
           id="text4344-8">
          <path
             d="m -4034.5,-2329.2 c -2e-4,22.602 -10.432,42.048 -31.296,58.34 -19.012,14.919 -40.079,22.378 -63.2,22.378 -17.339,0 -37.496,-4.4383 -60.472,-13.315 v -75.322 h 22.147 c 0,19.41 4.6779,35.356 14.034,47.839 10.046,13.465 22.858,20.198 38.434,20.198 12.32,0 22.33,-3.5896 30.029,-10.769 7.6989,-7.1792 11.548,-16.941 11.549,-29.286 -2e-4,-12.816 -5.9856,-24.855 -17.956,-36.12 -5.0597,-4.6778 -17.177,-13.392 -36.351,-26.143 -16.446,-10.923 -28.685,-19.816 -36.717,-26.679 -5.9206,-5.0676 -10.684,-11.488 -14.29,-19.26 -3.3054,-6.9192 -4.9581,-14.168 -4.9581,-21.745 0,-21.221 9.8837,-39.076 29.651,-53.565 17.534,-12.758 37.176,-19.138 58.925,-19.138 11.76,3e-4 28.283,3.6671 49.569,11 v 66.551 h -22.305 c -0.9991,-16.892 -5.3156,-30.333 -12.95,-40.323 -8.3001,-10.956 -18.935,-16.433 -31.905,-16.434 -9.429,2e-4 -17.319,2.8387 -23.67,8.5152 -6.3266,5.8883 -9.4898,13.535 -9.4898,22.939 0,11.971 6.895,24.141 20.685,36.51 5.3113,4.8081 17.899,13.859 37.764,27.154 17.851,11.898 29.541,20.677 35.072,26.338 11.8,11.947 17.7,25.392 17.701,40.335 z"
             inkscape:connector-curvature="0"
             id="path4428" />
        </g>
        <g
           style="fill:#000000"
           id="text4344-7">
          <path
             d="m -5962.7,-4501.3 c -14.741,0.2602 -28.799,17.181 -42.174,50.763 l -77.417,193.55 h -17.627 l -53.236,-161.49 c -9.1855,20.669 -17.599,40.684 -25.241,60.045 l -39.957,101.44 h -17.274 l -65.284,-192.59 c -8.3407,-24.762 -16.19,-40.233 -23.548,-46.414 -3.8496,-3.1914 -8.8727,-5.0472 -15.069,-5.5672 v -16.641 h 75.261 v 16.848 c -4.7104,0.1302 -7.0656,0.9748 -7.0656,2.5339 0,0.7393 0.1665,1.6042 0.4995,2.5947 l 56.854,176.58 27.605,-77.758 c 9.1201,-23.008 13.68,-44.838 13.68,-65.491 -10e-5,-24.559 -10.704,-37.411 -32.112,-38.556 v -16.75 h 76.235 v 16.872 c -5.4822,0.1302 -8.2231,0.9017 -8.2229,2.3145 -2e-4,0.8693 0.1663,1.7992 0.4994,2.7897 l 57.572,176.58 34.719,-96.299 c 11.792,-29.862 17.688,-50.99 17.688,-63.383 -3e-4,-8.8765 -2.0712,-14.744 -6.2128,-17.603 -3.728,-2.6392 -11.975,-4.1051 -24.742,-4.3977 v -16.872 h 94.569 z"
             inkscape:connector-curvature="0"
             id="path4425" />
        </g>
      </g>
    </g>
    <path
       sodipodi:type="arc"
       style="fill:#2600c8;fill-opacity:1;stroke:none"
       id="path3755-7-5-3-8-6-4-56-1"
       sodipodi:cx="102.5"
       sodipodi:cy="199.86218"
       sodipodi:rx="10.5"
       sodipodi:ry="10.5"
       d="m 113,199.86218 c 0,5.79899 -4.70101,10.5 -10.5,10.5 -5.79899,0 -10.5,-4.70101 -10.5,-10.5 0,-5.79899 4.70101,-10.5 10.5,-10.5 5.79899,0 10.5,4.70101 10.5,10.5 z"
       transform="matrix(0.762737,0,0,0.762737,245.81946,666.9199)" />
    <path
       sodipodi:type="arc"
       style="fill:#2600c8;fill-opacity:1;stroke:none"
       id="path3755-7-5-3-8-6-4-56-1-6"
       sodipodi:cx="102.5"
       sodipodi:cy="199.86218"
       sodipodi:rx="10.5"
       sodipodi:ry="10.5"
       d="m 113,199.86218 c 0,5.79899 -4.70101,10.5 -10.5,10.5 -5.79899,0 -10.5,-4.70101 -10.5,-10.5 0,-5.79899 4.70101,-10.5 10.5,-10.5 5.79899,0 10.5,4.70101 10.5,10.5 z"
       transform="matrix(0.762737,0,0,0.762737,234.81946,603.9199)" />
    <path
       sodipodi:type="arc"
       style="fill:#2600c8;fill-opacity:1;stroke:none"
       id="path3755-7-5-3-8-6-4-56-1-1"
       sodipodi:cx="102.5"
       sodipodi:cy="199.86218"
       sodipodi:rx="10.5"
       sodipodi:ry="10.5"
       d="m 113,199.86218 c 0,5.79899 -4.70101,10.5 -10.5,10.5 -5.79899,0 -10.5,-4.70101 -10.5,-10.5 0,-5.79899 4.70101,-10.5 10.5,-10.5 5.79899,0 10.5,4.70101 10.5,10.5 z"
       transform="matrix(0.762737,0,0,0.762737,260.81946,551.9199)" />
    <path
       sodipodi:type="arc"
       style="fill:#2600c8;fill-opacity:1;stroke:none"
       id="path3755-7-5-3-8-6-4-56-1-13"
       sodipodi:cx="102.5"
       sodipodi:cy="199.86218"
       sodipodi:rx="10.5"
       sodipodi:ry="10.5"
       d="m 113,199.86218 c 0,5.79899 -4.70101,10.5 -10.5,10.5 -5.79899,0 -10.5,-4.70101 -10.5,-10.5 0,-5.79899 4.70101,-10.5 10.5,-10.5 5.79899,0 10.5,4.70101 10.5,10.5 z"
       transform="matrix(0.762737,0,0,0.762737,225.81946,512.9199)" />
    <path
       sodipodi:type="arc"
       style="fill:#2600c8;fill-opacity:1;stroke:none"
       id="path3755-7-5-3-8-6-4-56-1-61"
       sodipodi:cx="102.5"
       sodipodi:cy="199.86218"
       sodipodi:rx="10.5"
       sodipodi:ry="10.5"
       d="m 113,199.86218 c 0,5.79899 -4.70101,10.5 -10.5,10.5 -5.79899,0 -10.5,-4.70101 -10.5,-10.5 0,-5.79899 4.70101,-10.5 10.5,-10.5 5.79899,0 10.5,4.70101 10.5,10.5 z"
       transform="matrix(0.762737,0,0,0.762737,136.81946,472.9199)" />
    <path
       sodipodi:type="arc"
       style="fill:#2600c8;fill-opacity:1;stroke:none"
       id="path3755-7-5-3-8-6-4-56-1-4"
       sodipodi:cx="102.5"
       sodipodi:cy="199.86218"
       sodipodi:rx="10.5"
       sodipodi:ry="10.5"
       d="m 113,199.86218 c 0,5.79899 -4.70101,10.5 -10.5,10.5 -5.79899,0 -10.5,-4.70101 -10.5,-10.5 0,-5.79899 4.70101,-10.5 10.5,-10.5 5.79899,0 10.5,4.70101 10.5,10.5 z"
       transform="matrix(0.762737,0,0,0.762737,164.81946,793.9199)" />
    <text
       xml:space="preserve"
       style="font-size:20px;font-style:normal;font-weight:normal;line-height:125%;letter-spacing:0px;word-spacing:0px;fill:#000000;fill-opacity:1;stroke:none;font-family:Sans"
       x="317"
       y="902.36218"
       id="text4100"
       sodipodi:linespacing="125%"><tspan
         sodipodi:role="line"
         id="tspan4102"
         x="317"
         y="902.36218">x</tspan></text>
    <text
       xml:space="preserve"
       style="font-size:20px;font-style:normal;font-weight:normal;line-height:125%;letter-spacing:0px;word-spacing:0px;fill:#000000;fill-opacity:1;stroke:none;font-family:Sans"
       x="219"
       y="609.36218"
       id="text4104"
       sodipodi:linespacing="125%"><tspan
         sodipodi:role="line"
         id="tspan4106"
         x="219"
         y="609.36218">y</tspan></text>
    <path
       style="fill:none;stroke:#000000;stroke-width:1px;stroke-linecap:butt;stroke-linejoin:miter;stroke-opacity:1;marker-end:url(#Arrow1Lend)"
       d="m 306.17724,323.93041 16.26345,-49.49747"
       id="path4108"
       inkscape:path-effect="#path-effect4110"
       inkscape:original-d="m 306.17724,323.93041 16.26345,-49.49747"
       inkscape:connector-curvature="0"
       transform="translate(0,552.36218)" />
    <path
       style="fill:none;stroke:#000000;stroke-width:1px;stroke-linecap:butt;stroke-linejoin:miter;stroke-opacity:1;marker-end:url(#Arrow1Lend)"
       d="m 321.73359,258.87659 -7.77818,-47.37616"
       id="path4112"
       inkscape:path-effect="#path-effect4114"
       inkscape:original-d="m 321.73359,258.87659 -7.77818,-47.37616"
       inkscape:connector-curvature="0"
       transform="translate(0,552.36218)" />
    <path
       style="fill:none;stroke:#000000;stroke-width:1px;stroke-linecap:butt;stroke-linejoin:miter;stroke-opacity:1;marker-end:url(#Arrow1Lend)"
       d="m 316.78384,196.65119 19.79899,-38.18377"
       id="path4116"
       inkscape:path-effect="#path-effect4118"
       inkscape:original-d="m 316.78384,196.65119 19.79899,-38.18377"
       inkscape:connector-curvature="0"
       transform="translate(0,552.36218)" />
    <path
       style="fill:none;stroke:#000000;stroke-width:1px;stroke-linecap:butt;stroke-linejoin:miter;stroke-opacity:1;marker-end:url(#Arrow1Lend)"
       d="M 333.7544,146.44661 309.71277,118.86944"
       id="path4120"
       inkscape:path-effect="#path-effect4122"
       inkscape:original-d="M 333.7544,146.44661 309.71277,118.86944"
       inkscape:connector-curvature="0"
       transform="translate(0,552.36218)" />
    <path
       style="fill:none;stroke:#000000;stroke-width:1px;stroke-linecap:butt;stroke-linejoin:miter;stroke-opacity:1;marker-end:url(#Arrow1Lend)"
       d="M 295.57063,109.67706 221.32442,76.443038"
       id="path4124"
       inkscape:path-effect="#path-effect4126"
       inkscape:original-d="M 295.57063,109.67706 221.32442,76.443038"
       inkscape:connector-curvature="0"
       transform="translate(0,552.36218)" />
    <path
       style="fill:none;stroke:#e14003;stroke-width:1px;stroke-linecap:butt;stroke-linejoin:miter;stroke-opacity:1;marker-start:url(#Arrow1Lstart);marker-end:none"
       d="m 248.90159,389.69134 50.20458,-50.20458"
       id="path4128"
       inkscape:path-effect="#path-effect4130"
       inkscape:original-d="m 248.90159,389.69134 50.20458,-50.20458"
       inkscape:connector-curvature="0"
       transform="translate(0,552.36218)" />
    <path
       style="fill:none;stroke:#e14003;stroke-width:1px;stroke-linecap:butt;stroke-linejoin:miter;stroke-opacity:1;marker-end:url(#Arrow1Lend)"
       d="M 240,384 215,79"
       id="path4132"
       inkscape:path-effect="#path-effect4134"
       inkscape:original-d="M 240,384 215,79"
       inkscape:connector-curvature="0"
       transform="translate(0,552.36218)" />
    <text
       xml:space="preserve"
       style="font-size:20px;font-style:normal;font-weight:normal;line-height:125%;letter-spacing:0px;word-spacing:0px;fill:#000000;fill-opacity:1;stroke:none;font-family:Sans"
       x="234"
       y="972.36218"
       id="text5500"
       sodipodi:linespacing="125%"><tspan
         sodipodi:role="line"
         id="tspan5502"
         x="234"
         y="972.36218">z</tspan></text>
  </g>
</svg>
